<?xml version="1.0" encoding="utf-8"?>
<!-- Generator: Adobe Illustrator 15.1.0, SVG Export Plug-In . SVG Version: 6.00 Build 0)  -->
<!DOCTYPE svg PUBLIC "-//W3C//DTD SVG 1.1//EN" "http://www.w3.org/Graphics/SVG/1.1/DTD/svg11.dtd">
<svg version="1.1"
	 id="svg2" sodipodi:docname="twitter_bootstrap_logo.svg" inkscape:version="0.48.1 r9760" xmlns:dc="http://purl.org/dc/elements/1.1/" xmlns:cc="http://creativecommons.org/ns#" xmlns:rdf="http://www.w3.org/1999/02/22-rdf-syntax-ns#" xmlns:svg="http://www.w3.org/2000/svg" xmlns:sodipodi="http://sodipodi.sourceforge.net/DTD/sodipodi-0.dtd" xmlns:inkscape="http://www.inkscape.org/namespaces/inkscape"
	 xmlns="http://www.w3.org/2000/svg" xmlns:xlink="http://www.w3.org/1999/xlink" x="0px" y="0px" width="40px" height="40px"
	 viewBox="0 0 40 40" enable-background="new 0 0 40 40" xml:space="preserve">
<sodipodi:namedview  id="namedview2996" inkscape:current-layer="svg2" inkscape:window-y="0" inkscape:window-x="0" fit-margin-bottom="0" fit-margin-right="0" inkscape:window-height="623" inkscape:window-width="864" inkscape:pageshadow="2" inkscape:pageopacity="0" inkscape:cy="407.66551" inkscape:cx="116.80866" inkscape:zoom="0.24896372" fit-margin-left="0" fit-margin-top="0" showgrid="false" guidetolerance="10" gridtolerance="10" objecttolerance="10" borderopacity="1" bordercolor="#666666" pagecolor="#ffffff" inkscape:window-maximized="0">
	</sodipodi:namedview>
<g id="layer1" transform="matrix(15.623041,0,0,15.623041,-3987.6024,-6644.8835)">
	<g id="text3836" transform="scale(1.0052013,0.99482561)">
		
			<linearGradient id="path3841_1_" gradientUnits="userSpaceOnUse" x1="245.3995" y1="415.0042" x2="265.0571" y2="415.0042" gradientTransform="matrix(3873.0752 0 0 -3754.3743 -950196.1875 1558510.125)">
			<stop  offset="0" style="stop-color:#070135"/>
			<stop  offset="1" style="stop-color:#612D50"/>
		</linearGradient>
		<path id="path3841" inkscape:connector-curvature="0" fill="url(#path3841_1_)" d="M255.19,428.672
			c0.06,0,0.104-0.013,0.136-0.042c0.031-0.028,0.046-0.069,0.046-0.124c0-0.053-0.015-0.094-0.046-0.122
			c-0.031-0.029-0.076-0.043-0.136-0.043h-0.21v0.329L255.19,428.672 M255.202,429.354c0.076,0,0.133-0.016,0.172-0.051
			c0.039-0.034,0.058-0.086,0.058-0.155c0-0.067-0.019-0.118-0.057-0.151c-0.038-0.034-0.096-0.051-0.173-0.051h-0.222v0.407
			L255.202,429.354 M255.555,428.794c0.082,0.026,0.144,0.071,0.19,0.139c0.045,0.067,0.067,0.149,0.067,0.248
			c0,0.149-0.047,0.262-0.144,0.336c-0.096,0.074-0.242,0.11-0.437,0.11h-0.629v-1.556h0.569c0.204,0,0.352,0.033,0.444,0.098
			c0.092,0.066,0.137,0.17,0.137,0.314c0,0.076-0.016,0.14-0.05,0.193C255.668,428.729,255.619,428.768,255.555,428.794"/>
	</g>
</g>
</svg>
