<?xml version="1.0" encoding="utf-8"?>
<!-- Generator: Adobe Illustrator 15.1.0, SVG Export Plug-In . SVG Version: 6.00 Build 0)  -->
<!DOCTYPE svg PUBLIC "-//W3C//DTD SVG 1.1//EN" "http://www.w3.org/Graphics/SVG/1.1/DTD/svg11.dtd">
<svg version="1.1" xmlns="http://www.w3.org/2000/svg" xmlns:xlink="http://www.w3.org/1999/xlink" x="0px" y="0px" width="40px"
	 height="40px" viewBox="0 0 40 40" enable-background="new 0 0 40 40" xml:space="preserve">
<g id="Calque_1" display="none">
	
		<image display="inline" overflow="visible" width="626" height="469" xlink:href="D772CE57.jpg"  transform="matrix(1 0 0 1 -293 -215)">
	</image>
</g>
<g id="Calque_3">
	<rect x="1.187" y="1" fill-rule="evenodd" clip-rule="evenodd" fill="#383838" width="38" height="38"/>
</g>
<g id="Calque_2">
	<defs>
		<rect id="SVGID_1_" x="1.187" y="1" width="38" height="38"/>
	</defs>
	<clipPath id="SVGID_2_">
		<use xlink:href="#SVGID_1_"  overflow="visible"/>
	</clipPath>
	<g clip-path="url(#SVGID_2_)">
		<g>
			<path fill-rule="evenodd" clip-rule="evenodd" fill="#383838" d="M35.566,4.01c0.125-0.039,0.305,0.078,0.303,0.217
				c-0.002,0.185-0.275,0.353-0.289,0.462c-0.034,0.292,0.487,0.47,0.304,0.91c-0.058,0.138-0.188,0.244-0.289,0.361
				c-0.105,0.122-0.229,0.292-0.375,0.274c-0.116-0.015-0.151-0.192-0.275-0.26c-0.106-0.059-0.434-0.143-0.563-0.115
				c-0.351,0.075-0.204,0.573-0.028,0.794c0.108,0.138,0.271,0.12,0.303,0.274c0.048,0.228-0.172,0.425-0.245,0.521
				c-0.061,0.078-0.191,0.35-0.391,0.361c-0.166,0.009-0.273-0.158-0.404-0.246c-0.142-0.095-0.296-0.187-0.404-0.231
				c-0.094-0.038-0.284-0.03-0.347-0.116c-0.132-0.18,0.126-0.488,0.217-0.592c0.145-0.167,0.275-0.369,0.404-0.462
				c0.166-0.121,0.444-0.134,0.549-0.289c0.112-0.167,0.046-0.37,0.116-0.549c0.042-0.107,0.147-0.212,0.245-0.333
				c0.111-0.136,0.191-0.278,0.318-0.361c0.111-0.073,0.257-0.09,0.375-0.159C35.236,4.387,35.377,4.068,35.566,4.01z"/>
			<path fill-rule="evenodd" clip-rule="evenodd" fill="#383838" d="M11.667,21.668c0.255-0.043,0.671,0.139,0.795,0.303
				c0.095,0.125,0.113,0.363,0.159,0.535c0.063,0.234,0.203,0.46,0.217,0.664c0.011,0.16-0.082,0.315-0.086,0.491
				c-0.002,0.087,0.05,0.179,0.043,0.261c-0.012,0.15-0.14,0.262-0.145,0.375c-0.006,0.146,0.143,0.301,0.188,0.434
				c0.03,0.088,0.024,0.211,0.043,0.318c0.021,0.119,0.066,0.227,0.058,0.318c-0.013,0.15-0.201,0.328-0.246,0.533
				c-0.032,0.15,0.001,0.332-0.029,0.463c-0.037,0.16-0.179,0.217-0.202,0.375c-0.023,0.154,0.091,0.41,0.058,0.637
				c-0.041,0.281-0.282,0.463-0.375,0.824c-0.039,0.15-0.039,0.354-0.101,0.549c-0.062,0.189-0.142,0.398-0.26,0.533
				c-0.073,0.084-0.227,0.191-0.303,0.203c-0.069,0.01-0.235-0.021-0.275-0.059c-0.077-0.068-0.051-0.229-0.058-0.418
				c-0.006-0.166-0.059-0.348-0.072-0.535c-0.039-0.535,0.042-1.137,0.029-1.646c-0.009-0.34-0.173-0.588-0.145-0.939
				c0.012-0.148,0.108-0.293,0.173-0.492c0.128-0.391,0.125-0.935,0.116-1.444c-0.009-0.519-0.215-1.034-0.173-1.589
				C11.101,22.008,11.348,21.721,11.667,21.668z"/>
			<path fill-rule="evenodd" clip-rule="evenodd" fill="#383838" d="M23.082,21.711c0.27-0.034-0.001,0.464-0.029,0.534
				c-0.142,0.36-0.254,0.606-0.115,1.012c0.059,0.173,0.181,0.251,0.202,0.404c0.021,0.149-0.042,0.329-0.102,0.434
				c-0.191,0.338-0.568,0.485-0.925,0.78c-0.162,0.135-0.316,0.371-0.506,0.535c-0.304,0.262-0.686,0.471-1.098,0.664
				c-0.184,0.086-0.364,0.17-0.621,0.26c-0.306,0.107-0.924,0.299-0.607-0.217c0.079-0.129,0.132-0.148,0.188-0.217
				c0.129-0.156,0.23-0.33,0.347-0.461c0.208-0.238,0.317-0.271,0.462-0.449c0.112-0.137,0.195-0.309,0.304-0.462
				c0.301-0.427,0.653-0.842,1.012-1.243c0.218-0.244,0.444-0.533,0.693-0.809c0.235-0.26,0.499-0.6,0.766-0.752
				C23.063,21.719,23.063,21.713,23.082,21.711z"/>
			<path fill-rule="evenodd" clip-rule="evenodd" fill="#383838" d="M43.08,28.213c0,1.006,0,2.014,0,3.02
				c-0.098,0.217-0.053,0.701-0.274,0.766c-0.148,0.045-0.54-0.094-0.767-0.129c-0.25-0.039-0.523-0.023-0.78-0.043
				c-0.448-0.037-0.97-0.066-1.372-0.102c-0.322-0.029-0.635,0.043-0.925-0.016c-0.118-0.023-0.22-0.084-0.332-0.1
				c-0.192-0.031-0.389-0.006-0.607-0.029c-0.077-0.01-0.176-0.053-0.26-0.059c-0.121-0.008-0.238,0.041-0.361,0.059
				c-0.285,0.037-0.581,0.016-0.867,0c-0.172-0.01-0.35,0.016-0.462,0c-0.055-0.008-0.095-0.057-0.145-0.059
				c-0.14-0.006-0.28,0.088-0.42,0.088c-0.154,0-0.27-0.09-0.39-0.102c-0.282-0.029-0.565,0.158-0.78,0.115
				c-0.188-0.037-0.346-0.338-0.549-0.26c-0.021-0.047-0.001-0.135-0.102-0.102c0.019-0.17-0.046-0.283-0.028-0.463
				c0.02-0.201,0.168-0.365,0.202-0.549c0.016-0.086-0.002-0.172,0.014-0.26c0.014-0.072,0.02-0.166,0.044-0.23
				c0.09-0.246,0.272-0.313,0.477-0.449c0.219-0.146,0.325-0.246,0.549-0.346c0.161-0.072,0.443-0.125,0.563-0.232
				c0.143-0.127,0.18-0.359,0.376-0.434c0.073-0.025,0.159-0.02,0.231-0.043c0.219-0.066,0.316-0.215,0.491-0.303
				c0.171-0.088,0.335-0.055,0.563-0.088c0.143-0.02,0.273-0.107,0.419-0.143c0.148-0.039,0.295-0.111,0.434-0.131
				c0.138-0.02,0.331,0.059,0.404,0.043c0.043-0.01,0.047-0.057,0.102-0.102c0.045-0.035,0.104-0.051,0.13-0.072
				c0.095-0.072,0.191-0.209,0.304-0.303c0.069-0.057,0.155-0.084,0.202-0.131c0.252-0.248,0.319-0.594,0.477-0.822
				c0.328-0.041,0.643,0.049,0.853,0.1c0.106,0.027,0.218,0.018,0.304,0.045c0.102,0.031,0.201,0.111,0.317,0.158
				c0.332,0.133,0.76,0.211,1.084,0.348c0.083,0.033,0.159,0.094,0.246,0.129c0.077,0.031,0.172,0.033,0.245,0.072
				C43.029,27.236,42.992,27.781,43.08,28.213z"/>
			<path fill-rule="evenodd" clip-rule="evenodd" fill="#383838" d="M28.919,30.496c-0.013,0.025-0.051,0.025-0.072,0.043
				c0.037,0.031,0.034,0.072-0.028,0.072c-0.013,0.018,0.043,0.031,0.043,0.029c0.001-0.021-0.061,0.09-0.058,0.086
				c-0.035,0.035-0.107,0.049-0.13,0.072c-0.011,0.012,0.012,0.033,0.015,0.029c-0.052,0.068-0.153,0.186-0.217,0.289
				c-0.17,0.275-0.309,0.451-0.665,0.578c-0.197,0.07-0.331,0.205-0.534,0.26c-0.055,0.016-0.142,0.049-0.203-0.029
				c0.111-0.24,0.379-0.242,0.563-0.389c0.096-0.076,0.082-0.225,0.159-0.348c0.038-0.061,0.06-0.07,0.087-0.131
				c0.041-0.09,0.118-0.162,0.159-0.244c0.002-0.037-0.023-0.045-0.029-0.072c0.005-0.053,0.05-0.066,0.087-0.088
				c-0.005-0.033-0.05-0.027-0.043-0.072c0.067,0.002,0.088-0.047,0.158-0.043c-0.003-0.025-0.024-0.033-0.058-0.029
				C28.382,30.369,28.682,30.363,28.919,30.496z"/>
			<path fill-rule="evenodd" clip-rule="evenodd" fill="#383838" d="M29.771,30.684c-0.002,0.018-0.026,0.012-0.043,0.016
				c0.032,0.025,0.096,0.096,0.043,0.143c-0.056,0.053,0.03,0.016,0,0.072c-0.047,0.094-0.212,0.186-0.303,0.262
				c-0.236,0.195-0.271,0.422-0.694,0.49c-0.109,0.018-0.204,0.088-0.288,0.131c-0.15,0.074-0.268,0.209-0.492,0.158
				c0.041-0.336,0.466-0.334,0.723-0.52c0.087-0.064,0.105-0.098,0.217-0.145c0.096-0.041,0.159-0.123,0.231-0.16
				c0.005-0.027-0.003-0.045-0.029-0.043c0.133-0.041,0.042-0.178,0.059-0.26c0.021-0.115,0.145-0.117,0.144-0.217
				c0.088,0,0.153-0.029,0.231,0c-0.045-0.063-0.113-0.029-0.202-0.029C29.519,30.502,29.701,30.594,29.771,30.684z"/>
			<path fill-rule="evenodd" clip-rule="evenodd" fill="#383838" d="M31.896,30.654c0.092,0.193-0.004,0.418-0.086,0.594
				c-0.153,0.324-0.405,0.586-0.694,0.822c-0.109,0.092-0.315,0.301-0.491,0.26c-0.087-0.02-0.111-0.18-0.188-0.215
				c-0.139-0.066-0.204,0.027-0.361,0c-0.17-0.141-0.047-0.414,0.115-0.578c0.118-0.119,0.268-0.223,0.405-0.275
				c0.05-0.02,0.069-0.072,0.101-0.086c0.115-0.055,0.263-0.043,0.391-0.088C31.429,30.969,31.584,30.684,31.896,30.654z"/>
			<path fill-rule="evenodd" clip-rule="evenodd" fill="#BCBCBC" d="M18.198,31.971c-0.241,0.275-0.594,0.652-1.069,0.707
				c-0.204,0.023-0.434,0.004-0.478-0.203c-0.197-0.021-0.289-0.34-0.158-0.477c0.06-0.029,0.137,0.033,0.13-0.043
				c0.12,0.053,0.177-0.045,0.274-0.072C17.293,31.773,17.902,31.85,18.198,31.971z"/>
			<path fill="#BCBCBC" d="M33.861,30.25c0.016-0.086-0.002-0.172,0.014-0.26c0.014-0.072,0.02-0.166,0.044-0.23
				c0.09-0.246,0.272-0.313,0.477-0.449c0.219-0.146,0.325-0.246,0.549-0.346c0.161-0.072,0.443-0.125,0.563-0.232
				c0.143-0.127,0.18-0.359,0.376-0.434c0.073-0.025,0.159-0.02,0.231-0.043c0.219-0.066,0.316-0.215,0.491-0.303
				c0.171-0.088,0.335-0.055,0.563-0.088c0.143-0.02,0.273-0.107,0.419-0.143c0.148-0.039,0.295-0.111,0.434-0.131
				c0.138-0.02,0.331,0.059,0.404,0.043c0.043-0.01,0.047-0.057,0.102-0.102c0.045-0.035,0.104-0.051,0.13-0.072
				c0.095-0.072,0.191-0.209,0.304-0.303c0.069-0.057,0.155-0.084,0.202-0.131c0.252-0.248,0.319-0.594,0.477-0.822
				c0.328-0.041,0.643,0.049,0.853,0.1c0.106,0.027,0.218,0.018,0.304,0.045c0.102,0.031,0.201,0.111,0.317,0.158
				c0.332,0.133,0.76,0.211,1.084,0.348c0.083,0.033,0.159,0.094,0.246,0.129c0.077,0.031,0.172,0.033,0.245,0.072
				c0.34,0.18,0.303,0.725,0.391,1.156v-4.754c-0.184-0.145-0.524-0.056-0.853-0.015c-1.44,0.181-2.995,0.347-4.639,0.347
				c-0.974,0-1.833-0.062-2.673-0.188c-0.812-0.121-1.607-0.242-2.413-0.404c-0.748-0.15-1.466-0.434-2.109-0.752
				c-0.65-0.32-1.278-0.656-1.836-1.012c-0.568-0.361-1.134-0.745-1.748-1.098c-0.283-0.163-0.597-0.322-0.925-0.506
				c-0.255-0.143-0.717-0.48-0.939-0.477c-0.158,0.002-0.339,0.227-0.462,0.375c-0.145,0.174-0.249,0.325-0.361,0.462
				c-0.531,0.65-1.092,1.064-1.604,1.705c-0.245,0.307-0.509,0.598-0.752,0.896c-0.467,0.576-1.021,1.221-1.488,1.82
				c-0.118,0.15-0.224,0.316-0.361,0.463c-0.268,0.283-0.492,0.557-0.751,0.895c-0.119,0.156-0.235,0.398-0.347,0.477
				c-0.227,0.16-0.636,0.191-0.867,0.059c-0.001-0.189,0.155-0.338,0.26-0.463c0.07-0.082,0.112-0.129,0.159-0.217
				c0.039-0.07,0.069-0.148,0.116-0.23c0.089-0.16,0.219-0.268,0.347-0.404c0.119-0.129,0.225-0.279,0.332-0.404
				c0.456-0.533,0.886-1.1,1.329-1.648c0.219-0.27,0.459-0.535,0.68-0.823c0.435-0.569,0.878-1.065,1.344-1.633
				c0.227-0.277,0.537-0.494,0.723-0.766c0.106-0.157,0.18-0.319,0.288-0.462c0.318-0.418,0.675-0.782,0.997-1.185
				c0.109-0.136,0.212-0.283,0.332-0.419c0.093-0.104,0.222-0.226,0.304-0.347c0.104-0.153,0.178-0.318,0.289-0.462
				c0.527-0.678,1.165-1.325,1.677-2.038c0.203-0.283,0.479-0.515,0.708-0.78c0.233-0.272,0.441-0.549,0.679-0.809
				c-0.021,0.008-0.035,0.022-0.043,0.043c-0.017-0.003-0.009-0.015,0-0.014c0.182-0.182,0.424-0.266,0.578-0.492
				c0.258-0.378,0.557-0.805,0.852-1.17c0.152-0.188,0.343-0.327,0.506-0.505c0.172-0.188,0.285-0.392,0.419-0.593
				c0.199-0.296,0.461-0.542,0.708-0.809c0.16-0.172,0.286-0.374,0.448-0.563c0.079-0.093,0.161-0.223,0.231-0.274
				c0.093-0.069,0.212-0.056,0.289-0.145c0.022-0.026-0.006-0.024,0.028-0.043c0.108-0.059,0.149-0.173,0.261-0.274
				c0.172-0.159,0.241-0.358,0.434-0.52c0.07-0.06,0.127-0.13,0.188-0.174c0.141-0.101,0.363,0.137,0.593,0.116
				c0.254-0.024,0.573-0.459,0.736-0.737c0.096-0.163,0.149-0.36,0.246-0.491c0.12-0.164,0.228-0.241,0.39-0.347
				c0.155-0.102,0.258-0.242,0.361-0.376c0.104-0.136,0.218-0.253,0.304-0.434c0.073-0.154,0.151-0.308,0.274-0.462
				c0.127-0.16,0.299-0.322,0.289-0.549C36.596,4.365,36.4,4.215,36.23,4.053c-0.165-0.157-0.383-0.38-0.621-0.332
				c-0.19,0.038-0.332,0.199-0.477,0.375c-0.138,0.168-0.273,0.297-0.434,0.405c-0.313,0.21-0.575,0.596-0.751,0.939
				c-0.188,0.364-0.556,0.589-0.795,0.896c-0.12,0.153-0.269,0.301-0.376,0.462c-0.117,0.175-0.209,0.344-0.332,0.506
				c-1.931,2.536-4.025,4.959-6.025,7.456c-0.857,1.07-1.745,2.148-2.645,3.251c-0.134,0.164-0.308,0.381-0.448,0.39
				c-0.177,0.011-0.449-0.195-0.578-0.26c-0.539-0.271-1.071-0.634-1.936-0.549c-1.025,0.1-1.706,0.46-2.457,0.881
				c-0.344,0.193-0.747,0.399-1.17,0.505c-0.446,0.112-0.916,0.175-1.344,0.333c-0.851,0.313-1.533,0.695-2.341,0.997
				c-0.202,0.076-0.373,0.19-0.564,0.274c-0.192,0.085-0.404,0.129-0.607,0.231c-0.371,0.187-0.832,0.345-1.083,0.592
				c-0.309,0.302-0.458,0.679-0.491,1.185c-0.031,0.487,0.124,0.91,0.173,1.459c0.023,0.258,0.057,0.539-0.014,0.766
				c-0.063,0.199-0.182,0.369-0.231,0.607c-0.105,0.5,0.02,0.984,0.058,1.531c0.055,0.777-0.055,1.627,0.058,2.398
				c0.033,0.227,0.125,0.438,0.159,0.666c0.036,0.238-0.101,0.49-0.173,0.723c-0.077,0.246-0.171,0.504-0.202,0.736
				c-0.009,0.07-0.018,0.137,0,0.217c0.068,0.303,0.284,0.65,0.535,0.779c0.173,0.09,0.537,0.121,0.592,0.334
				c0.069,0.264-0.268,0.668-0.39,0.895c-0.179,0.332-0.275,0.588-0.434,0.883c-0.152,0.283-0.362,0.477-0.549,0.766
				c-0.177,0.271-0.349,0.699-0.607,0.766c-0.003,0-0.007,0-0.011,0.002c0.005,0.02,0.007,0.041,0.009,0.063
				c0.041-0.014,0.085-0.021,0.135-0.021c0.108,0,0.194,0.035,0.259,0.088c0.214-0.105,0.372-0.295,0.547-0.508
				c0.232-0.281,0.426-0.672,0.737-0.852c0.107-0.063,0.201-0.039,0.274-0.174c0.022-0.041,0.004-0.113,0.029-0.174
				c0.115-0.277,0.444-0.545,0.65-0.795c0.084-0.102,0.211-0.285,0.303-0.23c0.087,0.053-0.01,0.164-0.043,0.26
				c-0.052,0.152-0.022,0.268-0.086,0.348c-0.204,0.254-0.787,0.525-0.867,0.723c0,0.123,0.136,0.115,0.203,0.145
				c0.151,0.064,0.262,0.178,0.173,0.375c-0.022,0.051-0.113,0.105-0.058,0.174c0.321,0.004,0.534-0.148,0.853-0.145
				c0.419,0.004,0.63,0.268,0.867,0.463c0.25,0.205,0.524,0.373,0.91,0.418c0.654,0.076,1.042-0.268,1.329-0.635
				c0.119-0.152,0.241-0.398,0.463-0.477c0.301-0.107,0.852-0.086,1.229-0.074c0.415,0.016,0.84,0,1.228,0.074
				c0.802,0.152,1.228-0.246,1.547-0.666c0.063-0.084,0.08-0.182,0.173-0.246c0.204-0.141,0.653-0.227,0.982-0.316
				c0.36-0.1,0.738-0.176,1.04-0.26c0.36-0.102,0.694-0.199,1.012-0.289c0.332-0.096,0.72-0.273,1.04-0.275
				c0.3-0.002,0.611,0.127,0.939,0.145c0.663,0.033,1.306,0.146,1.979,0.217c0.336,0.035,0.681,0.021,1.026,0.072
				c0.167,0.025,0.316,0.107,0.477,0.145c0.487,0.109,1.046,0.188,1.647,0.203c0.616,0.014,1.079-0.166,1.59-0.275
				c0.166-0.037,0.335-0.063,0.491-0.115c0.376-0.131,0.667-0.346,1.025-0.434c0.387-0.096,0.814-0.141,1.271-0.188
				c0.891-0.094,1.771-0.162,2.717-0.102c1.349,0.086,2.72,0.199,4.002,0.375c0.423,0.059,0.837,0.154,1.258,0.188v-2.109
				c-0.098,0.217-0.053,0.701-0.274,0.766c-0.148,0.045-0.54-0.094-0.767-0.129c-0.25-0.039-0.523-0.023-0.78-0.043
				c-0.448-0.037-0.97-0.066-1.372-0.102c-0.322-0.029-0.635,0.043-0.925-0.016c-0.118-0.023-0.22-0.084-0.332-0.1
				c-0.192-0.031-0.389-0.006-0.607-0.029c-0.077-0.01-0.176-0.053-0.26-0.059c-0.121-0.008-0.238,0.041-0.361,0.059
				c-0.285,0.037-0.581,0.016-0.867,0c-0.172-0.01-0.35,0.016-0.462,0c-0.055-0.008-0.095-0.057-0.145-0.059
				c-0.14-0.006-0.28,0.088-0.42,0.088c-0.154,0-0.27-0.09-0.39-0.102c-0.282-0.029-0.565,0.158-0.78,0.115
				c-0.188-0.037-0.346-0.338-0.549-0.26c-0.021-0.047-0.001-0.135-0.102-0.102c0.019-0.17-0.046-0.283-0.028-0.463
				C33.679,30.598,33.827,30.434,33.861,30.25z M33.081,6.625c0.145-0.167,0.275-0.369,0.404-0.462
				c0.166-0.121,0.444-0.134,0.549-0.289c0.112-0.167,0.046-0.37,0.116-0.549c0.042-0.107,0.147-0.212,0.245-0.333
				c0.111-0.136,0.191-0.278,0.318-0.361c0.111-0.073,0.257-0.09,0.375-0.159c0.147-0.085,0.288-0.404,0.478-0.462
				c0.125-0.039,0.305,0.078,0.303,0.217c-0.002,0.185-0.275,0.353-0.289,0.462c-0.034,0.292,0.487,0.47,0.304,0.91
				c-0.058,0.138-0.188,0.244-0.289,0.361c-0.105,0.122-0.229,0.292-0.375,0.274c-0.116-0.015-0.151-0.192-0.275-0.26
				c-0.106-0.059-0.434-0.143-0.563-0.115c-0.351,0.075-0.204,0.573-0.028,0.794c0.108,0.138,0.271,0.12,0.303,0.274
				c0.048,0.228-0.172,0.425-0.245,0.521c-0.061,0.078-0.191,0.35-0.391,0.361c-0.166,0.009-0.273-0.158-0.404-0.246
				c-0.142-0.095-0.296-0.187-0.404-0.231c-0.094-0.038-0.284-0.03-0.347-0.116C32.732,7.038,32.99,6.73,33.081,6.625z
				 M19.281,26.117c0.079-0.129,0.132-0.148,0.188-0.217c0.129-0.156,0.23-0.33,0.347-0.461c0.208-0.238,0.317-0.271,0.462-0.449
				c0.112-0.137,0.195-0.309,0.304-0.462c0.301-0.427,0.653-0.842,1.012-1.243c0.218-0.244,0.444-0.533,0.693-0.809
				c0.235-0.26,0.499-0.6,0.766-0.752c0.011-0.006,0.011-0.012,0.029-0.014c0.27-0.034-0.001,0.464-0.029,0.534
				c-0.142,0.36-0.254,0.606-0.115,1.012c0.059,0.173,0.181,0.251,0.202,0.404c0.021,0.149-0.042,0.329-0.102,0.434
				c-0.191,0.338-0.568,0.485-0.925,0.78c-0.162,0.135-0.316,0.371-0.506,0.535c-0.304,0.262-0.686,0.471-1.098,0.664
				c-0.184,0.086-0.364,0.17-0.621,0.26C19.583,26.441,18.965,26.633,19.281,26.117z M11.204,29.426
				c-0.077-0.068-0.051-0.229-0.058-0.418c-0.006-0.166-0.059-0.348-0.072-0.535c-0.039-0.535,0.042-1.137,0.029-1.646
				c-0.009-0.34-0.173-0.588-0.145-0.939c0.012-0.148,0.108-0.293,0.173-0.492c0.128-0.391,0.125-0.935,0.116-1.444
				c-0.009-0.519-0.215-1.034-0.173-1.589c0.027-0.354,0.274-0.641,0.592-0.693c0.255-0.043,0.671,0.139,0.795,0.303
				c0.095,0.125,0.113,0.363,0.159,0.535c0.063,0.234,0.203,0.46,0.217,0.664c0.011,0.16-0.082,0.315-0.086,0.491
				c-0.002,0.087,0.05,0.179,0.043,0.261c-0.012,0.15-0.14,0.262-0.145,0.375c-0.006,0.146,0.143,0.301,0.188,0.434
				c0.03,0.088,0.024,0.211,0.043,0.318c0.021,0.119,0.066,0.227,0.058,0.318c-0.013,0.15-0.201,0.328-0.246,0.533
				c-0.032,0.15,0.001,0.332-0.029,0.463c-0.037,0.16-0.179,0.217-0.202,0.375c-0.023,0.154,0.091,0.41,0.058,0.637
				c-0.041,0.281-0.282,0.463-0.375,0.824c-0.039,0.15-0.039,0.354-0.101,0.549c-0.062,0.189-0.142,0.398-0.26,0.533
				c-0.073,0.084-0.227,0.191-0.303,0.203C11.41,29.494,11.244,29.463,11.204,29.426z M25.856,31.42
				c-0.063-0.1-0.325,0.049-0.42,0.088c-0.382,0.152-0.685,0.234-1.025,0.418c-0.058,0.031-0.131,0.092-0.188,0.102
				c-0.171,0.033-0.545-0.139-0.665-0.201c-0.182-0.096-0.339-0.205-0.448-0.391c0.17,0.029,0.311-0.096,0.491-0.115
				c0.224-0.025,0.505,0.125,0.622-0.072c-0.102-0.07-0.241-0.092-0.361-0.117c-0.038-0.008-0.094,0.008-0.116,0
				c-0.066-0.021-0.133-0.113-0.217-0.145c-0.15-0.053-0.339,0-0.434-0.057c-0.069-0.043-0.059-0.139-0.115-0.174
				c-0.103-0.064-0.245-0.014-0.361-0.029c-0.086-0.012-0.16-0.068-0.245-0.086c-0.071-0.014-0.167-0.002-0.246-0.014
				c-0.192-0.031-0.328-0.059-0.549-0.029c-0.176,0.021-0.354,0.154-0.549,0.23c-0.188,0.074-0.388,0.115-0.593,0.217
				c-0.202,0.102-0.414,0.146-0.593,0.217c-0.101,0.041-0.172,0.119-0.26,0.158c-0.193,0.09-0.45,0.029-0.491,0.305
				c0.437,0.143,0.92-0.369,1.301-0.217c0.24,0.096,0.16,0.662,0.086,0.852c-0.059,0.15-0.215,0.27-0.245,0.477
				c-0.039,0.262,0.078,0.51,0.058,0.811c-0.036,0.543-0.386,1.18-0.997,1.184c-0.285,0.002-0.57-0.139-0.795-0.244
				c-0.241-0.115-0.459-0.252-0.664-0.361c-0.332-0.178-0.76-0.244-1.156-0.391c-0.117-0.043-0.332-0.137-0.434-0.102
				c-0.161,0.057-0.136,0.48-0.173,0.781c-0.04,0.313-0.103,0.561-0.188,0.75c-0.166,0.369-0.504,0.838-1.04,0.854
				c-0.681,0.018-0.938-0.463-1.185-0.926c-0.186-0.348-0.329-0.66-0.563-1.01c-0.071-0.107-0.198-0.217-0.202-0.318
				c-0.006-0.146,0.175-0.371,0.303-0.406c0.155-0.041,0.38,0.061,0.549,0.074c0.561,0.039,0.92-0.072,1.358-0.189
				c0.136-0.035,0.267-0.09,0.391-0.145c0.201-0.088,0.353-0.162,0.477-0.332c-0.028-0.078-0.104-0.023-0.159-0.029
				c-0.111-0.008-0.227-0.051-0.347,0c-0.091,0.041-0.197,0.18-0.289,0.246c-0.122,0.09-0.371,0.244-0.621,0.188
				c-0.183-0.039-0.279-0.299-0.448-0.346c-0.151-0.043-0.334-0.021-0.491-0.059c-0.137-0.031-0.28-0.074-0.404-0.129
				c-0.222-0.1-0.504-0.389-0.679-0.377c-0.188,0.012-0.352,0.246-0.506,0.246c-0.118,0-0.403-0.266-0.419-0.375
				c-0.022-0.15,0.138-0.381,0.173-0.564c0.032-0.166,0.007-0.285,0.072-0.391c0.008-0.021,0.015,0,0.015,0.016
				c-0.054,0.164,0.186-0.313,0.173-0.203c-0.01,0.004-0.012,0.014-0.017,0.021c0.082-0.047,0.026-0.105,0.132-0.137
				c0.016-0.029,0.015-0.031-0.015-0.014c0.195-0.197,0.276-0.43,0.462-0.65c0.125-0.148,0.337-0.287,0.52-0.449
				c0.177-0.154,0.343-0.316,0.521-0.434c0.151-0.098,0.327-0.26,0.52-0.432c0.156-0.141,0.415-0.328,0.477-0.479
				c0.12-0.285-0.004-0.74,0.087-1.068c0.153-0.555,0.487-0.914,0.535-1.619c0.056-0.832-0.365-1.558-0.723-2.051
				c-0.176-0.244-0.398-0.543-0.607-0.781c-0.134-0.152-0.149-0.148-0.347-0.346c-0.087-0.088-0.464-0.448-0.086-0.478
				c0.052-0.004,0.198,0.028,0.202,0.029c0.252,0.081,0.44,0.298,0.722,0.433c0.242,0.117,0.583,0.186,0.853,0.232
				c0.162,0.027,0.306,0.097,0.448,0.101c0.297,0.009,0.515-0.134,0.694-0.159c0.123-0.018,0.26,0.041,0.39,0.029
				c0.168-0.016,0.291-0.121,0.404-0.115c0.104,0.004,0.179,0.08,0.246,0.072c0.112-0.015,0.223-0.141,0.289-0.232
				c0.059-0.08,0.131-0.258,0.26-0.245c0.132,0.014,0.168,0.288,0.217,0.376c0.04,0.069,0.129,0.167,0.188,0.188
				c0.179,0.063,0.486-0.005,0.592-0.058c0.234-0.117,0.424-0.409,0.563-0.65c0.253-0.437,0.57-0.765,0.65-1.401
				c0.02-0.158-0.009-0.37,0.058-0.549c0.076-0.207,0.259-0.059,0.304,0.13c0.062,0.261-0.021,0.712,0.102,0.866
				c0.072,0.094,0.131,0.046,0.245,0.116c-0.172,0.452-0.503,0.827-0.766,1.214c-0.088,0.129-0.154,0.276-0.246,0.404
				c-0.175,0.246-0.417,0.453-0.606,0.708c-0.73,0.983-1.559,1.954-2.326,2.933c-0.104,0.133-0.194,0.254-0.304,0.348
				c-0.117,0.1-0.263,0.141-0.419,0.23c-0.156,0.092-0.313,0.23-0.462,0.391c-0.114,0.123-0.306,0.373-0.289,0.52
				c0.047,0.424,0.813,0.594,1.098,0.998c0.151,0.215,0.234,0.523,0.332,0.809c0.073,0.211,0.305,0.262,0.448,0.434
				c0.123,0.031,0.216,0.043,0.317,0.072c0.091,0.025,0.188,0.105,0.289,0.102c0.138-0.006,0.206-0.166,0.333-0.174
				c0.16-0.01,0.291,0.166,0.419,0.188c0.072,0.014,0.161-0.021,0.245-0.029c0.187-0.014,0.438,0.01,0.593-0.027
				c0.187-0.045,0.325-0.215,0.491-0.246c0.094-0.018,0.246-0.027,0.361-0.029c0.046,0,0.086,0.031,0.13,0.029
				c0.313-0.01,0.546-0.184,0.824-0.072c0.06,0.023,0.1,0.076,0.158,0.086c0.147,0.025,0.349-0.098,0.448-0.172
				c0.195-0.15,0.387-0.52,0.621-0.781c0.08-0.088,0.174-0.127,0.231-0.217c0.057-0.088,0.09-0.215,0.13-0.318
				c0.015-0.037,0.019-0.096,0.029-0.115c0.054-0.098,0.438-0.32,0.621-0.217c0.037,0.021,0.101,0.156,0.145,0.188
				c0.09,0.068,0.267,0.127,0.404,0.16c0.154,0.035,0.328,0.086,0.463,0.102c0.064,0.006,0.122-0.018,0.188,0
				c0.102,0.025,0.298,0.174,0.332,0.23c0.025,0.041,0.015,0.096,0.029,0.145c0.037,0.117,0.121,0.313,0.202,0.361
				c0.127,0.074,0.319,0.02,0.361,0.201c0.184,0.01,0.343-0.035,0.521-0.014c0.065,0.008,0.132,0.055,0.202,0.059
				c0.18,0.006,0.347-0.152,0.506-0.131c0.105,0.016,0.149,0.164,0.26,0.203c0.103,0.035,0.22-0.02,0.304,0.014
				c0.223,0.09,0.138,0.508,0.303,0.65c-0.022,0.02-0.067,0.123,0.015,0.115c-0.077,0.004-0.062,0.102-0.13,0.115
				c-0.002,0.207-0.152,0.279-0.304,0.404c-0.075,0.064-0.139,0.141-0.217,0.174c-0.411,0.176-0.97,0.42-1.459,0.42
				C25.633,31.656,25.94,31.559,25.856,31.42z M27.272,31.955c-0.055,0.016-0.142,0.049-0.203-0.029
				c0.111-0.24,0.379-0.242,0.563-0.389c0.096-0.076,0.082-0.225,0.159-0.348c0.038-0.061,0.06-0.07,0.087-0.131
				c0.041-0.09,0.118-0.162,0.159-0.244c0.002-0.037-0.023-0.045-0.029-0.072c0.005-0.053,0.05-0.066,0.087-0.088
				c-0.005-0.033-0.05-0.027-0.043-0.072c0.067,0.002,0.088-0.047,0.158-0.043c-0.003-0.025-0.024-0.033-0.058-0.029
				c0.229-0.141,0.528-0.146,0.766-0.014c-0.013,0.025-0.051,0.025-0.072,0.043c0.037,0.031,0.034,0.072-0.028,0.072
				c-0.011,0.014,0.026,0.025,0.039,0.029c0.002-0.004,0.004-0.004,0.004,0c0,0-0.002,0-0.004,0
				c-0.014,0.012-0.057,0.088-0.054,0.086c-0.035,0.035-0.107,0.049-0.13,0.072c-0.011,0.012,0.012,0.033,0.015,0.029
				c-0.052,0.068-0.153,0.186-0.217,0.289c-0.17,0.275-0.309,0.451-0.665,0.578C27.609,31.766,27.476,31.9,27.272,31.955z
				 M29.771,30.914c-0.047,0.094-0.212,0.186-0.303,0.262c-0.236,0.195-0.271,0.422-0.694,0.49
				c-0.109,0.018-0.204,0.088-0.288,0.131c-0.15,0.074-0.268,0.209-0.492,0.158c0.041-0.336,0.466-0.334,0.723-0.52
				c0.087-0.064,0.105-0.098,0.217-0.145c0.096-0.041,0.159-0.123,0.231-0.16c0.005-0.027-0.003-0.045-0.029-0.043
				c0.133-0.041,0.042-0.178,0.059-0.26c0.021-0.115,0.145-0.117,0.144-0.217c0.088,0,0.153-0.029,0.231,0
				c-0.045-0.063-0.113-0.029-0.202-0.029c0.151-0.08,0.334,0.012,0.404,0.102c-0.002,0.018-0.026,0.012-0.043,0.016
				c0.032,0.025,0.096,0.096,0.043,0.143C29.716,30.895,29.802,30.857,29.771,30.914z M31.81,31.248
				c-0.153,0.324-0.405,0.586-0.694,0.822c-0.109,0.092-0.315,0.301-0.491,0.26c-0.087-0.02-0.111-0.18-0.188-0.215
				c-0.139-0.066-0.204,0.027-0.361,0c-0.17-0.141-0.047-0.414,0.115-0.578c0.118-0.119,0.268-0.223,0.405-0.275
				c0.05-0.02,0.069-0.072,0.101-0.086c0.115-0.055,0.263-0.043,0.391-0.088c0.342-0.119,0.497-0.404,0.809-0.434
				C31.987,30.848,31.892,31.072,31.81,31.248z"/>
			<path fill-rule="evenodd" clip-rule="evenodd" fill="#BCBCBC" d="M11.71,34.715c0.029,0.035-0.058,0.076-0.072,0.115
				C11.6,34.787,11.701,34.76,11.71,34.715z"/>
			<path fill-rule="evenodd" clip-rule="evenodd" fill="#383838" d="M12.042,31.088c-0.016,0.004-0.01,0.029-0.029,0.029
				c0.103-0.049,0.032-0.111,0.145-0.145c0.016-0.029,0.015-0.031-0.015-0.014c0.195-0.197,0.276-0.43,0.462-0.65
				c0.125-0.148,0.337-0.287,0.52-0.449c0.177-0.154,0.343-0.316,0.521-0.434c0.151-0.098,0.327-0.26,0.52-0.432
				c0.156-0.141,0.415-0.328,0.477-0.479c0.12-0.285-0.004-0.74,0.087-1.068c0.153-0.555,0.487-0.914,0.535-1.619
				c0.056-0.832-0.365-1.558-0.723-2.051c-0.176-0.244-0.398-0.543-0.607-0.781c-0.134-0.152-0.149-0.148-0.347-0.346
				c-0.087-0.088-0.464-0.448-0.086-0.478c0.052-0.004,0.198,0.028,0.202,0.029c0.252,0.081,0.44,0.298,0.722,0.433
				c0.242,0.117,0.583,0.186,0.853,0.232c0.162,0.027,0.306,0.097,0.448,0.101c0.297,0.009,0.515-0.134,0.694-0.159
				c0.123-0.018,0.26,0.041,0.39,0.029c0.168-0.016,0.291-0.121,0.404-0.115c0.104,0.004,0.179,0.08,0.246,0.072
				c0.112-0.015,0.223-0.141,0.289-0.232c0.059-0.08,0.131-0.258,0.26-0.245c0.132,0.014,0.168,0.288,0.217,0.376
				c0.04,0.069,0.129,0.167,0.188,0.188c0.179,0.063,0.486-0.005,0.592-0.058c0.234-0.117,0.424-0.409,0.563-0.65
				c0.253-0.437,0.57-0.765,0.65-1.401c0.02-0.158-0.009-0.37,0.058-0.549c0.076-0.207,0.259-0.059,0.304,0.13
				c0.062,0.261-0.021,0.712,0.102,0.866c0.072,0.094,0.131,0.046,0.245,0.116c-0.172,0.452-0.503,0.827-0.766,1.214
				c-0.088,0.129-0.154,0.276-0.246,0.404c-0.175,0.246-0.417,0.453-0.606,0.708c-0.73,0.983-1.559,1.954-2.326,2.933
				c-0.104,0.133-0.194,0.254-0.304,0.348c-0.117,0.1-0.263,0.141-0.419,0.23c-0.156,0.092-0.313,0.23-0.462,0.391
				c-0.114,0.123-0.306,0.373-0.289,0.52c0.047,0.424,0.813,0.594,1.098,0.998c0.151,0.215,0.234,0.523,0.332,0.809
				c0.073,0.211,0.305,0.262,0.448,0.434c0.123,0.031,0.216,0.043,0.317,0.072c0.091,0.025,0.188,0.105,0.289,0.102
				c0.138-0.006,0.206-0.166,0.333-0.174c0.16-0.01,0.291,0.166,0.419,0.188c0.072,0.014,0.161-0.021,0.245-0.029
				c0.187-0.014,0.438,0.01,0.593-0.027c0.187-0.045,0.325-0.215,0.491-0.246c0.094-0.018,0.246-0.027,0.361-0.029
				c0.046,0,0.086,0.031,0.13,0.029c0.313-0.01,0.546-0.184,0.824-0.072c0.06,0.023,0.1,0.076,0.158,0.086
				c0.147,0.025,0.349-0.098,0.448-0.172c0.195-0.15,0.387-0.52,0.621-0.781c0.08-0.088,0.174-0.127,0.231-0.217
				c0.057-0.088,0.09-0.215,0.13-0.318c0.015-0.037,0.019-0.096,0.029-0.115c0.054-0.098,0.438-0.32,0.621-0.217
				c0.037,0.021,0.101,0.156,0.145,0.188c0.09,0.068,0.267,0.127,0.404,0.16c0.154,0.035,0.328,0.086,0.463,0.102
				c0.064,0.006,0.122-0.018,0.188,0c0.102,0.025,0.298,0.174,0.332,0.23c0.025,0.041,0.015,0.096,0.029,0.145
				c0.037,0.117,0.121,0.313,0.202,0.361c0.127,0.074,0.319,0.02,0.361,0.201c0.184,0.01,0.343-0.035,0.521-0.014
				c0.065,0.008,0.132,0.055,0.202,0.059c0.18,0.006,0.347-0.152,0.506-0.131c0.105,0.016,0.149,0.164,0.26,0.203
				c0.103,0.035,0.22-0.02,0.304,0.014c0.223,0.09,0.138,0.508,0.303,0.65c-0.022,0.02-0.067,0.123,0.015,0.115
				c-0.077,0.004-0.062,0.102-0.13,0.115c-0.002,0.207-0.152,0.279-0.304,0.404c-0.075,0.064-0.139,0.141-0.217,0.174
				c-0.411,0.176-0.97,0.42-1.459,0.42c-0.122-0.141,0.186-0.238,0.102-0.377c-0.063-0.1-0.325,0.049-0.42,0.088
				c-0.382,0.152-0.685,0.234-1.025,0.418c-0.058,0.031-0.131,0.092-0.188,0.102c-0.171,0.033-0.545-0.139-0.665-0.201
				c-0.182-0.096-0.339-0.205-0.448-0.391c0.17,0.029,0.311-0.096,0.491-0.115c0.224-0.025,0.505,0.125,0.622-0.072
				c-0.102-0.07-0.241-0.092-0.361-0.117c-0.038-0.008-0.094,0.008-0.116,0c-0.066-0.021-0.133-0.113-0.217-0.145
				c-0.15-0.053-0.339,0-0.434-0.057c-0.069-0.043-0.059-0.139-0.115-0.174c-0.103-0.064-0.245-0.014-0.361-0.029
				c-0.086-0.012-0.16-0.068-0.245-0.086c-0.071-0.014-0.167-0.002-0.246-0.014c-0.192-0.031-0.328-0.059-0.549-0.029
				c-0.176,0.021-0.354,0.154-0.549,0.23c-0.188,0.074-0.388,0.115-0.593,0.217c-0.202,0.102-0.414,0.146-0.593,0.217
				c-0.101,0.041-0.172,0.119-0.26,0.158c-0.193,0.09-0.45,0.029-0.491,0.305c0.437,0.143,0.92-0.369,1.301-0.217
				c0.24,0.096,0.16,0.662,0.086,0.852c-0.059,0.15-0.215,0.27-0.245,0.477c-0.039,0.262,0.078,0.51,0.058,0.811
				c-0.036,0.543-0.386,1.18-0.997,1.184c-0.285,0.002-0.57-0.139-0.795-0.244c-0.241-0.115-0.459-0.252-0.664-0.361
				c-0.332-0.178-0.76-0.244-1.156-0.391c-0.117-0.043-0.332-0.137-0.434-0.102c-0.161,0.057-0.136,0.48-0.173,0.781
				c-0.04,0.313-0.103,0.561-0.188,0.75c-0.166,0.369-0.504,0.838-1.04,0.854c-0.681,0.018-0.938-0.463-1.185-0.926
				c-0.186-0.348-0.329-0.66-0.563-1.01c-0.071-0.107-0.198-0.217-0.202-0.318c-0.006-0.146,0.175-0.371,0.303-0.406
				c0.155-0.041,0.38,0.061,0.549,0.074c0.561,0.039,0.92-0.072,1.358-0.189c0.136-0.035,0.267-0.09,0.391-0.145
				c0.201-0.088,0.353-0.162,0.477-0.332c-0.028-0.078-0.104-0.023-0.159-0.029c-0.111-0.008-0.227-0.051-0.347,0
				c-0.091,0.041-0.197,0.18-0.289,0.246c-0.122,0.09-0.371,0.244-0.621,0.188c-0.183-0.039-0.279-0.299-0.448-0.346
				c-0.151-0.043-0.334-0.021-0.491-0.059c-0.137-0.031-0.28-0.074-0.404-0.129c-0.222-0.1-0.504-0.389-0.679-0.377
				c-0.188,0.012-0.352,0.246-0.506,0.246c-0.118,0-0.403-0.266-0.419-0.375c-0.022-0.15,0.138-0.381,0.173-0.564
				c0.032-0.166,0.007-0.285,0.072-0.391c0.008-0.021,0.015,0,0.015,0.016C11.815,31.455,12.055,30.979,12.042,31.088z
				 M16.897,31.883c-0.098,0.027-0.154,0.125-0.274,0.072c0.007,0.076-0.07,0.014-0.13,0.043c-0.131,0.137-0.039,0.455,0.158,0.477
				c0.044,0.207,0.273,0.227,0.478,0.203c0.476-0.055,0.828-0.432,1.069-0.707C17.902,31.85,17.293,31.773,16.897,31.883z"/>
			
				<line fill="none" stroke="#BCBCBC" stroke-width="0.25" stroke-linecap="round" stroke-miterlimit="10" x1="10.171" y1="36.117" x2="-8.165" y2="36.117"/>
		</g>
	</g>
</g>
<g id="Calque_5" display="none">
	<rect x="1.187" y="1" display="inline" fill-rule="evenodd" clip-rule="evenodd" fill="#383838" width="38" height="38"/>
</g>
<g id="Calque_4" display="none">
	<path display="inline" fill="#BCBCBC" d="M33.861,30.25c0.016-0.086-0.002-0.172,0.014-0.26c0.014-0.072,0.02-0.166,0.044-0.23
		c0.09-0.246,0.272-0.313,0.477-0.449c0.219-0.146,0.325-0.246,0.549-0.346c0.161-0.072,0.443-0.125,0.563-0.232
		c0.143-0.127,0.18-0.359,0.376-0.434c0.073-0.025,0.159-0.02,0.231-0.043c0.219-0.066,0.316-0.215,0.491-0.303
		c0.171-0.088,0.335-0.055,0.563-0.088c0.143-0.02,0.273-0.107,0.419-0.143c0.148-0.039,0.295-0.111,0.434-0.131
		c0.138-0.02,0.331,0.059,0.404,0.043c0.043-0.01,0.047-0.057,0.102-0.102c0.045-0.035,0.104-0.051,0.13-0.072
		c0.095-0.072,0.191-0.209,0.304-0.303c0.069-0.057,0.155-0.084,0.202-0.131c0.252-0.248,0.319-0.594,0.477-0.822
		c0.328-0.041,0.643,0.049,0.853,0.1c0.106,0.027,0.218,0.018,0.304,0.045c0.102,0.031,0.201,0.111,0.317,0.158
		c0.332,0.133,0.76,0.211,1.084,0.348c0.083,0.033,0.159,0.094,0.246,0.129c0.077,0.031,0.172,0.033,0.245,0.072
		c0.34,0.18,0.303,0.725,0.391,1.156v-4.754c-0.184-0.145-0.524-0.056-0.853-0.015c-1.44,0.181-2.995,0.347-4.639,0.347
		c-0.974,0-1.833-0.062-2.673-0.188c-0.812-0.121-1.607-0.242-2.413-0.404c-0.748-0.15-1.466-0.434-2.109-0.752
		c-0.65-0.32-1.278-0.656-1.836-1.012c-0.568-0.361-1.134-0.745-1.748-1.098c-0.283-0.163-0.597-0.322-0.925-0.506
		c-0.255-0.143-0.717-0.48-0.939-0.477c-0.158,0.002-0.339,0.227-0.462,0.375c-0.145,0.174-0.249,0.325-0.361,0.462
		c-0.531,0.65-1.092,1.064-1.604,1.705c-0.245,0.307-0.509,0.598-0.752,0.896c-0.467,0.576-1.021,1.221-1.488,1.82
		c-0.118,0.15-0.224,0.316-0.361,0.463c-0.268,0.283-0.492,0.557-0.751,0.895c-0.119,0.156-0.235,0.398-0.347,0.477
		c-0.227,0.16-0.636,0.191-0.867,0.059c-0.001-0.189,0.155-0.338,0.26-0.463c0.07-0.082,0.112-0.129,0.159-0.217
		c0.039-0.07,0.069-0.148,0.116-0.23c0.089-0.16,0.219-0.268,0.347-0.404c0.119-0.129,0.225-0.279,0.332-0.404
		c0.456-0.533,0.886-1.1,1.329-1.648c0.219-0.27,0.459-0.535,0.68-0.823c0.435-0.569,0.878-1.065,1.344-1.633
		c0.227-0.277,0.537-0.494,0.723-0.766c0.106-0.157,0.18-0.319,0.288-0.462c0.318-0.418,0.675-0.782,0.997-1.185
		c0.109-0.136,0.212-0.283,0.332-0.419c0.093-0.104,0.222-0.226,0.304-0.347c0.104-0.153,0.178-0.318,0.289-0.462
		c0.527-0.678,1.165-1.325,1.677-2.038c0.203-0.283,0.479-0.515,0.708-0.78c0.233-0.272,0.441-0.549,0.679-0.809
		c-0.021,0.008-0.035,0.022-0.043,0.043c-0.017-0.003-0.009-0.015,0-0.014c0.182-0.182,0.424-0.266,0.578-0.492
		c0.258-0.378,0.557-0.805,0.852-1.17c0.152-0.188,0.343-0.327,0.506-0.505c0.172-0.188,0.285-0.392,0.419-0.593
		c0.199-0.296,0.461-0.542,0.708-0.809c0.16-0.172,0.286-0.374,0.448-0.563c0.079-0.093,0.161-0.223,0.231-0.274
		c0.093-0.069,0.212-0.056,0.289-0.145c0.022-0.026-0.006-0.024,0.028-0.043c0.108-0.059,0.149-0.173,0.261-0.274
		c0.172-0.159,0.241-0.358,0.434-0.52c0.07-0.06,0.127-0.13,0.188-0.174c0.141-0.101,0.363,0.137,0.593,0.116
		c0.254-0.024,0.573-0.459,0.736-0.737c0.096-0.163,0.149-0.36,0.246-0.491c0.12-0.164,0.228-0.241,0.39-0.347
		c0.155-0.102,0.258-0.242,0.361-0.376c0.104-0.136,0.218-0.253,0.304-0.434c0.073-0.154,0.151-0.308,0.274-0.462
		c0.127-0.16,0.299-0.322,0.289-0.549C36.596,4.365,36.4,4.215,36.23,4.053c-0.165-0.157-0.383-0.38-0.621-0.332
		c-0.19,0.038-0.332,0.199-0.477,0.375c-0.138,0.168-0.273,0.297-0.434,0.405c-0.313,0.21-0.575,0.596-0.751,0.939
		c-0.188,0.364-0.556,0.589-0.795,0.896c-0.12,0.153-0.269,0.301-0.376,0.462c-0.117,0.175-0.209,0.344-0.332,0.506
		c-1.931,2.536-4.025,4.959-6.025,7.456c-0.857,1.07-1.745,2.148-2.645,3.251c-0.134,0.164-0.308,0.381-0.448,0.39
		c-0.177,0.011-0.449-0.195-0.578-0.26c-0.539-0.271-1.071-0.634-1.936-0.549c-1.025,0.1-1.706,0.46-2.457,0.881
		c-0.344,0.193-0.747,0.399-1.17,0.505c-0.446,0.112-0.916,0.175-1.344,0.333c-0.851,0.313-1.533,0.695-2.341,0.997
		c-0.202,0.076-0.373,0.19-0.564,0.274c-0.192,0.085-0.404,0.129-0.607,0.231c-0.371,0.187-0.832,0.345-1.083,0.592
		c-0.309,0.302-0.458,0.679-0.491,1.185c-0.031,0.487,0.124,0.91,0.173,1.459c0.023,0.258,0.057,0.539-0.014,0.766
		c-0.063,0.199-0.182,0.369-0.231,0.607c-0.105,0.5,0.02,0.984,0.058,1.531c0.055,0.777-0.055,1.627,0.058,2.398
		c0.033,0.227,0.125,0.438,0.159,0.666c0.036,0.238-0.101,0.49-0.173,0.723c-0.077,0.246-0.171,0.504-0.202,0.736
		c-0.009,0.07-0.018,0.137,0,0.217c0.068,0.303,0.284,0.65,0.535,0.779c0.173,0.09,0.537,0.121,0.592,0.334
		c0.069,0.264-0.268,0.668-0.39,0.895c-0.179,0.332-0.275,0.588-0.434,0.883c-0.152,0.283-0.362,0.477-0.549,0.766
		c-0.177,0.271-0.349,0.699-0.607,0.766c-0.003,0-0.007,0-0.011,0.002c0.005,0.02,0.007,0.041,0.009,0.063
		c0.041-0.014,0.085-0.021,0.135-0.021c0.108,0,0.194,0.035,0.259,0.088c0.214-0.105,0.372-0.295,0.547-0.508
		c0.232-0.281,0.426-0.672,0.737-0.852c0.107-0.063,0.201-0.039,0.274-0.174c0.022-0.041,0.004-0.113,0.029-0.174
		c0.115-0.277,0.444-0.545,0.65-0.795c0.084-0.102,0.211-0.285,0.303-0.23c0.087,0.053-0.01,0.164-0.043,0.26
		c-0.052,0.152-0.022,0.268-0.086,0.348c-0.204,0.254-0.787,0.525-0.867,0.723c0,0.123,0.136,0.115,0.203,0.145
		c0.151,0.064,0.262,0.178,0.173,0.375c-0.022,0.051-0.113,0.105-0.058,0.174c0.321,0.004,0.534-0.148,0.853-0.145
		c0.419,0.004,0.63,0.268,0.867,0.463c0.25,0.205,0.524,0.373,0.91,0.418c0.654,0.076,1.042-0.268,1.329-0.635
		c0.119-0.152,0.241-0.398,0.463-0.477c0.301-0.107,0.852-0.086,1.229-0.074c0.415,0.016,0.84,0,1.228,0.074
		c0.802,0.152,1.228-0.246,1.547-0.666c0.063-0.084,0.08-0.182,0.173-0.246c0.204-0.141,0.653-0.227,0.982-0.316
		c0.36-0.1,0.738-0.176,1.04-0.26c0.36-0.102,0.694-0.199,1.012-0.289c0.332-0.096,0.72-0.273,1.04-0.275
		c0.3-0.002,0.611,0.127,0.939,0.145c0.663,0.033,1.306,0.146,1.979,0.217c0.336,0.035,0.681,0.021,1.026,0.072
		c0.167,0.025,0.316,0.107,0.477,0.145c0.487,0.109,1.046,0.188,1.647,0.203c0.616,0.014,1.079-0.166,1.59-0.275
		c0.166-0.037,0.335-0.063,0.491-0.115c0.376-0.131,0.667-0.346,1.025-0.434c0.387-0.096,0.814-0.141,1.271-0.188
		c0.891-0.094,1.771-0.162,2.717-0.102c1.349,0.086,2.72,0.199,4.002,0.375c0.423,0.059,0.837,0.154,1.258,0.188v-2.109
		c-0.098,0.217-0.053,0.701-0.274,0.766c-0.148,0.045-0.54-0.094-0.767-0.129c-0.25-0.039-0.523-0.023-0.78-0.043
		c-0.448-0.037-0.97-0.066-1.372-0.102c-0.322-0.029-0.635,0.043-0.925-0.016c-0.118-0.023-0.22-0.084-0.332-0.1
		c-0.192-0.031-0.389-0.006-0.607-0.029c-0.077-0.01-0.176-0.053-0.26-0.059c-0.121-0.008-0.238,0.041-0.361,0.059
		c-0.285,0.037-0.581,0.016-0.867,0c-0.172-0.01-0.35,0.016-0.462,0c-0.055-0.008-0.095-0.057-0.145-0.059
		c-0.14-0.006-0.28,0.088-0.42,0.088c-0.154,0-0.27-0.09-0.39-0.102c-0.282-0.029-0.565,0.158-0.78,0.115
		c-0.188-0.037-0.346-0.338-0.549-0.26c-0.021-0.047-0.001-0.135-0.102-0.102c0.019-0.17-0.046-0.283-0.028-0.463
		C33.679,30.598,33.827,30.434,33.861,30.25z"/>
</g>
</svg>
