<?xml version="1.0" encoding="utf-8"?>
<!-- Generator: Adobe Illustrator 15.1.0, SVG Export Plug-In . SVG Version: 6.00 Build 0)  -->
<!DOCTYPE svg PUBLIC "-//W3C//DTD SVG 1.1//EN" "http://www.w3.org/Graphics/SVG/1.1/DTD/svg11.dtd">
<svg version="1.1"
	 id="svg2" sodipodi:docname="twitter_bootstrap_logo.svg" inkscape:version="0.48.1 r9760" xmlns:dc="http://purl.org/dc/elements/1.1/" xmlns:cc="http://creativecommons.org/ns#" xmlns:rdf="http://www.w3.org/1999/02/22-rdf-syntax-ns#" xmlns:svg="http://www.w3.org/2000/svg" xmlns:sodipodi="http://sodipodi.sourceforge.net/DTD/sodipodi-0.dtd" xmlns:inkscape="http://www.inkscape.org/namespaces/inkscape"
	 xmlns="http://www.w3.org/2000/svg" xmlns:xlink="http://www.w3.org/1999/xlink" x="0px" y="0px" width="40px" height="40px"
	 viewBox="0 0 40 40" enable-background="new 0 0 40 40" xml:space="preserve">
<sodipodi:namedview  id="namedview2996" inkscape:current-layer="svg2" inkscape:window-y="0" inkscape:window-x="0" fit-margin-bottom="0" fit-margin-right="0" inkscape:window-height="623" inkscape:window-width="864" inkscape:pageshadow="2" inkscape:pageopacity="0" inkscape:cy="407.66551" inkscape:cx="116.80866" inkscape:zoom="0.24896372" fit-margin-left="0" fit-margin-top="0" showgrid="false" guidetolerance="10" gridtolerance="10" objecttolerance="10" borderopacity="1" bordercolor="#666666" pagecolor="#ffffff" inkscape:window-maximized="0">
	</sodipodi:namedview>
<g>
	<g>
		<g>
			<path fill-rule="evenodd" clip-rule="evenodd" fill="#3AA6C7" d="M38.428,21.731c-0.545-0.599,0.436-1.419,0.417-1.771
				c-0.015-0.368-0.298-0.466-0.313-0.834c-0.006-0.133-0.134-0.144-0.104-0.313c0.134,0.006,0.145,0.134,0.313,0.104
				c-0.604-1.288-2.563-0.664-3.646-0.313c0.074-0.411,0.165-0.807,0.313-1.146c0.148,0.024,0.176,0.171,0.313,0.208
				c0.001-0.558,0.041-1.153-0.209-1.459c-0.006-0.133-0.133-0.144-0.104-0.313c-0.002-0.207-0.285-0.132-0.209-0.416
				c0.18,0.092,0.617,0.133,0.313-0.104c-0.15-0.37-0.422-0.62-0.729-0.833c-0.345-0.201-1.521-0.601-1.876-0.104
				c0.035,0,0.069,0,0.104,0c0.299,0.44,0.472,1.475,0.104,1.979c-0.023-0.081-0.088-0.121-0.209-0.104
				c-0.247,0.83-0.762,1.392-1.25,1.979c-0.282,0.203-0.474,0.498-0.833,0.625c-0.063-0.006-0.124-0.016-0.104-0.104
				c-1.234-0.119-2.353-0.355-3.438-0.625c0.246-0.726,0.276-1.668,0.938-1.979c0.141-0.032,0.198-0.148,0.416-0.104
				c0.478-0.6,0.918-1.236,1.354-1.875c-0.075-0.377-0.528-0.375-0.938-0.417c0.24-1.045,0.676-1.895,1.146-2.709
				c2.343,0.017,3.176-1.477,4.271-2.709c0.082-0.022,0.121-0.087,0.104-0.208c-0.679,0.259-1.393,0.482-2.292,0.521
				c-0.045-0.232-0.513-0.042-0.729-0.104c0.197-1.164,1.269-2.339,1.979-3.334c0.234-0.411-0.951-0.296-1.146-0.625
				c-0.305-0.491,0.242-0.903,0.313-1.354c0.081-0.022,0.121-0.087,0.104-0.208c-0.111-0.236-0.655-0.04-0.938-0.104
				c-0.144-0.237-0.725-0.039-1.041-0.104c-0.197-0.046-0.628,0.143-0.521-0.208c-0.445-0.554-1.377,0.129-1.875,0.208
				c-0.286-0.395,0.364-0.743,0.417-1.146c0.086,0.051,0.202-0.211,0.208-0.208c-0.858-0.362-2.68,0.635-3.542,0.625
				c-0.391,0.08,0.064-0.805-0.417-0.417c-0.563,0.165-1.015,0.443-1.563,0.625c-0.048-0.604,0.37-0.741,0.417-1.25
				c-0.156,0.018-0.385-0.037-0.417,0.104c-1.455,0.246-2.643,0.761-3.75,1.354c-0.459-0.056,0-0.773,0.104-0.938
				c0.005-0.11-0.049-0.265-0.104-0.104c-0.284-0.076-0.21,0.207-0.417,0.208c-0.512,0.217-1.142,1.393-1.459,1.354
				C17.29,3.01,17.381,1.72,16.654,1c-0.147,0.512-0.32,0.999-0.416,1.563c-0.479,0.897,0.41,2.2-0.104,2.813
				c-0.213,0.343-0.381,0.73-0.625,1.042c-0.49-0.205-0.5-0.89-1.042-1.042c-0.595,0.933-0.808,2.248-1.042,3.542
				C12.898,8.611,12.676,8,12.383,7.459c-0.288,1.205-0.582,2.404-0.625,3.854c-0.064,0.283,0.133,0.827-0.104,0.938
				c-0.119-0.402-0.449-0.593-0.521-1.042c0.001-0.104-0.084-0.124-0.104-0.209c-0.03,0.036-0.047,0.083-0.07,0.125
				c0,0,0.001,0.001,0.001,0.001c0,0-0.001,0-0.001-0.001l0,0c-0.012-0.006-0.02-0.018-0.034-0.021c0,0.027,0,0.055,0,0.082
				c-0.295,0.65,0.015,1.905-0.104,2.73c-0.155,0.019-0.384-0.037-0.417,0.104c-1.571,0.27-2.836,0.845-3.646,1.875
				c0.144,0.005,0.229-0.049,0.313-0.104c0.314,0.032,0.81-0.116,0.833,0.208c-0.081,0.023-0.205,0.003-0.208,0.104
				c-2.849,1.388-4.19,4.283-5.104,7.604c0.282,0.174,0.481-0.626,0.938-0.625c-0.356,1.137-0.785,2.202-1.25,3.229
				c0.267,0.113,0.496-0.316,0.625,0c-0.118,1.619-1.198,2.274-1.251,3.959c-0.172,0.112-0.172,0.93,0,1.042
				c-0.079,1.398,0.541,2.099,1.354,2.604c0.063-0.216-0.129-0.685,0.104-0.729c0.354,0.723,0.883,1.271,1.563,1.667
				c0.294-0.4-0.154-1.544,0.313-1.771c0.287,0.847,0.887,1.058,1.459,1.771c0.948-0.857-0.234-3.846,0.938-4.479
				c-0.339,0.847,0.239,1.711,0,2.083c0.48,0.18,0.686,0.635,1.25,0.729c0.293-1.131,0.807-2.041,1.042-3.229
				c0.172-0.112,0.172-0.93,0-1.042c-0.154-1.322-0.571-3.549,0.416-4.271c0.128,1.192,0.394,2.246,0.938,3.021
				c0.152-0.403,0.165-0.946,0.521-1.146c0.236,1.431,0.573,2.76,1.25,3.75c-0.779,1.288-3.533,1.417-3.75,3.125
				c-0.104,0.815,0.334,1.704,0.416,2.709c0.4,0.018,0.226-0.539,0.625-0.521c0.167,1.014,0.359,2.002,0.938,2.604
				c0.05-0.123,0.11-0.236,0.208-0.313c1.51,1.824,6.372,0.851,9.271,0.938c-0.632-1.452-1.696-2.471-3.125-3.126
				c0.717-0.29,1.245-0.769,1.979-1.041c1.1,0.566,2.138,1.196,3.125,1.875c0.029-0.183-0.293-0.52,0-0.625
				c1.366,0.96,2.338,2.315,4.063,2.917c0.869,0.173,2.464,0.173,3.334,0c0.449-0.175,0.644-0.606,0.833-1.042
				c0.314-0.38,0.474-0.916,0.729-1.354c0.006-0.133,0.133-0.145,0.104-0.313c0.366-0.502,0.587-1.15,0.938-1.667
				c0.001-0.207,0.284-0.132,0.208-0.416c-0.553,0.072-0.749,0.5-1.25,0.625c0.851-2.345,2.616-3.773,3.229-6.355
				c-0.001-0.104,0.084-0.124,0.104-0.208c-0.604,0.265-0.996,0.74-1.563,1.042c-0.474-0.049,0.122-0.575,0.104-0.834
				c-0.354-0.17-1.813,0.696-2.604,1.146c-0.895,0.508-1.701,1.136-2.292,1.667c-0.207,0.001-0.133,0.284-0.417,0.208
				c-0.164-0.253-0.372-0.461-0.625-0.625c-0.619-0.479-1.147-1.051-1.955-1.342c-0.005-0.009-0.013-0.016-0.018-0.024
				c0,0,0,0,0,0.001c-0.04-0.064-0.085-0.128-0.11-0.197c0.026,0.068,0.071,0.131,0.11,0.196c0.617-1.147,1.326-2.203,1.66-3.635
				c0.97-0.133,2.038-0.634,3.021-0.416c0.086-0.398-0.502-0.123-0.417-0.521c0.104,0,0.209,0,0.313,0c0.382,0,0.764,0,1.146,0
				c0.527,0.078-0.224-0.397,0.104-0.417c0.828,0.354,1.73,0.632,2.709,0.834c0.841,0.14,1.453,0.058,2.396,0.208
				c0.069,0,0.139,0,0.208,0c0.601-0.129,1.048-0.411,1.146-1.042c0-0.069,0-0.139,0-0.208c-0.409-0.764,0.372-0.633,0.521-0.833
				c0.251-0.337,0.005-0.958,0.313-0.834C38.583,22.132,38.345,22.093,38.428,21.731z M25.884,29.859
				c0.021,0.019,0.038,0.037,0.06,0.056C25.922,29.896,25.904,29.878,25.884,29.859z M26.258,30.161
				c0.01,0.008,0.019,0.016,0.029,0.023C26.276,30.177,26.268,30.169,26.258,30.161z M15.196,23.92
				c-0.018-0.121,0.022-0.186,0.104-0.209c0.068,0,0.136,0,0.204,0c-0.086-0.026-0.16-0.058-0.204-0.104
				c-0.202-0.211,0.157-0.698,0-0.834c1.454-2.262,2.982-4.449,4.48-6.667c0.171-0.245,1.421-0.406,1.563,0c0,0.034,0,0.069,0,0.104
				c0,2.153,0,4.307,0,6.46c0.145,0.237,0.725,0.038,1.042,0.104c0.173,0,0.347,0,0.521,0c0,0.278,0,0.556,0,0.834
				c-0.522,0.067-1.317-0.137-1.667,0.104c0.556,0,1.111,0,1.667,0c0.22,0.432-1.29,0.026-1.563,0.313
				c-0.006-0.063-0.016-0.123-0.104-0.104c-0.062,0.876,0.128,2.003-0.104,2.708c-0.242,0-0.485,0-0.729,0c0-0.902,0-1.806,0-2.708
				c-0.089-0.02-0.099,0.04-0.104,0.104C18.813,23.727,16.091,24.265,15.196,23.92z M27.737,31.305
				c0.102,0.104,0.193,0.211,0.272,0.324C27.931,31.516,27.839,31.408,27.737,31.305z M27.409,31.006
				c0.039,0.031,0.072,0.066,0.109,0.099C27.481,31.072,27.448,31.037,27.409,31.006z M25.646,29.633
				c-0.019-0.021-0.031-0.043-0.049-0.063C25.614,29.59,25.627,29.612,25.646,29.633z"/>
			<path fill-rule="evenodd" clip-rule="evenodd" fill="#3AA6C7" d="M17.173,23.711c1.042,0,2.085,0,3.128,0
				C20.131,23.323,18.53,23.578,17.173,23.711z"/>
			<path fill-rule="evenodd" clip-rule="evenodd" fill="#3AA6C7" d="M17.173,23.711c-0.556,0-1.112,0-1.669,0
				C15.843,23.813,16.472,23.779,17.173,23.711z"/>
			<path fill-rule="evenodd" clip-rule="evenodd" fill="#3AA6C7" d="M20.405,19.961c0-1.028,0-1.995,0-2.813
				c0-0.069,0-0.139,0-0.208c-0.808,0.81-1.414,1.932-2.084,2.917c-0.674,0.991-1.543,1.889-1.847,2.937
				c-0.024,0.014-0.039,0.037-0.028,0.085c0.793-0.338,3.463,0.49,3.959-0.104C20.713,22.404,20.405,20.696,20.405,19.961z
				 M20.301,22.773c-1.25,0-2.5,0-3.75,0c1.284-1.771,2.367-3.744,3.75-5.417C20.301,19.162,20.301,20.968,20.301,22.773z"/>
		</g>
		<g>
			<path fill-rule="evenodd" clip-rule="evenodd" fill="#3AA6C7" d="M20.286,22.793c0-1.805,0-3.611,0-5.417
				c-1.383,1.673-2.466,3.645-3.75,5.417C17.786,22.793,19.036,22.793,20.286,22.793z"/>
			<path fill-rule="evenodd" clip-rule="evenodd" fill="#35BCDB" d="M22.891,23.73c-0.557,0-1.111,0-1.668,0
				c0.35-0.24,1.145-0.035,1.668-0.104c0-0.277,0-0.555,0-0.834c-0.174,0-0.348,0-0.521,0c-0.316-0.064-0.896,0.135-1.041-0.104
				c0-2.152,0-4.306,0-6.459c0-0.034,0-0.069,0-0.104c-0.143-0.406-1.392-0.245-1.563,0c-1.498,2.218-3.026,4.405-4.48,6.667
				c0.157,0.137-0.202,0.623,0,0.834c0.044,0.047,0.118,0.078,0.204,0.104c-0.068,0-0.136,0-0.204,0
				c-0.081,0.023-0.121,0.088-0.104,0.209c0.895,0.346,3.617-0.193,5.104,0.104c0.006-0.063,0.016-0.123,0.104-0.104
				c0,0.902,0,1.807,0,2.709c0.243,0,0.487,0,0.729,0c0.232-0.705,0.043-1.832,0.104-2.709c0.09-0.02,0.1,0.041,0.105,0.104
				C21.6,23.758,23.109,24.162,22.891,23.73z M17.158,23.73c1.356-0.133,2.958-0.387,3.128,0C19.243,23.73,18.2,23.73,17.158,23.73z
				 M20.39,22.793c-0.496,0.596-3.166-0.232-3.959,0.105c0.279-1.086,1.183-2.004,1.875-3.022c0.67-0.985,1.276-2.107,2.084-2.917
				c0,0.069,0,0.139,0,0.208c0,0.818,0,1.785,0,2.813C20.39,20.717,20.697,22.424,20.39,22.793z"/>
		</g>
	</g>
</g>
</svg>
