<?xml version="1.0" encoding="utf-8"?>
<!-- Generator: Adobe Illustrator 15.1.0, SVG Export Plug-In . SVG Version: 6.00 Build 0)  -->
<!DOCTYPE svg PUBLIC "-//W3C//DTD SVG 1.1//EN" "http://www.w3.org/Graphics/SVG/1.1/DTD/svg11.dtd">
<svg version="1.1"
	 id="svg2" sodipodi:docname="twitter_bootstrap_logo.svg" inkscape:version="0.48.1 r9760" xmlns:dc="http://purl.org/dc/elements/1.1/" xmlns:cc="http://creativecommons.org/ns#" xmlns:rdf="http://www.w3.org/1999/02/22-rdf-syntax-ns#" xmlns:svg="http://www.w3.org/2000/svg" xmlns:sodipodi="http://sodipodi.sourceforge.net/DTD/sodipodi-0.dtd" xmlns:inkscape="http://www.inkscape.org/namespaces/inkscape"
	 xmlns="http://www.w3.org/2000/svg" xmlns:xlink="http://www.w3.org/1999/xlink" x="0px" y="0px" width="40px" height="40px"
	 viewBox="0 0 40 40" enable-background="new 0 0 40 40" xml:space="preserve">
<g>
	
		<sodipodi:namedview  id="namedview2996" inkscape:current-layer="svg2" inkscape:window-y="0" inkscape:window-x="0" fit-margin-bottom="0" fit-margin-right="0" inkscape:window-height="623" inkscape:window-width="864" inkscape:pageshadow="2" inkscape:pageopacity="0" inkscape:cy="407.66551" inkscape:cx="116.80866" inkscape:zoom="0.24896372" fit-margin-left="0" fit-margin-top="0" showgrid="false" guidetolerance="10" gridtolerance="10" objecttolerance="10" borderopacity="1" bordercolor="#666666" pagecolor="#ffffff" inkscape:window-maximized="0">
		</sodipodi:namedview>
	<g>
		<path fill="#8A6B48" d="M9.771,2.925c0.315-0.192,1.429-0.192,1.744,0C10.935,2.925,10.353,2.925,9.771,2.925z"/>
		<path fill="#8A6B48" d="M28.952,2.925c0.313-0.192,1.429-0.192,1.744,0C30.114,2.925,29.532,2.925,28.952,2.925z"/>
		<path fill="#E38923" d="M10.817,4.553c-0.392-0.074-1.08,0.149-1.28-0.116C9.931,4.51,10.62,4.287,10.817,4.553z"/>
		<path fill="#8A6B48" d="M19.651,6.529c0.164-0.192,1.117-0.192,1.279,0C20.505,6.529,20.079,6.529,19.651,6.529z"/>
		<path fill="#8A6B48" d="M30.929,13.387c0.063-0.168-0.133-0.601,0.115-0.581c0,0.465,0,0.929,0,1.395
			C30.784,14.151,30.998,13.627,30.929,13.387z"/>
		<path fill="#CAC9C4" d="M32.323,14.201c-0.193-0.2-0.193-1.194,0-1.395C32.323,13.271,32.323,13.735,32.323,14.201z"/>
		<path fill="#CAC9C4" d="M12.676,15.829c0.213,1.168,1.72,2.067,3.024,1.395c0.153,0.001,0.105,0.204,0.232,0.232
			c0.035,0.23-0.157,0.232-0.232,0.349c-0.444,0.098-0.934,0.152-1.512,0.117c-0.472-0.226-0.931-0.466-1.28-0.813
			C12.923,16.591,12.585,16.425,12.676,15.829z"/>
		<path fill="#8A6B48" d="M16.513,18.735c0.192,0.127,0.192,1.037,0,1.163C16.513,19.51,16.513,19.123,16.513,18.735z"/>
		<path fill="#8A6B48" d="M11.864,22.454c0.193,0.431,0.193,1.663,0,2.093C11.864,23.85,11.864,23.152,11.864,22.454z"/>
		<path fill="#8A6B48" d="M10.817,24.198c0-0.544,0-1.085,0-1.627c0.194,0.391,0.194,1.585,0,1.976
			C10.817,24.432,10.817,24.314,10.817,24.198z"/>
		<path fill="#8A6B48" d="M29.65,22.688c0,0.193,0,0.388,0,0.581c0,0.271,0,0.543,0,0.813C29.456,23.883,29.456,22.887,29.65,22.688
			z"/>
		<path fill="#CAC9C4" d="M29.65,23.269c0.268,0.506,0.039,1.509,0.114,2.209c-0.266-0.237-0.041-0.966-0.114-1.396
			C29.65,23.812,29.65,23.539,29.65,23.269z"/>
		<path fill="#CAC9C4" d="M10.817,24.198c0,0.116,0,0.233,0,0.349c-0.074,0.392,0.151,1.078-0.116,1.278
			C10.776,25.319,10.549,24.512,10.817,24.198z"/>
		<path fill="#8A6B48" d="M28.604,25.127c0.266,0.2,0.042,0.89,0.115,1.28C28.453,26.21,28.678,25.52,28.604,25.127z"/>
		<path fill="#8A6B48" d="M32.207,27.104c0.192,0.432,0.192,1.663,0,2.092C32.207,28.499,32.207,27.803,32.207,27.104z"/>
		<path fill="#CAC9C4" d="M33.253,27.569c0.192,0.2,0.192,1.194,0,1.395C33.253,28.499,33.253,28.035,33.253,27.569z"/>
		<path fill="#E38923" d="M25.232,29.546c-3.06,0.193-6.934,0.193-9.997,0C18.568,29.546,21.9,29.546,25.232,29.546z"/>
		<path fill="#8A6B48" d="M22.326,31.755c0.62-0.191,2.051-0.191,2.674,0C24.107,31.755,23.217,31.755,22.326,31.755z"/>
		<path fill="#8A6B48" d="M16.166,5.946c0.5-0.04,0.213-0.871,0.465-1.161C16.632,5.331,16.733,5.973,16.166,5.946z"/>
		<path fill="#8A6B48" d="M29.765,26.872c0.253-0.021,0.055,0.412,0.118,0.581c0.305-0.12,0.394-0.459,0.695-0.581
			c-0.119,0.306-0.456,0.392-0.58,0.697C29.701,27.558,29.768,27.18,29.765,26.872z"/>
		<path fill="#CAC9C4" d="M24.883,5.366c0.416-0.513,0.881-0.979,1.396-1.394C25.862,4.485,25.396,4.95,24.883,5.366z"/>
		<path fill="#8A6B48" d="M23.836,3.042c0.036-0.158,0.291-0.096,0.466-0.118c-0.152,0.545-0.34,1.058-0.581,1.512
			c0.033-0.585,0.321-0.917,0.466-1.394C24.069,3.042,23.953,3.042,23.836,3.042z"/>
		<path fill="#8A6B48" d="M30.812,2.925c0.573,0.008,0.968,0.195,1.278,0.465C31.671,3.227,31.203,3.115,30.812,2.925z"/>
		<path fill="#FCA919" d="M9.538,4.437C9.33,4.451,9.293,4.294,9.073,4.319c2.202-1.313,4.862,0.43,5.58,2.092
			c-0.417-0.029-0.426,0.349-0.813,0.349c-0.596-1.149-1.602-1.886-3.023-2.209C10.62,4.287,9.931,4.51,9.538,4.437z"/>
		<path fill="#E38923" d="M29.65,4.553c0.262-0.318,1.237,0.077,1.512-0.233C31.027,4.767,30.143,4.465,29.65,4.553z"/>
		<path fill="#463015" d="M33.95,16.643c-0.326-0.922-1.823-1.113-1.627-2.44c-0.193-0.2-0.193-1.194,0-1.395
			c0.104-0.872,0.853-1.383,0.93-2.326c0.131-1.596-0.844-2.394-2.557-2.557c-0.645-2.311,1.218-2.912,2.906-3.255
			c-0.287-0.647-0.82-1.042-1.513-1.28c-0.419-0.164-0.887-0.275-1.281-0.465c-0.036,0-0.078,0-0.115,0c-0.581,0-1.166,0-1.746,0
			c-1.228,0.013-1.808,0.671-2.674,1.047c-0.416,0.513-0.882,0.978-1.394,1.394c-0.226,0.559-0.589,0.619-1.164,0.349
			c0-0.427,0-0.854,0-1.28c0.035-0.585,0.323-0.917,0.466-1.394c-0.117,0-0.233,0-0.349,0c-0.892,0.078-1.223,0.714-1.975,0.93
			c-0.027-0.359-0.12-0.657-0.235-0.93c-0.188-0.127-0.188-1.037,0-1.163c0.039-0.157,0.169-0.222,0.12-0.464
			c-1.005,0.393-1.971,0.819-2.325,1.859c-0.152,0.36-0.171,1.313-0.697,0.93c0-0.038,0-0.078,0-0.117
			c-0.14-0.518-0.299-1.02-0.232-1.743c-1.021,0.412-1.601,1.267-1.86,2.441c0.002,0.546,0.103,1.187-0.465,1.162
			c-1.288-1.268-2.332-2.781-4.65-3.022c-0.581,0-1.163,0-1.744,0C8.43,3.063,7.127,3.835,6.98,4.784
			c1.858,0.04,3.545,1.228,2.674,3.256c-2.848-0.264-2.792,3.097-1.512,4.532c0.193,0.353,0.193,1.507,0,1.859
			c0,0.195,0,0.389,0,0.582c-0.843,0.943-1.695,1.148-1.744,2.44c-0.105,2.755,4.104,2.816,4.417,5.116
			c0.194,0.391,0.194,1.586,0,1.977c-0.074,0.391,0.151,1.078-0.116,1.277c0.026,0.608-0.001,1.162-0.116,1.629
			c-0.875-0.715-1.509-1.67-1.744-3.021c-2.971,2.137-1.575,8.692,1.976,9.066c0.028,0.477,0.395,0.613,0.465,1.047
			c0.4,0.337,0.693,0.779,1.046,1.162c0.901,0.572,1.691,1.255,3.139,1.28c1.018,0.726,2.118,1.371,3.836,1.395
			c0.62,0,1.239,0,1.858,0c1.592,0.251,2.752-0.938,3.952-1.395c1.7-0.647,2.919-0.887,3.952-2.21
			c0.309-0.396,0.414-0.926,0.813-1.394c1.908-0.687,3.134-2.058,3.371-4.417c0-0.464,0-0.928,0-1.393
			c-0.203-1.386-0.626-2.552-1.629-3.139c-0.054,1.107-0.64,1.686-1.047,2.441c-0.119,0.305-0.458,0.391-0.58,0.697
			c-0.296-0.013-0.231-0.39-0.234-0.697c0-0.466,0-0.93,0-1.395c-0.266-0.237-0.04-0.967-0.115-1.396
			c-0.193-0.199-0.193-1.194,0-1.394C30.268,19.732,35.202,20.186,33.95,16.643z M31.395,4.319c-0.078,0-0.157,0-0.232,0
			c-0.135,0.447-1.02,0.145-1.512,0.233c-1.468,0.277-2.32,1.168-3.023,2.209c-0.29-0.097-0.456-0.319-0.813-0.349
			C26.575,4.792,29.17,2.985,31.395,4.319z M29.765,5.366c-0.112,0.548-0.207,2.116-0.58,2.79C28.261,8.44,28.13,7.9,27.673,7.458
			C27.999,6.391,28.68,5.674,29.765,5.366z M9.538,4.437C9.33,4.451,9.293,4.294,9.073,4.319c2.202-1.313,4.862,0.43,5.58,2.092
			c-0.417-0.029-0.426,0.349-0.813,0.349c-0.596-1.149-1.602-1.886-3.023-2.209C10.426,4.479,9.737,4.702,9.538,4.437z
			 M12.793,7.343c-0.292,0.631-0.619,1.051-1.512,0.813c-0.428-0.732-0.248-2.075-0.696-2.79
			C11.794,5.554,12.398,6.343,12.793,7.343z M10.003,31.987c-0.437-0.341-0.824-0.727-1.163-1.164
			c-0.231-0.583-0.453-1.176-0.582-1.859c-0.193-0.313-0.193-1.429,0-1.745c0.107-0.343,0.273-1.037,0.466-0.347
			c0.854,1.78,2.59,2.68,5.116,2.79c-0.13,0.723-0.827,0.878-0.931,1.629c-0.194,0.417-0.085,1.042,0.117,1.394
			C11.908,33.026,10.888,32.267,10.003,31.987z M12.213,33.962c0.213-0.279,0.685,0.16,1.163,0c0.394,0.419,0.467,1.161,0.93,1.512
			C13.489,35.554,12.776,34.525,12.213,33.962z M14.42,33.614c-0.241-0.573-0.727-1.518-0.349-2.325
			c1.188-1.139,3.786-0.699,6.044-0.699c2.306,0,4.813-0.281,6.278,0.465c0.481,1.016-0.131,2.248-0.583,3.022
			C24.323,38.656,15.662,38.396,14.42,33.614z M26.394,35.59c-0.161-0.474,0.527-1.099,0.698-1.628
			c0.466,0.196,1.156-0.365,1.164,0.118C27.646,34.594,27.126,35.199,26.394,35.59z M31.742,26.989
			c-0.015-0.209,0.143-0.245,0.115-0.466c0.422-0.111,0.12,0.501,0.35,0.581c0.192,0.432,0.192,1.663,0,2.092
			c-0.097,0.135-0.153,0.313-0.117,0.583c-0.1,0.639-0.364,1.107-0.813,1.395c-0.841,0.94-2.007,1.557-3.72,1.627
			c0.083-0.568,0.182-1.082,0-1.627c-0.112-0.236-0.237-0.461-0.35-0.698c-0.286-0.177-0.531-0.397-0.581-0.813
			c0.193,0,0.389,0,0.581,0C29.31,29.36,30.932,28.579,31.742,26.989z M28.604,22.105c-0.154,0.875,0.104,1.509,0,3.021
			c0.266,0.2,0.042,0.89,0.115,1.28c-0.063,0.704,0.105,1.464,0,1.858c-0.355-0.082-0.424,0.12-0.697,0.117
			c-0.17,0.182-0.594,0.102-0.93,0.116c-0.161,0.265-0.809,0.043-1.161,0.117c-0.471-1.353-1.031-2.612-1.512-3.95
			c-0.179-0.443-0.468-0.771-0.583-1.279c-0.118,2.171,0.893,4.222,1.396,6.16c-3.062,0.193-6.938,0.193-9.999,0
			c0.644-1.953,1.282-3.908,1.627-6.16c-0.487,0.131-0.384,0.855-0.698,1.162c-0.59,1.309-1.075,2.72-1.627,4.069
			c-0.388,0-0.775,0-1.162,0c0-0.039,0-0.078,0-0.117c-0.335-0.015-0.761,0.065-0.93-0.117c-1.453-0.275-0.235-2.5-0.582-3.836
			c0-0.698,0-1.395,0-2.093c0.309-3.056-6.27-3.152-3.372-6.161c-0.036,0.272-0.183,0.437-0.115,0.813
			c0.799-0.983,1.203-2.361,1.162-4.185c-0.082-0.653-0.157-1.314-0.347-1.859c-0.257,0.015-0.05,0.493-0.117,0.698
			c-0.514-0.497-1.041-1.54-0.581-2.326c3.71-1.164,6.411,1.524,8.719,2.906c0.024-0.489-0.441-0.489-0.465-0.929
			c-0.972-1.044-1.969-2.063-3.371-2.675c0.522-0.68,1.362-1.039,2.208-1.395c1.165-0.462,2.462-0.793,4.068-0.813
			c0.164-0.192,1.116-0.192,1.279,0c1.722,0.023,3.041,0.446,4.303,0.929c0.681,0.326,1.328,0.689,1.858,1.163
			c-1.242,0.734-2.249,1.702-3.258,2.673c-0.13,0.49-0.549,0.692-0.695,1.164c1.423-0.863,5.17-4.04,8.136-3.372
			c1.214,0.273,1.041,1.772,0.233,2.674c-0.257-0.016-0.049-0.493-0.117-0.698c-0.335,0.363-0.346,1.047-0.348,1.744
			c0,0.466,0,0.93,0,1.395c0.054,1.225,0.52,2.037,0.929,2.905c0.19,0.019,0.19-0.716,0-0.697c0.529-0.129,0.853,0.668,0.814,1.28
			C32.669,19.609,29.047,19.584,28.604,22.105z"/>
		<path fill="#8A6B48" d="M15.119,15.015c0.552,0.454,1.056,0.959,1.512,1.51C16.078,16.072,15.573,15.567,15.119,15.015z"/>
		<path fill="#8A6B48" d="M23.721,16.643c0.416-0.513,0.882-0.978,1.393-1.394C24.699,15.762,24.235,16.226,23.721,16.643z"/>
		<path fill="#463015" d="M18.722,14.201c0.033-0.206-0.547-0.359-0.232-0.465c0.908,0.649,2.662,0.529,3.604,0
			c-0.078,0.271-0.387,0.311-0.466,0.583C20.9,15.125,19.368,14.962,18.722,14.201z"/>
		<path fill="#463015" d="M25.116,15.247c1.123-0.97,2.5-1.685,4.767-1.512c0.515,0.171-0.133,0.354-0.466,0.349
			c0.393,0.537,0.456,1.555,0.115,2.209c-0.421,0.034-0.151-0.621-0.346-0.813c-0.176,0.251-0.195,0.654-0.234,1.045
			c-0.466,1.645-2.953,2.893-4.766,1.745c-0.446,0.478-0.113,1.899-0.117,2.209c-0.037,0-0.077,0-0.116,0
			c-0.271-0.699-0.857-1.079-0.813-2.094c-0.604-0.285-1.311-0.469-1.512-1.161c0.135-0.579,1.645-0.026,2.093-0.582
			C24.235,16.226,24.699,15.762,25.116,15.247z M27.79,16.061c0-0.349,0-0.697,0-1.046c-1.137,0.375-1.956,1.067-2.674,1.859
			c-0.038,0-0.077,0-0.116,0c-0.135,0.291-0.464,0.39-0.466,0.814C26.009,18.299,27.859,17.719,27.79,16.061z"/>
		<path fill="#8A6B48" d="M12.91,17.107c0.349,0.348,0.808,0.588,1.28,0.813C13.542,17.872,13.196,17.518,12.91,17.107z"/>
		<path fill="#8A6B48" d="M14.771,16.178c0.324,0.393,1.77,1.19,0.929,1.627c0.075-0.118,0.267-0.12,0.232-0.349
			c-0.127-0.027-0.079-0.231-0.232-0.232C15.46,16.805,15.01,16.597,14.771,16.178z"/>
		<path fill="#FFFFFF" d="M12.676,15.829c0.002-0.309-0.043-0.664,0.117-0.813c0.854,0.193,1.253,0.839,1.978,1.163
			c0.239,0.419,0.689,0.627,0.929,1.046C14.396,17.897,12.889,16.997,12.676,15.829z"/>
		<path fill="#CAC9C4" d="M27.79,16.061c0.069,1.658-1.781,2.238-3.256,1.629c0.002-0.426,0.331-0.523,0.466-0.814
			c0.039,0,0.078,0,0.116,0c-0.065,0.167-0.183,0.284-0.35,0.349c1.111,0.583,2.803,0.006,2.906-1.164
			C27.712,16.061,27.751,16.061,27.79,16.061z"/>
		<path fill="#FFFFFF" d="M25.116,16.875c0.718-0.793,1.537-1.485,2.674-1.859c0,0.349,0,0.697,0,1.046c-0.039,0-0.078,0-0.117,0
			c-0.104,1.169-1.799,1.747-2.906,1.164C24.934,17.159,25.051,17.042,25.116,16.875z"/>
		<path fill="#8A6B48" d="M8.842,30.823c0.437,0.34,0.823,0.726,1.163,1.164C9.568,31.649,9.181,31.261,8.842,30.823z"/>
		<path fill="#FFFFFF" d="M8.725,26.872c0.854,1.78,2.59,2.68,5.116,2.79c-0.13,0.723-0.827,0.878-0.931,1.629
			c-0.154,0-0.105,0.204-0.233,0.233c-2.753-0.23-3.932-2.035-4.185-4.767C8.61,26.755,8.631,26.85,8.725,26.872z"/>
		<path fill="#CAC9C4" d="M27.208,30.476c-0.286-0.177-0.531-0.397-0.581-0.813c0.193,0,0.389,0,0.581,0
			c-0.021,0.172-0.28,0.107-0.464,0.117C26.82,30.088,27.075,30.221,27.208,30.476z"/>
		<path fill="#8A6B48" d="M31.277,31.174c0.369-0.367,0.544-0.929,0.813-1.395C31.99,30.415,31.726,30.885,31.277,31.174z"/>
		<path fill="#CAC9C4" d="M8.259,27.219c0.107-0.343,0.273-1.037,0.466-0.347c-0.094-0.022-0.115-0.117-0.233-0.117
			c0.252,2.732,1.432,4.536,4.185,4.767c0.127-0.026,0.079-0.232,0.233-0.232c-0.194,0.419-0.085,1.041,0.117,1.393
			c-1.119,0.342-2.139-0.418-3.022-0.697c-0.34-0.438-0.726-0.823-1.163-1.163c-0.231-0.583-0.453-1.177-0.581-1.86
			C8.259,28.383,8.259,27.803,8.259,27.219z"/>
		<path fill="#CAC9C4" d="M27.558,31.174c0.112,0.002,0.088,0.141,0.115,0.234c2.33,0.305,4.217-1.822,4.303-4.533
			c-0.101-0.222-0.07,0.126-0.233,0.119c-0.015-0.211,0.143-0.248,0.115-0.466c0.422-0.112,0.12,0.499,0.35,0.581
			c0,0.698,0,1.393,0,2.092c-0.097,0.133-0.153,0.312-0.117,0.581c-0.269,0.468-0.444,1.026-0.813,1.394
			c-0.841,0.943-2.007,1.558-3.72,1.63C27.641,32.229,27.739,31.715,27.558,31.174z"/>
		<path fill="#FFFFFF" d="M27.558,31.174c-0.112-0.236-0.237-0.461-0.35-0.698c-0.13-0.255-0.388-0.388-0.464-0.698
			c0.184-0.01,0.444,0.057,0.464-0.115c2.102-0.302,3.724-1.083,4.534-2.676c0.163,0.01,0.133-0.338,0.233-0.116
			c-0.084,2.711-1.973,4.838-4.303,4.531C27.646,31.314,27.67,31.176,27.558,31.174z"/>
		<path fill="#8A6B48" d="M15.002,31.987c0.44-0.607,2.351-0.36,3.139-0.232C17.107,31.844,15.676,31.539,15.002,31.987z"/>
		<path fill="#463015" d="M18.142,31.755c0.371-0.099,0.359,0.184,0.581,0.234c0.096,0.329-0.165,0.3-0.117,0.581
			c-0.365,1.654-2.833,1.979-3.487,0.35c0.026-0.377-0.206-0.494-0.117-0.931C15.676,31.539,17.107,31.844,18.142,31.755z"/>
		<path fill="#463015" d="M21.978,32.801c-0.07-0.278-0.168-0.529-0.116-0.929c0.103-0.09,0.262-0.125,0.465-0.117
			c0.891,0,1.781,0,2.674,0c0.242-0.05,0.309,0.079,0.465,0.117c0.12,0.331,0.12,0.485,0,0.813
			C24.992,34.313,22.513,34.472,21.978,32.801z"/>
		<path fill="#FCA919" d="M29.65,4.553c-1.468,0.277-2.32,1.168-3.023,2.209c-0.29-0.097-0.456-0.319-0.813-0.349
			c0.762-1.62,3.358-3.427,5.581-2.092c-0.078,0-0.157,0-0.232,0C30.888,4.629,29.912,4.234,29.65,4.553z"/>
		<path fill="#FCA919" d="M14.42,33.614c-0.241-0.573-0.727-1.518-0.349-2.325c1.188-1.139,3.786-0.699,6.044-0.699
			c2.306,0,4.813-0.281,6.278,0.465c0.481,1.016-0.131,2.248-0.583,3.022C23.437,36.571,16.274,36.596,14.42,33.614z M18.142,31.755
			c-0.789-0.128-2.699-0.375-3.139,0.234c-0.089,0.441,0.142,0.554,0.117,0.931c0.226,2.268,3.622,2.184,3.487-0.35
			c-0.047-0.281,0.212-0.252,0.117-0.581C18.5,31.937,18.513,31.654,18.142,31.755z M22.326,31.755
			c-0.203-0.008-0.362,0.026-0.465,0.117c-0.052,0.399,0.046,0.653,0.116,0.929c-0.217,2.303,3.438,2.308,3.487-0.116
			c0.12-0.33,0.12-0.484,0-0.813c-0.156-0.035-0.223-0.167-0.465-0.117C24.377,31.561,22.946,31.561,22.326,31.755z"/>
		<g>
			<path fill="#FCA919" d="M31.976,16.409c0.189-0.019,0.189,0.716,0,0.697c-0.412-0.868-1.18-4.319-0.932-4.299
				c0.003-0.696,0.016-1.381,0.351-1.744c0.066,0.205-0.143,0.682,0.115,0.698c0.81-0.902,0.982-2.401-0.232-2.674
				c-2.968-0.668-6.712,2.509-8.138,3.372c0.148-0.472,0.568-0.674,0.7-1.164c0.001-0.002,0.002-0.003,0.002-0.006
				c1.006-0.968,2.013-1.936,3.251-2.668c-0.531-0.474-1.177-0.836-1.858-1.163c0.047,0.208,0.066,0.404,0.064,0.592
				c0.002-0.187-0.018-0.383-0.064-0.591c-1.262-0.483-2.581-0.906-4.302-0.929c-0.427,0-0.853,0-1.28,0
				c-1.605,0.02-2.903,0.351-4.068,0.813c-0.846,0.356-1.687,0.715-2.208,1.395c1.402,0.612,2.399,1.631,3.371,2.675
				c0.024,0.44,0.489,0.44,0.465,0.929c-2.308-1.382-5.008-4.07-8.719-2.906c-0.46,0.786,0.067,1.829,0.581,2.326
				c0.066-0.205-0.141-0.683,0.117-0.698c0.19,0.544-0.015,5.061-0.814,6.042c-0.068-0.376,0.079-0.54,0.115-0.813
				c-2.898,3.008,3.681,3.105,3.372,6.161c0.194,0.431,0.194,1.663,0,2.093c0.347,1.336-0.872,3.562,0.582,3.836
				c0.169,0.182,0.595,0.102,0.93,0.116c0,0.04,0,0.077,0.001,0.117c0.386,0,0.774,0,1.162,0c0.552-1.348,1.037-2.76,1.626-4.068
				c0.314-0.308,0.211-1.03,0.698-1.163c-0.345,2.252-0.983,4.208-1.627,6.161c3.333,0,6.666,0,9.998,0
				c-0.502-1.938-1.514-3.989-1.394-6.161c0.113,0.508,0.401,0.838,0.582,1.28c0.964,1.207,1.672,2.667,2.673,3.836
				c0.334-0.015,0.761,0.063,0.93-0.117v-0.001c0.272,0.001,0.341-0.199,0.696-0.117c0.105-0.395-0.064-1.154,0-1.858
				c-0.267-0.2-0.042-0.888-0.115-1.28c0.104-1.513-0.154-2.146,0-3.021c0.443-2.521,4.064-2.498,4.185-4.417
				C32.825,17.077,32.505,16.28,31.976,16.409z M13.492,13.387c2.226,0.305,3.081,2.533,4.417,3.488c0,0,0,0-0.001,0
				C16.572,15.921,15.718,13.692,13.492,13.387c-0.577-0.078-1.525-0.073-2.239,0.093C11.967,13.313,12.917,13.308,13.492,13.387z
				 M12.676,22.223c0.339-0.164,0.319-0.689,0.466-1.047C12.996,21.533,13.017,22.059,12.676,22.223z M12.033,18.139
				c0.664,1.173,2.051,1.727,3.552,1.643c0,0,0,0.001,0,0.002C14.083,19.868,12.695,19.314,12.033,18.139z M17.327,18.387
				c0.067,0.88-0.441,1.187-0.581,1.861c-0.45,0.44-0.862,0.92-1.627,1.046c0-0.001,0-0.003,0.001-0.003
				c0.763-0.126,1.174-0.605,1.625-1.046c-0.166,0.03-0.195,0.192-0.349,0.233c-0.096-0.328,0.164-0.301,0.116-0.582
				c0-0.387,0-0.774,0.001-1.163c-0.038-0.157-0.166-0.223-0.117-0.464c-1.763,1.1-4.215,0.026-4.763-1.508V16.76
				c-0.001-0.503-0.271-0.738-0.233-1.278c-0.332,0.094-0.013,0.839-0.466,0.813c-0.227-0.684-0.364-1.584,0.117-2.092
				c-0.144-0.167-0.4-0.221-0.697-0.233l0,0c1.759-0.716,3.73,0.272,4.763,1.046c0.552,0.454,1.056,0.959,1.512,1.51
				c0.482,0.219,1.278,0.734,1.976,0.349c0.117,0,0.233,0,0.35,0.002C18.842,17.81,18.063,18.078,17.327,18.387z M18.722,14.201
				c-0.378-0.126-0.439-0.567-0.698-0.814c0.876,0.19,3.366,0.49,4.417-0.115c-1.051,0.606-3.542,0.306-4.417,0.115
				C18.283,13.633,18.344,14.073,18.722,14.201c0.033-0.206-0.547-0.359-0.232-0.465c0.908,0.649,2.662,0.529,3.604,0
				c-0.077,0.271-0.386,0.311-0.466,0.583C20.9,15.125,19.368,14.962,18.722,14.201z M21.582,16.96
				c-0.013-0.471,0.609,0.006,0.859-0.085c0.284-0.104,0.516-0.275,0.722-0.488c-0.207,0.213-0.438,0.387-0.723,0.49
				C22.194,16.967,21.572,16.492,21.582,16.96z M24.187,18.27c-0.447,0.478-0.113,1.899-0.117,2.208c-0.037,0-0.077,0-0.116,0
				c-0.27-0.698-0.857-1.079-0.813-2.093c-0.604-0.285-1.309-0.469-1.512-1.16c0.135-0.577,1.643-0.026,2.093-0.581
				c0.416-0.514,0.882-0.979,1.394-1.394c1.125-0.97,2.501-1.685,4.769-1.511c-1.505-0.638-3.578-0.469-4.769,0.349
				c-0.473,0.326-0.806,0.741-1.1,1.155c0.294-0.415,0.629-0.831,1.102-1.156c1.189-0.818,3.262-0.986,4.767-0.349
				c0.515,0.17-0.134,0.354-0.466,0.347c0.391,0.537,0.455,1.555,0.115,2.209c-0.421,0.035-0.153-0.621-0.347-0.813
				c-0.175,0.251-0.199,0.654-0.233,1.045C28.486,18.169,25.999,19.417,24.187,18.27z M27.672,22.221L27.672,22.221
				c-0.148-0.168-0.148-0.488-0.229-0.725C27.525,21.732,27.525,22.049,27.672,22.221z"/>
			<path fill="#FCA919" d="M27.092,28.499c-1.001-1.168-1.71-2.629-2.673-3.834c0.48,1.339,1.041,2.599,1.512,3.951
				C26.283,28.542,26.931,28.764,27.092,28.499z"/>
			<path fill="#FCA919" d="M12.793,7.342c-0.395-1-1-1.79-2.208-1.976c0.448,0.715,0.269,2.058,0.696,2.789
				C12.175,8.393,12.501,7.973,12.793,7.342z"/>
			<path fill="#FCA919" d="M29.185,8.156c0.373-0.674,0.468-2.242,0.58-2.79c-1.085,0.309-1.766,1.025-2.092,2.092
				C28.13,7.9,28.261,8.44,29.185,8.156z"/>
			<path fill="#FCA919" d="M14.42,33.614c1.241,4.782,9.903,5.042,11.393,0.466C23.437,36.571,16.274,36.596,14.42,33.614z"/>
			<path fill="#FCA919" d="M18.606,32.568c-0.365,1.656-2.833,1.979-3.487,0.348C15.344,35.185,18.739,35.102,18.606,32.568z"/>
			<path fill="#FCA919" d="M25.465,32.685c-0.473,1.628-2.952,1.787-3.487,0.116C21.761,35.102,25.416,35.106,25.465,32.685z"/>
			<path fill="#FCA919" d="M27.092,33.962c-0.171,0.529-0.859,1.154-0.698,1.628c0.732-0.391,1.252-0.996,1.862-1.51
				C28.248,33.597,27.558,34.158,27.092,33.962z"/>
			<path fill="#FCA919" d="M12.213,33.962c0.563,0.563,1.276,1.592,2.092,1.512c-0.463-0.351-0.536-1.093-0.93-1.512
				C12.897,34.122,12.426,33.683,12.213,33.962z"/>
		</g>
		<path fill="#463015" d="M10.353,13.969c1.76-0.717,3.733,0.271,4.766,1.046c0.455,0.552,0.958,1.057,1.512,1.51
			c0.482,0.219,1.279,0.734,1.976,0.349c0.117,0,0.233,0,0.349,0c-0.113,0.933-0.892,1.201-1.629,1.51
			c0.067,0.88-0.442,1.187-0.581,1.86c-0.166,0.028-0.195,0.191-0.349,0.233c-0.096-0.328,0.164-0.301,0.116-0.582
			c0.192-0.126,0.192-1.036,0-1.163c-0.036-0.157-0.165-0.223-0.116-0.464c-1.764,1.101-4.22,0.024-4.766-1.512
			c0-0.502-0.27-0.738-0.233-1.278c-0.332,0.094-0.012,0.84-0.465,0.813c-0.229-0.684-0.365-1.584,0.116-2.092
			C10.907,14.036,10.651,13.981,10.353,13.969z M14.771,16.178c-0.724-0.324-1.124-0.968-1.978-1.163
			c-0.159,0.149-0.115,0.504-0.117,0.813c-0.092,0.596,0.245,0.761,0.233,1.279c0.288,0.41,0.632,0.765,1.28,0.813
			c0.578,0.035,1.066-0.019,1.512-0.117C16.539,17.368,15.095,16.571,14.771,16.178z"/>
	</g>
</g>
</svg>
