<?xml version="1.0" encoding="utf-8"?>
<!-- Generator: Adobe Illustrator 15.1.0, SVG Export Plug-In . SVG Version: 6.00 Build 0)  -->
<!DOCTYPE svg PUBLIC "-//W3C//DTD SVG 1.1//EN" "http://www.w3.org/Graphics/SVG/1.1/DTD/svg11.dtd">
<svg version="1.1"
	 id="svg2" sodipodi:docname="twitter_bootstrap_logo.svg" inkscape:version="0.48.1 r9760" xmlns:dc="http://purl.org/dc/elements/1.1/" xmlns:cc="http://creativecommons.org/ns#" xmlns:rdf="http://www.w3.org/1999/02/22-rdf-syntax-ns#" xmlns:svg="http://www.w3.org/2000/svg" xmlns:sodipodi="http://sodipodi.sourceforge.net/DTD/sodipodi-0.dtd" xmlns:inkscape="http://www.inkscape.org/namespaces/inkscape"
	 xmlns="http://www.w3.org/2000/svg" xmlns:xlink="http://www.w3.org/1999/xlink" x="0px" y="0px" width="40px" height="40px"
	 viewBox="0 0 40 40" enable-background="new 0 0 40 40" xml:space="preserve">
<sodipodi:namedview  id="namedview2996" inkscape:current-layer="svg2" inkscape:window-y="0" inkscape:window-x="0" fit-margin-bottom="0" fit-margin-right="0" inkscape:window-height="623" inkscape:window-width="864" inkscape:pageshadow="2" inkscape:pageopacity="0" inkscape:cy="407.66551" inkscape:cx="116.80866" inkscape:zoom="0.24896372" fit-margin-left="0" fit-margin-top="0" showgrid="false" guidetolerance="10" gridtolerance="10" objecttolerance="10" borderopacity="1" bordercolor="#666666" pagecolor="#ffffff" inkscape:window-maximized="0">
	</sodipodi:namedview>
<g>
	<rect x="1" y="11.478" fill="#F1DD51" width="16.561" height="16.561"/>
	<g>
		<path fill-rule="evenodd" clip-rule="evenodd" fill="#434343" d="M8.478,19.116c0.481,0,0.963,0,1.444,0
			c-0.354,2.632,1.273,8.075-2.406,7.702c-1.043-0.112-1.725-0.586-2.119-1.348c0.201-0.41,0.766-0.454,1.06-0.77
			c0.475,0.166,0.505,0.777,1.155,0.77c1.713-0.528,0.503-4.213,0.867-6.066C8.478,19.309,8.478,19.212,8.478,19.116z"/>
		<path fill-rule="evenodd" clip-rule="evenodd" fill="#434343" d="M15.7,20.176c-0.21,0.463-0.721,0.627-1.155,0.866
			c-0.118-0.428-0.505-0.586-0.963-0.675c-0.42,0.062-0.733,0.23-0.77,0.675c0.367,1.333,2.215,1.187,2.984,2.118
			c0.587,0.823,0.555,2.257-0.096,2.984c-1.349,1.148-4.365,0.701-4.814-0.963c0.401-0.208,0.799-0.42,1.155-0.674
			c0.331,0.867,2.358,1.495,2.696,0.193c-0.371-1.331-2.239-1.163-2.984-2.119C9.657,19.927,14.343,17.685,15.7,20.176z"/>
		<path fill-rule="evenodd" clip-rule="evenodd" fill="#434343" d="M20.707,19.212c0,1.059,0,2.118,0,3.178c1.06,0,2.117,0,3.177,0
			c0.225-0.867,0.033-2.15,0.097-3.178c0.345-0.2,1.04-0.05,1.54-0.096c0,2.535,0,5.07,0,7.606c-0.513,0-1.026,0-1.54,0
			c0-0.963,0-1.927,0-2.89c-0.867-0.224-2.151-0.032-3.177-0.095c-0.225,0.802-0.033,2.021-0.097,2.984c-0.514,0-1.027,0-1.541,0
			c0-2.503,0-5.008,0-7.511C19.493,19.058,20.379,19.058,20.707,19.212z"/>
		<path fill-rule="evenodd" clip-rule="evenodd" fill="#434343" d="M27.062,20.945c-0.817-0.924,0.505-2.212,1.444-1.348
			C29.176,20.554,28.016,21.619,27.062,20.945z"/>
		<path fill-rule="evenodd" clip-rule="evenodd" fill="#434343" d="M36.111,20.271c0.482,0,0.963,0,1.445,0c0,0.547,0,1.093,0,1.638
			c0.229,0.222,0.864,0.034,1.25,0.097c0,0.416,0,0.834,0,1.251c-0.415,0-0.833,0-1.25,0c0.063,0.771-0.163,1.833,0.192,2.312
			c0.305,0.15,0.422-0.054,0.771-0.097c0.184,0.328,0.449,0.577,0.48,1.059c-2.134,1.144-3.396-0.75-2.889-3.177
			c-0.041-0.216-0.474-0.039-0.674-0.097c0-0.417,0-0.835,0-1.251c0.225,0,0.449,0,0.674,0
			C36.111,21.427,36.111,20.849,36.111,20.271z"/>
		<path fill-rule="evenodd" clip-rule="evenodd" fill="#434343" d="M34.475,26.723c-0.48,0-0.963,0-1.443,0c0-0.995,0-1.99,0-2.984
			c-1.392-1.771-2.236,1.029-1.83,2.984c-0.48,0-0.963,0-1.443,0c0-1.573,0-3.146,0-4.718c0.48,0,0.963,0,1.443,0
			c0,0.192,0,0.385,0,0.577c0.39-0.125,0.973-0.888,2.022-0.674C34.877,22.275,34.427,24.75,34.475,26.723z"/>
		<path fill-rule="evenodd" clip-rule="evenodd" fill="#434343" d="M28.506,22.005c0,1.572,0,3.145,0,4.718c-0.48,0-0.963,0-1.444,0
			c0-1.573,0-3.146,0-4.718C27.543,22.005,28.025,22.005,28.506,22.005z"/>
	</g>
</g>
</svg>
