<?xml version="1.0" encoding="utf-8"?>
<!-- Generator: Adobe Illustrator 15.1.0, SVG Export Plug-In . SVG Version: 6.00 Build 0)  -->
<!DOCTYPE svg PUBLIC "-//W3C//DTD SVG 1.1//EN" "http://www.w3.org/Graphics/SVG/1.1/DTD/svg11.dtd">
<svg version="1.1"
	 id="svg2" sodipodi:docname="twitter_bootstrap_logo.svg" inkscape:version="0.48.1 r9760" xmlns:dc="http://purl.org/dc/elements/1.1/" xmlns:cc="http://creativecommons.org/ns#" xmlns:rdf="http://www.w3.org/1999/02/22-rdf-syntax-ns#" xmlns:svg="http://www.w3.org/2000/svg" xmlns:sodipodi="http://sodipodi.sourceforge.net/DTD/sodipodi-0.dtd" xmlns:inkscape="http://www.inkscape.org/namespaces/inkscape"
	 xmlns="http://www.w3.org/2000/svg" xmlns:xlink="http://www.w3.org/1999/xlink" x="0px" y="0px" width="40px" height="40px"
	 viewBox="980 984.138 40 40" enable-background="new 980 984.138 40 40" xml:space="preserve">
<sodipodi:namedview  id="namedview2996" inkscape:current-layer="svg2" inkscape:window-y="0" inkscape:window-x="0" fit-margin-bottom="0" fit-margin-right="0" inkscape:window-height="623" inkscape:window-width="864" inkscape:pageshadow="2" inkscape:pageopacity="0" inkscape:cy="407.66551" inkscape:cx="116.80866" inkscape:zoom="0.24896372" fit-margin-left="0" fit-margin-top="0" showgrid="false" guidetolerance="10" gridtolerance="10" objecttolerance="10" borderopacity="1" bordercolor="#666666" pagecolor="#ffffff" inkscape:window-maximized="0">
	</sodipodi:namedview>
<path fill-rule="evenodd" clip-rule="evenodd" fill="#CF73A1" d="M1011.932,1006.466c-0.867-0.961-0.935-2.822-0.413-4.137
	c-0.39-0.152-1.163-0.152-1.552,0c-0.643,1.736-1.203,3.555-2.482,4.654c-0.572-0.913-0.49-2.672-0.104-3.724
	c-0.349-0.192-1.189-0.125-1.551,0c-0.401,1.315-0.979,2.601-1.552,3.827c-0.573,1.228-0.887,2.623-1.861,3.516
	c-0.085-1.739,0.568-2.74,0.724-4.24c-0.105-0.308-0.736-0.091-0.931-0.31c0.064-0.754-0.093-1.287-0.414-1.655
	c-1.499-0.104-2.477,0.826-3.619,1.552c-1.003,0.637-2.307,1.966-3.517,1.965c-0.535-0.001-1.322-0.541-2.172-0.621
	c-3.648-0.34-8.611,0.867-9.515-1.965c-0.87-2.725,1.942-5.994,3.31-7.343c3.295-3.252,9.354-5.327,12.928-2.999
	c0.9,0.586,1.546,1.779,1.551,3.103c-2.07-0.014-4.345,0.898-4.033,2.792c0.116,0.708,0.804,1.15,1.655,1.138
	c1.753-0.025,2.66-1.892,3.516-2.792c0.992,0.076,1.426,0.712,1.759,1.447c0.417-1.323-0.892-1.789-1.552-2.378
	c0.931-4.251-3.605-6.034-7.239-5.792c-3.353,0.224-6.598,2.018-8.895,4.137c-2.35,2.168-4.805,5.136-4.965,8.067
	c-0.096,1.77,0.671,3.111,1.759,3.619c3.218,1.505,7.315-0.563,10.342,0.311c-1.717,1.232-5.198,2.32-5.067,5.068
	c0.04,0.848,0.985,1.683,1.552,1.861c4.198,1.325,8.937-3.448,5.895-7.033c0.887-0.389,1.535-1.016,2.482-1.344
	c-0.641,1.751-0.786,5.766,1.138,5.688c1.281-0.051,1.187-1.899,1.965-2.688c0.214,0.785-0.053,2.052,0.724,2.275
	c2.276-1.31,2.581-4.591,4.034-6.723c0.354,0.817,0.546,1.798,0.931,2.585c-0.628,1.233-1.763,1.962-2.172,3.413
	c2.348,0.742,4.565-1.319,3.517-3.723c0.621-1.068,1.053-2.326,1.861-3.206c0.262,0.807,0.492,1.646,0.827,2.379
	c-0.72,0.839-2.018,2.061-1.447,3.516c1.749,0.528,3.747-1.34,2.896-3.413c2.092-1.422,6.594-0.271,6.309,2.275
	c-0.075,0.673-1,1.066-0.827,1.448c0.298-0.185,0.604-0.361,0.931-0.517C1020.401,1006.661,1015.117,1004.779,1011.932,1006.466z
	 M997.452,1000.881c-0.461-1.328,1.461-2.203,3.104-1.965C1000.869,1000.119,998.03,1002.544,997.452,1000.881z M994.764,1012.878
	c-0.948,1.24-5.006,2.45-5.274,0.414c-0.314-2.384,3.444-3.243,4.964-4.137C995.425,1010.188,995.59,1011.798,994.764,1012.878z
	 M999.314,1011.12c-1.31-1.367,0.138-5.417,1.965-5.688C1001.511,1007.076,1000.346,1009.734,999.314,1011.12z M1005.52,1011.327
	c0.322-0.747,0.872-1.266,1.552-1.655C1006.896,1010.565,1006.408,1011.146,1005.52,1011.327z M1009.863,1010.189
	c0.035-1,0.657-1.411,1.034-2.068C1011.714,1008.81,1010.85,1010.291,1009.863,1010.189z"/>
</svg>
