<?xml version="1.0" encoding="utf-8"?>
<!-- Generator: Adobe Illustrator 15.1.0, SVG Export Plug-In . SVG Version: 6.00 Build 0)  -->
<!DOCTYPE svg PUBLIC "-//W3C//DTD SVG 1.1//EN" "http://www.w3.org/Graphics/SVG/1.1/DTD/svg11.dtd">
<svg version="1.1"
	 id="svg2" sodipodi:docname="twitter_bootstrap_logo.svg" inkscape:version="0.48.1 r9760" xmlns:dc="http://purl.org/dc/elements/1.1/" xmlns:cc="http://creativecommons.org/ns#" xmlns:rdf="http://www.w3.org/1999/02/22-rdf-syntax-ns#" xmlns:svg="http://www.w3.org/2000/svg" xmlns:sodipodi="http://sodipodi.sourceforge.net/DTD/sodipodi-0.dtd" xmlns:inkscape="http://www.inkscape.org/namespaces/inkscape"
	 xmlns="http://www.w3.org/2000/svg" xmlns:xlink="http://www.w3.org/1999/xlink" x="0px" y="0px" width="40px" height="40px"
	 viewBox="0 0 40 40" enable-background="new 0 0 40 40" xml:space="preserve">
<sodipodi:namedview  id="namedview2996" inkscape:current-layer="svg2" inkscape:window-y="0" inkscape:window-x="0" fit-margin-bottom="0" fit-margin-right="0" inkscape:window-height="623" inkscape:window-width="864" inkscape:pageshadow="2" inkscape:pageopacity="0" inkscape:cy="407.66551" inkscape:cx="116.80866" inkscape:zoom="0.24896372" fit-margin-left="0" fit-margin-top="0" showgrid="false" guidetolerance="10" gridtolerance="10" objecttolerance="10" borderopacity="1" bordercolor="#666666" pagecolor="#ffffff" inkscape:window-maximized="0">
	</sodipodi:namedview>
<g>
	<g>
		<path fill-rule="evenodd" clip-rule="evenodd" fill="#464646" d="M17.64,1.517c12.168-1.401,22.48,7.7,21.341,20.774
			c-0.829,9.504-8.956,18.043-20.963,16.996C8.398,38.449-0.019,30.24,1.021,18.325C1.778,9.637,8.723,2.543,17.64,1.517z
			 M5.742,10.959c2.181,0.424,5.124-1.005,6.421,0.378c-0.144,1.053-1.486,0.905-2.644,0.944c2.26,5.923,3.772,12.595,6.421,18.13
			c1.083-3.766,2.357-7.338,3.588-10.955c-1.035-2.238-1.805-4.741-2.644-7.176c-1.04-0.093-2.504,0.237-2.455-0.944
			c0.667-1.173,2.389-0.441,3.777-0.378c2.4,0.108,5.393-0.778,6.799,0.378c-0.144,1.053-1.486,0.905-2.644,0.944
			c2.162,5.958,3.912,12.33,6.231,18.13c0.559-4.299,3.575-7.301,2.833-12.465c-0.417-2.899-3.196-4.639-3.021-7.365
			c0.118-1.837,1.573-2.847,3.021-3.021C25.027,0.396,9.226,3.029,5.742,10.959z M28.593,34.943
			c6.767-2.762,11.204-14.495,6.422-22.473C34.889,21.229,30.624,27.463,28.593,34.943z M12.352,35.51
			C9.72,28.133,7.271,20.572,4.231,13.603C0.548,22.898,5.39,32.721,12.352,35.51z M15.185,36.643
			c2.91,1.152,7.593,0.844,10.387-0.188c-1.824-4.785-3.241-9.979-5.477-14.354C18.594,27.086,16.859,31.834,15.185,36.643z"/>
	</g>
</g>
</svg>
