<svg xmlns="http://www.w3.org/2000/svg" viewBox="15 12.5 20 15"><path fill="#CABB9D" d="M16.049 18.726c0-.172-.027-.32-.081-.444-.053-.124-.14-.199-.258-.229-.124-.032-.212 0-.268.095-.056.093-.084.226-.084.398v.2c.018.1 0 .2.1.225l.065.157.132.301.2.5.3.641c.036-.117.054-.302.054-.55l.137.041-.021.4c-.015.132-.036.239-.065.321l.192.408-.122.112-.159-.343c-.123.169-.291.217-.504.1-.093-.032-.182-.088-.264-.17-.082-.08-.153-.178-.213-.289-.06-.111-.106-.233-.143-.37-.036-.136-.052-.272-.052-.412l.024-.248.064-.221.095-.183.122-.132-.083-.257-.031-.281.031-.309.093-.23c.042-.061.092-.104.153-.131.062-.026.132-.029.212-.009.151 0 .3.1.4.3.085.2.1.4.1.62l-.126-.011zm-.633.529c-.089.082-.15.171-.185.3-.035.099-.053.221-.053.364v.323c.027.1.1.2.1.3.048.1.1.2.2.226.064.1.1.1.2.131h.2c.069-.027.128-.072.177-.139l-.639-1.505z"/><g fill="#fff"><path d="M19.938 18.017l-.141.051-.161-.009-.185-.073-.14-.114-.101-.129-.068-.128-.133.107.038.1.1.182.2.199c.082.1.2.1.3.1l.2.002c.074-.015.139-.047.197-.095.058-.047.105-.112.143-.194.037-.082.056-.181.056-.296l-.019-.182-.085-.237c-.044-.082-.108-.163-.192-.242-.083-.08-.198-.146-.34-.199-.095-.033-.171-.074-.226-.125l-.128-.15-.057-.145-.013-.108.015-.112.059-.135.126-.102c.055-.025.125-.031.212-.016.078 0 .2 0 .2.1l.2.236.138-.099-.045-.106-.097-.156-.168-.151c-.068-.046-.153-.078-.25-.095h-.242c-.071.028-.133.071-.184.127-.052.058-.091.126-.117.205-.028.08-.042.164-.042.3 0 .2 0 .3.1.486.098.2.2.3.5.349.1 0 .2.1.2.1l.1.153.1.145.013.11-.039.2c.052.029.038.129-.062.146zM17.844 17.883l.188.044v-2.474l-.188-.034v.488c-.08-.169-.18-.31-.3-.423-.12-.112-.249-.179-.39-.205-.117-.021-.225-.007-.326.041-.1.046-.187.118-.262.2-.074.096-.132.214-.175.353-.042.138-.063.291-.063.455 0 .2 0 .3.1.5.042.2.1.3.2.423l.3.32.3.2c.141 0 .3 0 .39-.042.12-.061.221-.163.3-.302v.456zm-.054-.883c-.037.115-.086.211-.148.289-.063.078-.136.134-.219.168-.083.035-.171.042-.264 0s-.181-.068-.263-.14c-.082-.071-.152-.158-.214-.261-.06-.103-.108-.217-.142-.344-.034-.126-.051-.256-.051-.389s.017-.256.051-.366c.034-.112.083-.205.142-.279.062-.075.132-.131.214-.168.083-.036.17-.047.263-.029l.3.1c.083.1.2.2.2.25.061.1.1.2.1.342.036.1.1.3.1.4l-.059.455zM22.574 17.619c0-.195-.029-.383-.085-.565-.057-.181-.135-.345-.232-.488-.098-.144-.212-.262-.342-.358-.129-.094-.268-.155-.412-.18-.145-.025-.279-.012-.402 0-.124.049-.23.126-.323.231-.091.105-.162.234-.214.387-.053.152-.079.322-.079.5s.026.4.1.538c.052.2.1.3.2.472l.3.4c.123.1.3.2.4.202l.412-.011c.13-.043.244-.117.342-.219.097-.104.176-.233.232-.39s.103-.338.129-.519zm-.288.369c-.044.128-.104.236-.182.3-.078.085-.167.147-.271.183-.103.037-.211.042-.326.015-.116-.027-.223-.08-.323-.162-.099-.082-.187-.181-.259-.298-.073-.117-.131-.247-.173-.39-.043-.143-.064-.289-.064-.437s.021-.283.064-.407c.043-.125.1-.229.173-.313.074-.084.16-.146.259-.185.101-.042.208-.052.323-.032.117 0 .2.1.3.149l.3.3.2.391c.045.1.1.3.1.449-.056.149-.107.349-.107.437zM23.123 18.852c.071.1.2.2.2.26.098.1.2.1.3.1l.2.009.172-.042.147-.088.104-.132v.395l.234.055h.001v-2.878l-.251-.043v1.876c0 .103-.016.196-.045.3-.03.082-.071.148-.123.199-.052.051-.113.086-.183.104-.069.018-.145.017-.229-.002-.078-.018-.151-.052-.218-.101l-.174-.182-.115-.247c-.029-.092-.042-.188-.042-.289v-1.832l-.238-.041v1.82c0 .1 0 .3.1.4l.137.359zM25.891 17.083l.109.03.133.06.1.1c.045 0 .1.1.1.117l.148-.159c-.082-.102-.18-.191-.289-.264-.111-.073-.225-.12-.346-.14l-.184-.003-.176.051-.151.1-.104.119v-.369l-.262-.045v2.908l.262.062v-1.918c0-.105.015-.199.047-.284.029-.083.072-.154.128-.213.056-.059.121-.099.195-.123l.299-.029z"/><polygon points="27.3,20.1 27.3,17.1 27,17 27,20"/><polygon points="27.3,15.8 27,15.8 27,16.2 27.3,16.3"/><path d="M29.432 20.397c.086-.055.156-.131.211-.229.059-.099.086-.218.086-.359l-.029-.224c-.02-.094-.063-.192-.127-.295s-.162-.205-.287-.308c-.125-.101-.295-.188-.508-.26-.143-.044-.256-.099-.338-.164l-.189-.19-.084-.178-.02-.134.021-.136.088-.161c.043-.05.105-.088.186-.118s.188-.033.318-.009l.3.1.3.298.209-.114-.068-.135-.146-.193c-.064-.069-.148-.133-.25-.194-.104-.06-.227-.102-.371-.126-.135-.024-.254-.02-.361 0-.105.03-.197.08-.275.147-.076.067-.133.148-.174.243-.039.096-.059.197-.059.3 0 .2.1.4.2.599.146.2.4.3.7.45l.4.2c.086.1.2.1.2.195l.1.181.02.135c0 .093-.02.17-.057.2-.037.062-.088.107-.152.138l-.209.053-.238-.021c-.105-.022-.197-.057-.275-.099l-.207-.148-.15-.164-.102-.159-.191.123.055.106c.039.1.1.1.2.2.074.1.2.2.3.255l.4.188h.3c.087.11.141.11.241.007z"/><polygon points="18,21.6 18,18.4 17.8,18.4 17.8,21.5 17.8,21.8 19.2,22.3 19.2,22 19.2,22"/><polygon points="15.2,17.2 15.2,12.6 15,12.6 15,17.2 15,17.3 16.2,17.5 16.2,17.3 16.2,17.3"/><path d="M21.161 21.042c-.052-.179-.124-.342-.213-.489s-.194-.273-.31-.375c-.117-.103-.241-.173-.374-.208-.131-.035-.254-.034-.367.004-.113.038-.211.104-.294.2-.084.094-.15.212-.196.358-.047.145-.071.306-.071.482 0 .2 0 .4.1.5.049.2.1.3.2.483.086.1.2.3.3.385.121.1.2.2.4.2.159.1.3.1.4.024.112-.035.204-.09.276-.157.086-.078.154-.18.206-.302l-.169-.181c-.07.158-.169.271-.297.339-.128.068-.27.075-.426.025-.107-.036-.21-.099-.306-.187-.096-.089-.179-.193-.25-.314-.069-.119-.125-.252-.164-.395-.041-.143-.061-.286-.061-.43l1.718.5c-.023-.104-.063-.304-.063-.462zm-1.617-.22c.02-.106.051-.202.095-.287l.16-.21c.064-.055.134-.091.214-.111.08-.02.164-.018.3.009l.3.1c.082.1.2.1.2.236.066.1.1.2.2.311.045.1.1.2.1.356l-1.569-.404z"/><polygon points="25,24.2 25.3,24.3 25.3,21.4 25,21.3"/><polygon points="25,20.6 25.3,20.7 25.3,20.3 25,20.2"/><path d="M28.107 22.744c-.127-.23-.285-.43-.475-.596-.188-.166-.393-.279-.611-.339-.184-.05-.355-.056-.512-.019-.156.038-.293.108-.406.213-.117.104-.207.238-.273.4-.066.164-.098.348-.098.553 0 .2 0 .4.1.614.066.2.2.4.3.6.113.2.2.3.4.46.156.1.3.2.5.29.219.1.4.1.6 0 .189-.05.348-.153.475-.311v.614l.295.098v-3.111l-.295-.08v.614zm-.087 1.356c-.057.137-.135.246-.234.33-.098.084-.213.138-.344.163-.131.023-.27.011-.416-.037-.145-.047-.283-.125-.412-.234-.127-.107-.238-.231-.332-.374-.096-.142-.17-.295-.223-.46-.053-.166-.08-.331-.08-.496 0-.168.027-.316.08-.446.055-.131.129-.237.223-.318s.205-.135.332-.162c.129-.029.268-.023.4.018.15 0 .3.1.4.2.133.1.2.2.3.361.098.1.2.3.2.463.057.2.1.3.1.5.093.192.086.392-.014.531zM30.818 23.188c-.096-.128-.211-.237-.342-.328-.129-.092-.268-.158-.412-.198l-.219-.026-.209.031-.174.1-.125.113v-.399l-.305-.084v3.156l.305.102v-2.081c0-.115.02-.214.055-.298.037-.086.088-.153.152-.205.064-.053.143-.085.232-.102.088-.016.186-.01.3 0 .107 0 .2.1.3.143.094.1.2.1.2.236.068.1.1.2.2.3.039.1.1.2.1.34v2.143l.328.11v-2.158c0-.16-.031-.319-.088-.475-.118-.108-.216-.308-.316-.42zM34.857 25.023c-.092-.243-.221-.471-.379-.676-.158-.204-.344-.383-.555-.533-.211-.149-.434-.256-.666-.318-.234-.063-.451-.077-.65-.04-.197.034-.369.109-.516.2-.145.112-.26.26-.344.442s-.125.389-.125.625c0 .2 0 .5.1.7l.3.647c.146.2.3.4.5.537.199.2.4.3.7.4.232.1.5.1.7.084.211-.022.396-.088.555-.196.158-.109.287-.257.379-.442.097-.253.144-.453.144-.686 0-.267 0-.467-.1-.744zm-.33 1.146c-.072.154-.172.278-.297.4-.125.093-.273.147-.439.17-.164.022-.342.001-.529-.059-.184-.063-.357-.155-.518-.283-.16-.126-.299-.271-.418-.438-.115-.166-.207-.343-.275-.534-.068-.189-.102-.379-.102-.564 0-.188.033-.354.102-.502s.16-.267.275-.356c.119-.089.258-.149.418-.179.16-.03.334-.019.5 0 .191.1.4.1.5.26s.309.3.4.427c.123.2.2.3.3.5.074.2.1.4.1.589.091.2.056.4-.044.569zM24.2 21.47c-.106-.16-.23-.298-.372-.412s-.29-.192-.445-.235c-.188-.051-.357-.045-.512.014-.154.063-.271.163-.371.31v-.545l-.231-.064v4.929l.231.088v-2.745c.1.2.2.4.4.538.154.2.3.3.5.327.155.1.3.1.4 0 .142-.028.266-.091.372-.187.107-.098.191-.225.254-.38.063-.158.093-.338.093-.542 0-.199-.03-.397-.093-.594s-.119-.372-.226-.502zm.038 1.495c-.048.126-.116.227-.204.3-.085.075-.185.124-.299.148-.113.021-.231.015-.356-.028-.129-.041-.248-.109-.356-.204-.108-.096-.201-.205-.279-.33-.078-.124-.14-.262-.186-.412-.046-.151-.068-.304-.068-.456 0-.154.022-.293.068-.418.046-.124.109-.227.188-.305.081-.083.174-.139.283-.17.108-.03.225-.029.4.006.125 0 .2.1.4.192l.3.3c.086.1.2.3.2.433.049.2.1.3.1.476l-.229.468z"/></g></svg>