<svg xmlns="http://www.w3.org/2000/svg" viewBox="0 0 200 300"><g fill="#fff"><path d="M41.343 108.877c-1.257-.427-3.246-.672-5.456-.672-1.432 0-2.835.103-3.953.3-6.803 1.164-12.351 5.935-16.043 13.796-5.935 12.634-5.529 30.6.9 41.851 3.463 6 10.2 12.4 18.8 12.4 1.899 0 3.82-.324 5.709-.963 12.13-4.101 17.55-19.779 17.541-33.5.056-12.589-4.541-28.889-17.541-33.212zm-5.688 66.712c-8.169-.001-14.631-6.171-17.954-11.946-6.324-10.967-6.712-28.562-.904-40.927 2.474-5.266 7.137-11.837 15.305-13.235 1.063-.178 2.407-.276 3.786-.276 2.104 0 4 .2 5.1.6 12.449 4.2 16.9 20 16.9 32.302.009 13.362-5.201 28.61-16.861 32.552-1.768.641-3.627.941-5.327.93zM169.794 108.82c-1.251-.423-3.223-.667-5.409-.667-1.454 0-2.871.108-3.986.3-6.806 1.161-12.355 5.927-16.05 13.784-5.938 12.63-5.533 30.6.9 41.858 3.469 6 10.2 12.4 18.8 12.4 1.899 0 3.82-.324 5.71-.964 12.127-4.101 17.548-19.771 17.542-33.484.055-12.547-4.501-28.847-17.501-33.227zm-5.683 66.723h-.002c-8.16-.001-14.625-6.17-17.953-11.943-6.326-10.975-6.714-28.573-.902-40.933 2.475-5.263 7.14-11.83 15.314-13.224 1.063-.187 2.418-.289 3.816-.289 2.082 0 3.9.2 5.1.614 12.457 4.2 16.9 20 16.9 32.3.006 13.354-5.205 28.595-16.862 32.536-1.808.596-3.622.896-5.422.939zM179.452 98.355c-2.193-1.888-8.015-6.366-14.69-7.151-1.38-.164-2.731-.247-4.017-.247-11.307 0-17.159 6.256-22.819 12.306-.45.481-.899.961-1.352 1.438-12.194-14.022-26.56-20.093-42.681-18.06-14.931 1.859-24.693 10.559-31.593 18.056-5.553-6.47-11.869-13.752-23.8-13.752-1.418 0-2.909.104-4.431.3-5.252.697-10.852 4.154-14.34 7.156-12.253 10.499-18.829 32.699-15.929 53.954 2.522 18.9 13.1 38.9 31.1 40.9 1.274.1 2.5.2 3.7.211 7.698 0 12.055-3.038 16.27-5.976.614-.428 1.228-.855 1.852-1.274 4.479 38.1 16.4 68.4 26.4 90.465 1.679 3.9 11.8 23.2 16.9 23.181l.141-.005c5.044-.331 14.871-19.076 16.238-23.514 13.342-28.14 22.061-57.621 26.643-90.092 5.045 4 10 7.2 18 7.2 1.234 0 2.528-.08 3.848-.239 17.633-2.12 28.268-22.694 30.686-40.912 2.732-21.3-3.878-43.4-16.078-53.945zm15.036 53.798c-2.369 17.848-12.71 37.995-29.813 40.052-1.28.153-2.534.231-3.729.2-8.024.001-12.931-3.404-18.067-7.519l-.687-.55-.121.872c-4.534 32.713-13.261 62.37-26.703 90.7-1.681 5.435-11.405 22.616-15.374 22.877l-.076.003c-4.028 0-13.664-17.131-15.99-22.582-9.983-22.196-22.005-52.597-26.394-90.986l-.092-.803-.677.44-2.554 1.7c-4.276 2.98-8.314 5.796-15.698 5.796-1.133 0-2.336-.068-3.574-.205-17.333-1.917-27.801-22.095-30.191-40.032-2.808-20.816 3.652-42.616 15.652-52.948 3.379-2.909 8.785-6.254 13.82-6.923 1.479-.199 2.924-.3 4.298-.3 11.538 0 17.4 6.9 23.1 13.512l.644.749.38-.418c6.781-7.453 16.474-16.251 31.36-18.154 2.004-.253 4.004-.381 5.947-.381 13.686 0 25.5 6.1 36.2 18.518l.359.419.382-.399c.582-.608 1.159-1.226 1.738-1.844 5.515-5.894 11.216-11.989 22.089-11.989 1.246 0 2.6.1 3.9.2 6.402.8 12 5.1 14.2 6.917 12.008 10.325 18.483 32.125 15.683 53.078zM96.392 85.569l6.862-.372c-3.33-47.124-29.71-71.188-67.241-84.103l-.103.206c35.306 12.7 61.89 36.1 60.49 84.269zM83.308 182.695c-1.979 0-3.591 1.619-3.591 3.603 0 2 1.6 3.6 3.6 3.6 2.001 0 3.605-1.629 3.605-3.603-.001-1.995-1.622-3.595-3.622-3.6zM113.896 182.68c-1.994 0-3.599 1.613-3.599 3.596 0 2 1.6 3.6 3.6 3.6 1.992 0 3.592-1.615 3.592-3.609-.001-1.967-1.589-3.567-3.589-3.587z"/><rect x="53" y="269.5" width="24.7" height="2.5"/><polygon points="53.1,284.5 54,286.7 80.4,275.8 79.5,273.5"/><rect x="121.2" y="269.5" width="24.7" height="2.5"/><polygon points="118.5,275.8 144.9,286.7 145.9,284.4 119.5,273.5"/></g></svg>