<svg xmlns="http://www.w3.org/2000/svg" width="400" height="140"><g fill="#fff"><path d="M1.124 83.443v-83.51h14.697v83.51h-14.697zM42.063 59.766c.154 4.433 1.359 7.835 3.615 10.206 2.254 2.374 5.442 3.56 9.564 3.56 2.721 0 5.074-.604 7.056-1.81 1.983-1.204 3.284-3.05 3.907-5.54h14.464c-.391 2.255-1.166 4.452-2.333 6.587-1.166 2.142-2.799 4.085-4.897 5.834-2.101 1.75-4.648 3.149-7.64 4.199-2.994 1.049-6.512 1.574-10.555 1.574-4.822 0-9.039-.759-12.655-2.273-3.617-1.518-6.609-3.559-8.982-6.125-2.373-2.564-4.14-5.5-5.308-8.805-1.165-3.304-1.749-6.745-1.749-10.323 0-3.575.584-7.036 1.749-10.379 1.168-3.343 2.935-6.259 5.308-8.748 2.373-2.488 5.325-4.491 8.865-6.009 3.537-1.515 7.717-2.273 12.538-2.273 8.63 0 15.142 2.547 19.537 7.64 4.392 5.093 6.589 12.655 6.589 22.685h-39.073zm24.027-8.981c-.39-3.575-1.537-6.257-3.441-8.047-1.905-1.788-4.491-2.683-7.757-2.683-2.956 0-5.521.797-7.697 2.391-2.178 1.594-3.695 4.374-4.548 8.338h23.443zM92.857 105.954v-74.996h14.697v4.433c1.787-1.867 3.945-3.325 6.474-4.375 2.526-1.049 5.461-1.575 8.804-1.575 4.043 0 7.601.759 10.673 2.273 3.071 1.518 5.636 3.54 7.697 6.066 2.06 2.528 3.617 5.444 4.667 8.747 1.05 3.307 1.574 6.748 1.574 10.323 0 3.811-.584 7.39-1.75 10.73-1.165 3.344-2.839 6.26-5.014 8.748-2.18 2.489-4.802 4.453-7.874 5.891-3.073 1.437-6.513 2.157-10.322 2.157-3.265 0-6.124-.485-8.572-1.457-2.45-.973-4.57-2.352-6.357-4.142v27.176h-14.697zm26.361-32.774c3.808 0 6.899-1.438 9.273-4.315 2.369-2.876 3.557-6.882 3.557-12.014 0-2.253-.253-4.391-.757-6.416-.507-2.02-1.284-3.79-2.334-5.305-1.049-1.518-2.373-2.703-3.965-3.56-1.595-.854-3.441-1.281-5.542-1.281-3.963 0-7.077 1.458-9.33 4.374-2.257 2.916-3.382 7.018-3.382 12.304 0 2.88.33 5.349.992 7.408.66 2.061 1.575 3.732 2.741 5.014 1.166 1.285 2.507 2.237 4.023 2.86s3.09.931 4.724.931zM157.939 83.443v-52.485h14.697v8.397c2.254-3.731 4.684-6.316 7.289-7.757 2.604-1.438 5.462-2.157 8.573-2.157 2.487 0 4.432.466 5.832 1.4v12.014c-.779-.311-1.673-.525-2.684-.641-1.01-.117-2.021-.177-3.031-.177-2.179 0-4.239.37-6.183 1.108-1.944.741-3.634 1.985-5.073 3.733-1.44 1.749-2.587 4.083-3.44 6.999-.856 2.916-1.283 6.59-1.283 11.021v18.545h-14.697zM257.078 56.967c0 3.5-.603 6.903-1.806 10.207-1.208 3.305-3.033 6.24-5.483 8.805-2.449 2.566-5.502 4.607-9.157 6.125-3.656 1.515-7.893 2.273-12.712 2.273-4.823 0-9.039-.759-12.655-2.273-3.614-1.518-6.647-3.559-9.097-6.125-2.451-2.564-4.278-5.5-5.483-8.805-1.206-3.304-1.807-6.707-1.807-10.207 0-3.499.602-6.899 1.807-10.206 1.205-3.302 3.032-6.239 5.483-8.806 2.449-2.565 5.482-4.625 9.097-6.18 3.616-1.555 7.832-2.334 12.655-2.334 4.819 0 9.056.779 12.712 2.334 3.655 1.555 6.708 3.615 9.157 6.18 2.45 2.567 4.275 5.503 5.483 8.806 1.204 3.306 1.806 6.707 1.806 10.206zm-29.158 16.213c4.509 0 7.893-1.477 10.147-4.432 2.254-2.955 3.382-6.841 3.382-11.664 0-4.82-1.128-8.765-3.382-11.838-2.255-3.071-5.639-4.606-10.147-4.606-4.511 0-7.892 1.535-10.147 4.606-2.256 3.074-3.383 7.018-3.383 11.838 0 4.823 1.127 8.709 3.383 11.664 2.255 2.955 5.636 4.432 10.147 4.432zM260.577 95.341c.308.075.62.116.932.116 2.488 0 4.101-.875 4.839-2.625.739-1.749 1.11-4.723 1.11-8.921v-52.953h14.695v51.785c0 3.421-.349 6.552-1.049 9.39-.701 2.838-1.791 5.287-3.267 7.348-1.477 2.06-3.383 3.674-5.714 4.842-2.333 1.166-5.133 1.748-8.397 1.748h-1.635c-.544 0-1.049-.077-1.515-.232v-10.498zm6.881-77.097v-18.228h14.695v18.228h-14.695z"/></g><path fill="#fff" d="M292.555.016v105.863h105.862v-105.863h-105.862zm53.952 90.869c-20.387 0-36.915-16.527-36.915-36.916 0-20.388 16.528-36.916 36.915-36.916 20.388 0 36.916 16.528 36.916 36.916 0 20.388-16.528 36.916-36.916 36.916z"/><g fill="#fff"><path d="M95.41 116.506l-3.379 12.75c-.299 1.143-.925 3.432-.925 4.303 0 .519.191.927.816.927 1.036 0 2.398-2.016 3.461-4.495l.6.271c-.791 2.044-2.261 4.986-4.278 4.986-1.171 0-2.071-.953-2.071-2.533 0-.219.028-.463.055-.707l-.055-.055c-.544 1.17-2.561 3.295-4.712 3.295-2.589 0-3.787-2.533-3.787-4.877 0-4.603 3.65-8.58 7.354-8.58 1.908 0 2.671 1.253 2.944 2.615h.054l.845-3.023c.19-.709.788-2.588.788-3.324 0-.572-.354-.846-1.878-.846l.191-.707h3.977zm-6.975 5.992c-3.542 0-5.611 6.211-5.611 8.555 0 2.098.599 3.486 2.288 3.486 3.27 0 5.721-5.665 5.721-8.744-.001-1.988-.708-3.297-2.398-3.297zM99.198 129.365c-.164.598-.327 1.251-.327 2.26 0 1.825 1.035 2.914 2.751 2.914 2.589 0 4.44-2.287 5.531-4.602l.545.299c-.926 2.588-3.378 5.012-6.021 5.012-2.861 0-4.386-2.017-4.495-4.957-.164-4.631 4.412-8.419 8.473-8.5 1.688-.026 3.132.707 3.132 2.561 0 3.869-5.993 4.904-9.589 5.013zm6.075-6.867c-2.915 0-5.203 2.942-5.966 6.156 4.632-.054 7.737-1.58 7.792-4.139.026-1.308-.491-2.017-1.826-2.017zM116.662 121.791c2.724 0 3.541 1.498 3.541 2.261 0 .735-.436 1.362-1.225 1.362-.545 0-1.063-.272-1.063-.871 0-1.008 1.036-.818 1.036-1.037 0-.762-1.772-1.008-2.289-1.008-1.472 0-3.242.709-3.242 2.506 0 2.943 5.913 2.344 5.913 6.077 0 3.077-3.516 4.167-5.586 4.167-1.826 0-4.005-.734-4.005-2.888 0-.817.437-1.471 1.335-1.471.572 0 1.089.299 1.089.925 0 1.199-1.334.736-1.334 1.281 0 .49.871 1.443 2.942 1.443 1.961 0 3.76-1.008 3.76-2.914 0-2.779-5.801-2.533-5.801-6.074 0-2.397 2.015-3.759 4.929-3.759zM142.272 122.117l-3.678 13.512c-.817 2.998-3.296 4.305-7.138 4.305-1.988 0-3.513-.926-3.513-2.098 0-.654.435-1.198 1.225-1.198.708 0 1.063.38 1.063.927 0 .381-.492.436-.492.898 0 .435.708.763 1.907.763 2.589 0 4.686-1.091 5.449-3.923l.762-2.833-.054-.054c-1.035 1.061-2.206 2.832-4.549 2.832-2.098 0-3.787-1.635-3.787-5.012 0-4.796 4.25-8.445 7.165-8.445 1.88 0 2.833 1.334 3.106 3.133h.053l.763-2.807h1.718zm-5.665.381c-2.452 0-5.449 4.687-5.449 9.1 0 1.662.518 2.941 2.261 2.941 3.487 0 5.721-5.529 5.721-8.472 0-1.715-.573-3.569-2.533-3.569zM145.627 129.365c-.164.598-.328 1.251-.328 2.26 0 1.825 1.035 2.914 2.751 2.914 2.588 0 4.441-2.287 5.532-4.602l.543.299c-.925 2.588-3.377 5.012-6.02 5.012-2.86 0-4.386-2.017-4.495-4.957-.164-4.631 4.413-8.419 8.473-8.5 1.688-.026 3.132.707 3.132 2.561 0 3.869-5.993 4.904-9.588 5.013zm6.074-6.867c-2.915 0-5.202 2.942-5.966 6.156 4.632-.054 7.737-1.58 7.792-4.139.026-1.308-.492-2.017-1.826-2.017zM155.925 126.477c.709-2.07 2.234-4.686 4.386-4.686 1.526 0 2.125 1.008 2.125 2.752 0 1.008-.164 1.988-.328 2.914l.055.053c1.281-2.232 3.297-5.719 6.129-5.719 1.88 0 2.588 1.008 2.588 2.479 0 2.262-3.213 7.764-3.213 9.127 0 .734.571 1.143 1.171 1.143 1.062 0 2.616-1.334 3.895-4.631l.545.245c-1.118 3.106-2.698 5.095-4.794 5.095-1.089 0-2.18-1.035-2.18-2.778 0-2.507 3.214-7.002 3.214-8.827 0-.816-.245-1.145-1.416-1.145-3.16 0-6.348 6.431-7.519 10.652l-.49 1.771h-1.69l2.669-9.889c.11-.409.218-.9.218-1.336 0-.764-.381-1.199-1.089-1.199-1.716 0-2.97 2.344-3.596 4.142l-.68-.163zM180.746 121.791c2.724 0 3.542 1.498 3.542 2.261 0 .735-.438 1.362-1.227 1.362-.545 0-1.063-.272-1.063-.871 0-1.008 1.036-.818 1.036-1.037 0-.762-1.771-1.008-2.288-1.008-1.471 0-3.242.709-3.242 2.506 0 2.943 5.911 2.344 5.911 6.077 0 3.077-3.513 4.167-5.585 4.167-1.824 0-4.004-.734-4.004-2.888 0-.817.436-1.471 1.336-1.471.571 0 1.088.299 1.088.925 0 1.199-1.334.736-1.334 1.281 0 .49.873 1.443 2.942 1.443 1.962 0 3.759-1.008 3.759-2.914 0-2.779-5.802-2.533-5.802-6.074-.001-2.397 2.015-3.759 4.931-3.759zM207.937 116.506l-3.378 12.75c-.301 1.143-.927 3.432-.927 4.303 0 .519.191.927.817.927 1.035 0 2.398-2.016 3.46-4.495l.6.271c-.79 2.044-2.261 4.986-4.276 4.986-1.173 0-2.07-.953-2.07-2.533 0-.219.026-.463.054-.707l-.054-.055c-.546 1.17-2.562 3.295-4.714 3.295-2.588 0-3.787-2.533-3.787-4.877 0-4.603 3.651-8.58 7.356-8.58 1.906 0 2.67 1.253 2.941 2.615h.055l.846-3.023c.189-.709.788-2.588.788-3.324 0-.572-.354-.846-1.879-.846l.19-.707h3.978zm-6.975 5.992c-3.541 0-5.612 6.211-5.612 8.555 0 2.098.6 3.486 2.289 3.486 3.269 0 5.721-5.665 5.721-8.744 0-1.988-.708-3.297-2.398-3.297zM220.634 122.117h1.662l-2.017 8.091c-.408 1.636-.735 2.697-.735 3.242 0 .572.3 1.089.954 1.089.925 0 2.179-1.797 3.188-4.549l.6.271c-.682 1.771-1.825 4.986-4.061 4.986-1.633 0-2.041-1.307-2.041-3.051l-.084-.055c-1.088 1.553-2.451 3.105-4.631 3.105-2.806 0-3.813-2.343-3.813-4.957 0-5.203 4.659-8.5 7.192-8.5 1.88 0 2.642 1.58 2.996 3.133h.056l.734-2.805zm-9.29 9.535c0 1.525.735 2.887 2.262 2.887 3.569 0 5.584-5.61 5.584-8.227 0-1.961-.545-3.814-2.342-3.814-2.834 0-5.504 5.231-5.504 9.154zM224.56 126.477c.707-2.07 2.233-4.686 4.385-4.686 1.526 0 2.126 1.008 2.126 2.752 0 1.008-.163 1.988-.327 2.914l.054.053c1.282-2.232 3.297-5.719 6.13-5.719 1.88 0 2.589 1.008 2.589 2.479 0 2.262-3.216 7.764-3.216 9.127 0 .734.572 1.143 1.172 1.143 1.062 0 2.615-1.334 3.896-4.631l.544.245c-1.116 3.106-2.697 5.095-4.795 5.095-1.089 0-2.179-1.035-2.179-2.778 0-2.507 3.214-7.002 3.214-8.827 0-.816-.245-1.145-1.415-1.145-3.162 0-6.349 6.431-7.521 10.652l-.489 1.771h-1.689l2.67-9.889c.109-.409.218-.9.218-1.336 0-.764-.382-1.199-1.09-1.199-1.716 0-2.969 2.344-3.596 4.142l-.681-.163zM249.379 121.791c2.726 0 3.542 1.498 3.542 2.261 0 .735-.436 1.362-1.226 1.362-.546 0-1.063-.272-1.063-.871 0-1.008 1.035-.818 1.035-1.037 0-.762-1.771-1.008-2.289-1.008-1.47 0-3.242.709-3.242 2.506 0 2.943 5.912 2.344 5.912 6.077 0 3.077-3.514 4.167-5.585 4.167-1.824 0-4.004-.734-4.004-2.888 0-.817.437-1.471 1.336-1.471.571 0 1.089.299 1.089.925 0 1.199-1.336.736-1.336 1.281 0 .49.872 1.443 2.943 1.443 1.961 0 3.759-1.008 3.759-2.914 0-2.779-5.803-2.533-5.803-6.074.001-2.397 2.017-3.759 4.932-3.759zM268.397 116.506l-2.86 11.496c-.845 3.379-1.335 5.012-1.335 5.639 0 .572.382.898.845.898.953 0 2.479-1.58 3.323-4.357l.572.163c-1.089 3.678-2.669 4.903-4.306 4.903-.979 0-1.796-.872-1.796-2.396 0-.982.19-1.908.463-3.023l2.233-8.8c.244-1.009.627-2.507.627-2.942 0-.6-.354-.873-1.826-.873l.191-.707h3.869zM281.177 122.117h1.66l-2.016 8.091c-.409 1.636-.737 2.697-.737 3.242 0 .572.302 1.089.955 1.089.926 0 2.18-1.797 3.188-4.549l.598.271c-.682 1.771-1.826 4.986-4.059 4.986-1.635 0-2.042-1.307-2.042-3.051l-.082-.055c-1.09 1.553-2.453 3.105-4.632 3.105-2.808 0-3.813-2.343-3.813-4.957 0-5.203 4.657-8.5 7.19-8.5 1.88 0 2.645 1.58 2.998 3.133h.055l.737-2.805zm-9.291 9.535c0 1.525.736 2.887 2.261 2.887 3.569 0 5.585-5.61 5.585-8.227 0-1.961-.544-3.814-2.344-3.814-2.832 0-5.502 5.231-5.502 9.154zM291.504 134.922l.189-.709c1.118 0 2.181-.244 2.479-1.28l3.515-12.45c.382-1.308.681-2.232.681-2.805 0-.682-1.007-.79-2.016-.79l.191-.709h4.604l1.145 15.582h.054l9.398-15.582h4.739l-.189.709c-1.416 0-2.316.054-2.696 1.47l-2.672 10.243c-.625 2.397-1.172 4.142-1.172 4.687 0 .654.9.926 1.963.926l-.191.709h-6.646l.188-.709c1.145 0 2.452-.136 2.78-1.361l3.868-15.039h-.055l-10.216 17.109h-.763l-1.253-17.489h-.082l-2.18 8.198c-.762 2.861-1.961 6.949-1.961 7.656 0 .545.544.871 2.424.926l-.19.709h-5.936zM330.19 122.117l-2.45 9.208c-.137.544-.465 1.526-.465 2.125 0 .627.164 1.089.873 1.089 1.09 0 2.644-2.098 3.432-4.602l.601.189c-.981 3.242-2.833 5.121-4.306 5.121-1.416 0-1.96-1.307-1.96-2.561 0-.626.108-1.281.162-1.908l-.054-.055c-1.799 2.726-3.188 4.523-5.585 4.523-1.825 0-2.778-1.252-2.778-2.996 0-2.697 2.806-6.701 2.806-8.418 0-.9-.436-1.336-1.145-1.336-1.362 0-2.124 1.526-3.378 4.061l-.599-.272c.98-1.989 1.906-4.495 4.168-4.495 1.498 0 2.315 1.143 2.315 2.833 0 2.669-2.806 6.701-2.806 8.335 0 1.118.571 1.58 1.525 1.58 2.97 0 5.584-5.014 6.075-6.592l1.852-5.83h1.717zM339.701 121.791c2.725 0 3.543 1.498 3.543 2.261 0 .735-.437 1.362-1.228 1.362-.544 0-1.062-.272-1.062-.871 0-1.008 1.035-.818 1.035-1.037 0-.762-1.771-1.008-2.289-1.008-1.47 0-3.242.709-3.242 2.506 0 2.943 5.913 2.344 5.913 6.077 0 3.077-3.516 4.167-5.585 4.167-1.825 0-4.005-.734-4.005-2.888 0-.817.437-1.471 1.334-1.471.572 0 1.091.299 1.091.925 0 1.199-1.335.736-1.335 1.281 0 .49.872 1.443 2.942 1.443 1.961 0 3.758-1.008 3.758-2.914 0-2.779-5.801-2.533-5.801-6.074.001-2.397 2.017-3.759 4.931-3.759zM353.814 130.153c-1.116 3.106-2.696 5.095-4.795 5.095-1.089 0-2.179-1.035-2.179-2.778 0-2.507 3.215-7.002 3.215-8.827 0-.816-.245-1.145-1.036-1.145-1.006 0-2.179.9-3.649 4.36l-.626-.192c1.007-2.75 2.479-4.875 4.576-4.875 1.39 0 2.098 1.008 2.098 2.479 0 2.262-3.215 7.764-3.215 9.127 0 .734.572 1.143 1.172 1.143 1.062 0 2.614-1.334 3.896-4.631l.543.244zm-2.015-13.974c.681 0 1.225.544 1.225 1.225 0 .683-.572 1.228-1.225 1.228-.681 0-1.225-.518-1.225-1.228 0-.709.517-1.225 1.225-1.225zM358.285 139.607l.19-.71c1.171 0 2.833-.136 3.296-1.716l1.335-4.439-.055-.055c-1.09 1.416-2.425 2.561-4.358 2.561-1.936 0-3.842-1.58-3.842-4.957 0-3.869 3.869-8.5 7.627-8.5 1.827 0 2.398.6 3.243 2.152l1.634-1.826h.546l-3.052 10.842c-.68 2.398-1.28 4.088-1.28 4.85 0 .98 1.172 1.089 2.232 1.089l-.188.71h-7.328zm4.03-17.109c-3.158 0-5.774 6.376-5.774 9.045 0 2.07.6 2.996 2.233 2.996 4.087 0 6.103-6.646 6.103-9.152 0-1.826-.627-2.889-2.562-2.889zM383.676 122.117l-2.45 9.208c-.138.544-.465 1.526-.465 2.125 0 .627.164 1.089.873 1.089 1.089 0 2.641-2.098 3.433-4.602l.599.189c-.98 3.242-2.833 5.121-4.305 5.121-1.416 0-1.961-1.307-1.961-2.561 0-.626.11-1.281.163-1.908l-.053-.055c-1.8 2.726-3.188 4.523-5.586 4.523-1.825 0-2.78-1.252-2.78-2.996 0-2.697 2.808-6.701 2.808-8.418 0-.9-.436-1.336-1.146-1.336-1.362 0-2.125 1.526-3.377 4.061l-.6-.272c.98-1.989 1.907-4.495 4.169-4.495 1.498 0 2.314 1.143 2.314 2.833 0 2.669-2.806 6.701-2.806 8.335 0 1.118.573 1.58 1.526 1.58 2.969 0 5.583-5.014 6.074-6.592l1.853-5.83h1.717zM388.829 129.365c-.164.598-.328 1.251-.328 2.26 0 1.825 1.035 2.914 2.751 2.914 2.588 0 4.441-2.287 5.531-4.602l.543.299c-.925 2.588-3.377 5.012-6.02 5.012-2.861 0-4.387-2.017-4.494-4.957-.163-4.631 4.413-8.419 8.473-8.5 1.688-.026 3.132.707 3.132 2.561 0 3.869-5.992 4.904-9.588 5.013zm6.073-6.867c-2.914 0-5.202 2.942-5.966 6.156 4.633-.054 7.737-1.58 7.792-4.139.026-1.308-.491-2.017-1.826-2.017z"/></g></svg>