<?xml version="1.0" encoding="utf-8"?>
<!-- Generator: Adobe Illustrator 15.1.0, SVG Export Plug-In . SVG Version: 6.00 Build 0)  -->
<!DOCTYPE svg PUBLIC "-//W3C//DTD SVG 1.1//EN" "http://www.w3.org/Graphics/SVG/1.1/DTD/svg11.dtd">
<svg version="1.1" id="Calque_1" xmlns="http://www.w3.org/2000/svg" xmlns:xlink="http://www.w3.org/1999/xlink" x="0px" y="0px"
	 width="40px" height="14px" viewBox="0 0 40 14" enable-background="new 0 0 40 14" xml:space="preserve">
<g>
	<path d="M0,8.334V0h1.466v8.334H0z"/>
	<path d="M4.085,5.971c0.016,0.442,0.136,0.781,0.361,1.018C4.671,7.226,4.99,7.344,5.401,7.344c0.271,0,0.506-0.06,0.704-0.18
		s0.328-0.305,0.39-0.553h1.444c-0.04,0.226-0.117,0.444-0.233,0.658c-0.117,0.213-0.28,0.407-0.489,0.582
		C7.007,8.024,6.752,8.165,6.454,8.27C6.155,8.374,5.805,8.427,5.401,8.427c-0.481,0-0.902-0.076-1.263-0.227
		c-0.361-0.152-0.66-0.355-0.896-0.612C3.005,7.333,2.829,7.04,2.712,6.71C2.596,6.38,2.538,6.037,2.538,5.68
		s0.058-0.702,0.174-1.036c0.117-0.333,0.293-0.625,0.53-0.873c0.236-0.249,0.531-0.448,0.884-0.6
		c0.353-0.151,0.77-0.227,1.251-0.227c0.861,0,1.511,0.254,1.95,0.762S7.985,4.97,7.985,5.971H4.085z M6.483,5.075
		C6.444,4.718,6.33,4.45,6.14,4.271C5.95,4.093,5.692,4.004,5.366,4.004c-0.295,0-0.551,0.08-0.769,0.238
		C4.38,4.401,4.229,4.679,4.144,5.075H6.483z"/>
	<path d="M9.154,10.58V3.096h1.466v0.442c0.179-0.186,0.394-0.332,0.646-0.437c0.252-0.104,0.545-0.157,0.878-0.157
		c0.403,0,0.759,0.076,1.065,0.227c0.307,0.151,0.563,0.353,0.768,0.605c0.206,0.252,0.361,0.543,0.466,0.873
		c0.104,0.33,0.157,0.673,0.157,1.03c0,0.38-0.058,0.737-0.174,1.071s-0.283,0.625-0.5,0.873c-0.218,0.249-0.479,0.444-0.786,0.588
		c-0.307,0.143-0.65,0.215-1.03,0.215c-0.326,0-0.611-0.049-0.855-0.146c-0.245-0.097-0.456-0.235-0.635-0.413v2.712H9.154z
		 M11.785,7.309c0.38,0,0.688-0.143,0.925-0.43c0.237-0.288,0.355-0.687,0.355-1.199c0-0.225-0.025-0.438-0.076-0.64
		c-0.051-0.202-0.128-0.378-0.233-0.529c-0.104-0.151-0.236-0.27-0.395-0.355c-0.16-0.085-0.344-0.128-0.553-0.128
		c-0.396,0-0.706,0.146-0.931,0.436c-0.225,0.291-0.337,0.7-0.337,1.228c0,0.287,0.033,0.534,0.099,0.739s0.157,0.372,0.274,0.5
		c0.116,0.128,0.25,0.223,0.401,0.285C11.465,7.279,11.622,7.309,11.785,7.309z"/>
	<path d="M15.649,8.334V3.096h1.466v0.838c0.225-0.372,0.468-0.63,0.728-0.774s0.545-0.215,0.855-0.215
		c0.249,0,0.442,0.046,0.582,0.139v1.199c-0.078-0.031-0.167-0.053-0.268-0.064c-0.102-0.012-0.202-0.018-0.303-0.018
		c-0.217,0-0.423,0.037-0.617,0.11c-0.194,0.074-0.362,0.198-0.506,0.373c-0.144,0.175-0.258,0.408-0.343,0.698
		c-0.085,0.291-0.128,0.658-0.128,1.1v1.851H15.649z"/>
	<path d="M25.541,5.691c0,0.349-0.06,0.689-0.18,1.019s-0.303,0.623-0.546,0.878c-0.246,0.256-0.55,0.459-0.914,0.612
		c-0.366,0.15-0.788,0.227-1.27,0.227c-0.48,0-0.902-0.076-1.263-0.227c-0.359-0.152-0.663-0.355-0.908-0.612
		c-0.244-0.255-0.427-0.549-0.547-0.878c-0.121-0.33-0.181-0.669-0.181-1.019s0.06-0.688,0.181-1.019
		c0.12-0.33,0.303-0.622,0.547-0.879c0.245-0.256,0.548-0.461,0.908-0.616c0.36-0.155,0.782-0.233,1.263-0.233
		c0.481,0,0.903,0.078,1.27,0.233c0.364,0.155,0.668,0.36,0.914,0.616c0.243,0.257,0.426,0.549,0.546,0.879
		C25.481,5.003,25.541,5.342,25.541,5.691z M22.632,7.309c0.451,0,0.787-0.147,1.012-0.442c0.227-0.295,0.339-0.683,0.339-1.164
		c0-0.481-0.112-0.875-0.339-1.182c-0.225-0.306-0.561-0.459-1.012-0.459c-0.449,0-0.786,0.153-1.013,0.459
		c-0.225,0.307-0.337,0.701-0.337,1.182c0,0.481,0.112,0.869,0.337,1.164C21.846,7.162,22.183,7.309,22.632,7.309z"/>
	<path d="M25.892,9.521c0.03,0.008,0.062,0.012,0.093,0.012c0.248,0,0.408-0.088,0.482-0.262c0.073-0.175,0.109-0.472,0.109-0.891
		V3.096h1.468v5.168c0,0.341-0.035,0.653-0.104,0.938c-0.069,0.282-0.178,0.527-0.325,0.732c-0.149,0.206-0.339,0.367-0.571,0.483
		s-0.513,0.175-0.838,0.175c-0.055,0-0.108,0-0.163,0c-0.054,0-0.104-0.008-0.15-0.023V9.521z M26.576,1.828V0.008h1.468v1.819
		H26.576z"/>
</g>
<path d="M29.082,0.008v10.564h10.563V0.008H29.082z M34.465,9.076c-2.034,0-3.684-1.649-3.684-3.684s1.649-3.684,3.684-3.684
	c2.035,0,3.684,1.649,3.684,3.684S36.5,9.076,34.465,9.076z"/>
<g>
	<path d="M9.409,11.632l-0.337,1.273c-0.03,0.114-0.092,0.343-0.092,0.43c0,0.051,0.019,0.092,0.082,0.092
		c0.104,0,0.239-0.201,0.346-0.448l0.06,0.027c-0.079,0.203-0.226,0.497-0.427,0.497c-0.116,0-0.207-0.095-0.207-0.252
		c0-0.022,0.003-0.047,0.006-0.071l-0.006-0.006c-0.054,0.117-0.255,0.329-0.47,0.329c-0.258,0-0.378-0.252-0.378-0.486
		c0-0.46,0.364-0.856,0.733-0.856c0.191,0,0.267,0.125,0.294,0.261h0.005l0.084-0.302c0.019-0.07,0.079-0.259,0.079-0.331
		c0-0.057-0.036-0.085-0.188-0.085l0.019-0.071H9.409z M8.713,12.23c-0.353,0-0.56,0.62-0.56,0.854c0,0.21,0.06,0.349,0.228,0.349
		c0.326,0,0.571-0.565,0.571-0.873C8.952,12.361,8.882,12.23,8.713,12.23z"/>
	<path d="M9.787,12.916c-0.016,0.06-0.033,0.125-0.033,0.226c0,0.182,0.103,0.291,0.274,0.291c0.258,0,0.443-0.229,0.552-0.46
		l0.054,0.03c-0.092,0.259-0.337,0.5-0.601,0.5c-0.286,0-0.438-0.201-0.449-0.494c-0.016-0.463,0.44-0.84,0.846-0.849
		c0.168-0.002,0.313,0.07,0.313,0.255C10.744,12.802,10.146,12.905,9.787,12.916z M10.394,12.23c-0.291,0-0.52,0.294-0.596,0.614
		c0.462-0.006,0.772-0.157,0.777-0.413C10.578,12.301,10.526,12.23,10.394,12.23z"/>
	<path d="M11.53,12.16c0.272,0,0.354,0.149,0.354,0.226c0,0.073-0.043,0.136-0.123,0.136c-0.054,0-0.106-0.026-0.106-0.087
		c0-0.101,0.104-0.081,0.104-0.104c0-0.075-0.177-0.101-0.229-0.101c-0.147,0-0.323,0.07-0.323,0.251c0,0.293,0.59,0.233,0.59,0.605
		c0,0.307-0.351,0.416-0.558,0.416c-0.182,0-0.399-0.073-0.399-0.288c0-0.081,0.044-0.147,0.133-0.147
		c0.057,0,0.108,0.03,0.108,0.093c0,0.119-0.133,0.074-0.133,0.128c0,0.049,0.087,0.145,0.294,0.145
		c0.195,0,0.375-0.101,0.375-0.291c0-0.277-0.579-0.253-0.579-0.606C11.038,12.296,11.239,12.16,11.53,12.16z"/>
	<path d="M14.085,12.192l-0.367,1.349c-0.082,0.299-0.329,0.43-0.712,0.43c-0.199,0-0.351-0.093-0.351-0.209
		c0-0.065,0.043-0.12,0.122-0.12c0.071,0,0.106,0.038,0.106,0.093c0,0.038-0.049,0.043-0.049,0.089c0,0.044,0.071,0.077,0.19,0.077
		c0.259,0,0.468-0.109,0.544-0.393l0.076-0.282l-0.005-0.005c-0.103,0.105-0.22,0.282-0.454,0.282c-0.209,0-0.378-0.163-0.378-0.5
		c0-0.479,0.424-0.843,0.715-0.843c0.188,0,0.283,0.133,0.31,0.313h0.005l0.076-0.28H14.085z M13.52,12.23
		c-0.245,0-0.544,0.468-0.544,0.908c0,0.166,0.052,0.294,0.226,0.294c0.348,0,0.571-0.552,0.571-0.846
		C13.773,12.415,13.716,12.23,13.52,12.23z"/>
	<path d="M14.42,12.916c-0.017,0.06-0.033,0.125-0.033,0.226c0,0.182,0.104,0.291,0.274,0.291c0.259,0,0.443-0.229,0.552-0.46
		l0.054,0.03c-0.092,0.259-0.337,0.5-0.601,0.5c-0.286,0-0.438-0.201-0.449-0.494c-0.016-0.463,0.44-0.84,0.846-0.849
		c0.168-0.002,0.313,0.07,0.313,0.255C15.377,12.802,14.779,12.905,14.42,12.916z M15.026,12.23c-0.291,0-0.519,0.294-0.595,0.614
		c0.462-0.006,0.771-0.157,0.777-0.413C15.211,12.301,15.159,12.23,15.026,12.23z"/>
	<path d="M15.448,12.627c0.071-0.206,0.223-0.467,0.438-0.467c0.152,0,0.212,0.101,0.212,0.274c0,0.101-0.017,0.198-0.033,0.291
		l0.006,0.005c0.127-0.223,0.329-0.57,0.611-0.57c0.188,0,0.259,0.101,0.259,0.247c0,0.226-0.321,0.774-0.321,0.911
		c0,0.073,0.057,0.114,0.117,0.114c0.106,0,0.261-0.134,0.389-0.463l0.054,0.025c-0.111,0.31-0.269,0.508-0.478,0.508
		c-0.109,0-0.218-0.104-0.218-0.277c0-0.25,0.321-0.699,0.321-0.881c0-0.081-0.024-0.114-0.141-0.114
		c-0.315,0-0.634,0.642-0.75,1.063l-0.049,0.177h-0.169l0.267-0.986c0.01-0.042,0.021-0.091,0.021-0.134
		c0-0.076-0.038-0.12-0.109-0.12c-0.171,0-0.296,0.234-0.358,0.413L15.448,12.627z"/>
	<path d="M17.925,12.16c0.272,0,0.354,0.149,0.354,0.226c0,0.073-0.044,0.136-0.123,0.136c-0.055,0-0.106-0.026-0.106-0.087
		c0-0.101,0.104-0.081,0.104-0.104c0-0.075-0.176-0.101-0.228-0.101c-0.147,0-0.324,0.07-0.324,0.251c0,0.293,0.59,0.233,0.59,0.605
		c0,0.307-0.351,0.416-0.558,0.416c-0.182,0-0.4-0.073-0.4-0.288c0-0.081,0.043-0.147,0.134-0.147c0.057,0,0.108,0.03,0.108,0.093
		c0,0.119-0.133,0.074-0.133,0.128c0,0.049,0.087,0.145,0.294,0.145c0.195,0,0.375-0.101,0.375-0.291
		c0-0.277-0.579-0.253-0.579-0.606C17.433,12.296,17.634,12.16,17.925,12.16z"/>
	<path d="M20.638,11.632l-0.337,1.273c-0.03,0.114-0.092,0.343-0.092,0.43c0,0.051,0.019,0.092,0.082,0.092
		c0.103,0,0.239-0.201,0.345-0.448l0.06,0.027c-0.079,0.203-0.226,0.497-0.427,0.497c-0.117,0-0.207-0.095-0.207-0.252
		c0-0.022,0.003-0.047,0.005-0.071l-0.005-0.006c-0.054,0.117-0.255,0.329-0.47,0.329c-0.258,0-0.378-0.252-0.378-0.486
		c0-0.46,0.364-0.856,0.734-0.856c0.19,0,0.267,0.125,0.294,0.261h0.005l0.084-0.302c0.019-0.07,0.079-0.259,0.079-0.331
		c0-0.057-0.035-0.085-0.188-0.085l0.02-0.071H20.638z M19.942,12.23c-0.354,0-0.56,0.62-0.56,0.854c0,0.21,0.06,0.349,0.229,0.349
		c0.326,0,0.57-0.565,0.57-0.873C20.181,12.361,20.11,12.23,19.942,12.23z"/>
	<path d="M21.905,12.192h0.165L21.869,13c-0.041,0.163-0.072,0.269-0.072,0.323c0,0.057,0.029,0.109,0.095,0.109
		c0.092,0,0.217-0.18,0.318-0.454l0.06,0.027c-0.067,0.176-0.182,0.497-0.404,0.497c-0.165,0-0.205-0.131-0.205-0.305l-0.008-0.005
		c-0.108,0.155-0.244,0.31-0.463,0.31c-0.279,0-0.38-0.234-0.38-0.494c0-0.52,0.465-0.849,0.719-0.849
		c0.186,0,0.263,0.157,0.298,0.313h0.006L21.905,12.192z M20.979,13.145c0,0.151,0.073,0.288,0.225,0.288
		c0.355,0,0.558-0.561,0.558-0.821c0-0.196-0.055-0.381-0.232-0.381C21.243,12.23,20.979,12.753,20.979,13.145z"/>
	<path d="M22.297,12.627c0.071-0.206,0.223-0.467,0.438-0.467c0.152,0,0.213,0.101,0.213,0.274c0,0.101-0.018,0.198-0.033,0.291
		l0.006,0.005c0.128-0.223,0.329-0.57,0.611-0.57c0.188,0,0.258,0.101,0.258,0.247c0,0.226-0.321,0.774-0.321,0.911
		c0,0.073,0.058,0.114,0.118,0.114c0.104,0,0.262-0.134,0.389-0.463l0.055,0.025c-0.112,0.31-0.27,0.508-0.48,0.508
		c-0.108,0-0.217-0.104-0.217-0.277c0-0.25,0.321-0.699,0.321-0.881c0-0.081-0.024-0.114-0.141-0.114
		c-0.316,0-0.634,0.642-0.752,1.063l-0.048,0.177h-0.169l0.266-0.986c0.012-0.042,0.023-0.091,0.023-0.134
		c0-0.076-0.039-0.12-0.108-0.12c-0.173,0-0.296,0.234-0.36,0.413L22.297,12.627z"/>
	<path d="M24.774,12.16c0.271,0,0.353,0.149,0.353,0.226c0,0.073-0.043,0.136-0.122,0.136c-0.055,0-0.106-0.026-0.106-0.087
		c0-0.101,0.104-0.081,0.104-0.104c0-0.075-0.178-0.101-0.229-0.101c-0.147,0-0.325,0.07-0.325,0.251
		c0,0.293,0.591,0.233,0.591,0.605c0,0.307-0.351,0.416-0.558,0.416c-0.183,0-0.399-0.073-0.399-0.288
		c0-0.081,0.043-0.147,0.134-0.147c0.057,0,0.108,0.03,0.108,0.093c0,0.119-0.134,0.074-0.134,0.128
		c0,0.049,0.088,0.145,0.295,0.145c0.195,0,0.373-0.101,0.373-0.291c0-0.277-0.578-0.253-0.578-0.606
		C24.281,12.296,24.482,12.16,24.774,12.16z"/>
	<path d="M26.672,11.632l-0.287,1.148c-0.083,0.337-0.132,0.499-0.132,0.563c0,0.057,0.037,0.09,0.084,0.09
		c0.095,0,0.247-0.158,0.331-0.436l0.058,0.017c-0.108,0.366-0.267,0.489-0.43,0.489c-0.097,0-0.18-0.087-0.18-0.239
		c0-0.099,0.02-0.19,0.046-0.302l0.223-0.878c0.025-0.101,0.064-0.25,0.064-0.294c0-0.059-0.037-0.087-0.183-0.087l0.018-0.071
		H26.672z"/>
	<path d="M27.947,12.192h0.164L27.91,13c-0.04,0.163-0.073,0.269-0.073,0.323c0,0.057,0.031,0.109,0.097,0.109
		c0.091,0,0.217-0.18,0.317-0.454l0.061,0.027c-0.068,0.176-0.183,0.497-0.405,0.497c-0.164,0-0.205-0.131-0.205-0.305l-0.008-0.005
		c-0.108,0.155-0.244,0.31-0.462,0.31c-0.279,0-0.38-0.234-0.38-0.494c0-0.52,0.465-0.849,0.716-0.849
		c0.188,0,0.266,0.157,0.301,0.313h0.006L27.947,12.192z M27.02,13.145c0,0.151,0.074,0.288,0.225,0.288
		c0.356,0,0.558-0.561,0.558-0.821c0-0.196-0.054-0.381-0.234-0.381C27.285,12.23,27.02,12.753,27.02,13.145z"/>
	<path d="M28.978,13.471l0.019-0.071c0.11,0,0.217-0.024,0.248-0.128l0.351-1.242c0.037-0.13,0.067-0.223,0.067-0.28
		c0-0.067-0.101-0.078-0.201-0.078l0.02-0.07h0.459l0.114,1.554h0.006l0.937-1.554h0.475l-0.02,0.07c-0.142,0-0.23,0.005-0.27,0.146
		l-0.267,1.021c-0.063,0.24-0.116,0.414-0.116,0.469c0,0.064,0.089,0.092,0.195,0.092l-0.02,0.071h-0.662l0.018-0.071
		c0.114,0,0.246-0.014,0.279-0.136l0.385-1.501h-0.006l-1.019,1.708h-0.077l-0.124-1.745h-0.01l-0.217,0.817
		c-0.075,0.285-0.195,0.694-0.195,0.765c0,0.055,0.055,0.086,0.242,0.092l-0.02,0.071H28.978z"/>
	<path d="M32.837,12.192l-0.244,0.919c-0.013,0.054-0.046,0.152-0.046,0.212c0,0.063,0.016,0.109,0.087,0.109
		c0.108,0,0.264-0.21,0.343-0.46l0.06,0.02c-0.099,0.323-0.282,0.511-0.43,0.511c-0.141,0-0.195-0.131-0.195-0.255
		c0-0.063,0.01-0.128,0.016-0.191l-0.006-0.006c-0.178,0.272-0.317,0.452-0.556,0.452c-0.184,0-0.278-0.125-0.278-0.299
		c0-0.27,0.28-0.669,0.28-0.84c0-0.09-0.043-0.134-0.114-0.134c-0.136,0-0.213,0.153-0.337,0.405l-0.06-0.027
		c0.099-0.198,0.189-0.448,0.416-0.448c0.149,0,0.23,0.114,0.23,0.282c0,0.268-0.279,0.669-0.279,0.832
		c0,0.111,0.057,0.158,0.151,0.158c0.296,0,0.558-0.5,0.605-0.658l0.187-0.582H32.837z"/>
	<path d="M33.787,12.16c0.271,0,0.353,0.149,0.353,0.226c0,0.073-0.042,0.136-0.122,0.136c-0.054,0-0.106-0.026-0.106-0.087
		c0-0.101,0.104-0.081,0.104-0.104c0-0.075-0.178-0.101-0.229-0.101c-0.146,0-0.325,0.07-0.325,0.251
		c0,0.293,0.591,0.233,0.591,0.605c0,0.307-0.351,0.416-0.558,0.416c-0.182,0-0.398-0.073-0.398-0.288
		c0-0.081,0.042-0.147,0.134-0.147c0.056,0,0.108,0.03,0.108,0.093c0,0.119-0.134,0.074-0.134,0.128
		c0,0.049,0.087,0.145,0.294,0.145c0.195,0,0.374-0.101,0.374-0.291c0-0.277-0.579-0.253-0.579-0.606
		C33.294,12.296,33.495,12.16,33.787,12.16z"/>
	<path d="M35.195,12.995c-0.11,0.31-0.27,0.508-0.479,0.508c-0.108,0-0.217-0.104-0.217-0.277c0-0.25,0.319-0.699,0.319-0.881
		c0-0.081-0.023-0.114-0.103-0.114c-0.101,0-0.217,0.09-0.364,0.436l-0.063-0.02c0.101-0.274,0.248-0.486,0.457-0.486
		c0.139,0,0.211,0.101,0.211,0.247c0,0.226-0.321,0.774-0.321,0.911c0,0.073,0.056,0.114,0.116,0.114
		c0.106,0,0.261-0.134,0.389-0.463L35.195,12.995z M34.993,11.601c0.068,0,0.122,0.054,0.122,0.122c0,0.067-0.056,0.122-0.122,0.122
		c-0.067,0-0.122-0.052-0.122-0.122C34.871,11.651,34.924,11.601,34.993,11.601z"/>
	<path d="M35.642,13.938l0.018-0.07c0.118,0,0.283-0.014,0.329-0.171l0.134-0.443l-0.006-0.005
		c-0.108,0.141-0.242,0.255-0.434,0.255c-0.193,0-0.383-0.157-0.383-0.494c0-0.387,0.385-0.849,0.761-0.849
		c0.182,0,0.237,0.06,0.323,0.215l0.162-0.183h0.055l-0.305,1.082c-0.067,0.239-0.127,0.408-0.127,0.484
		c0,0.098,0.116,0.108,0.223,0.108l-0.02,0.07H35.642z M36.043,12.23c-0.315,0-0.575,0.637-0.575,0.903
		c0,0.206,0.06,0.299,0.223,0.299c0.406,0,0.607-0.664,0.607-0.914C36.298,12.337,36.236,12.23,36.043,12.23z"/>
	<path d="M38.174,12.192l-0.244,0.919c-0.013,0.054-0.046,0.152-0.046,0.212c0,0.063,0.018,0.109,0.087,0.109
		c0.108,0,0.264-0.21,0.343-0.46l0.06,0.02c-0.099,0.323-0.282,0.511-0.43,0.511c-0.141,0-0.195-0.131-0.195-0.255
		c0-0.063,0.012-0.128,0.016-0.191l-0.004-0.006c-0.18,0.272-0.319,0.452-0.558,0.452c-0.182,0-0.278-0.125-0.278-0.299
		c0-0.27,0.28-0.669,0.28-0.84c0-0.09-0.042-0.134-0.114-0.134c-0.136,0-0.213,0.153-0.337,0.405l-0.06-0.027
		c0.099-0.198,0.189-0.448,0.416-0.448c0.149,0,0.23,0.114,0.23,0.282c0,0.268-0.279,0.669-0.279,0.832
		c0,0.111,0.057,0.158,0.151,0.158c0.296,0,0.558-0.5,0.606-0.658l0.186-0.582H38.174z"/>
	<path d="M38.689,12.916c-0.016,0.06-0.033,0.125-0.033,0.226c0,0.182,0.103,0.291,0.274,0.291c0.258,0,0.443-0.229,0.552-0.46
		l0.055,0.03c-0.093,0.259-0.337,0.5-0.601,0.5c-0.286,0-0.438-0.201-0.449-0.494c-0.015-0.463,0.441-0.84,0.847-0.849
		c0.168-0.002,0.312,0.07,0.312,0.255C39.646,12.802,39.047,12.905,38.689,12.916z M39.295,12.23c-0.29,0-0.519,0.294-0.595,0.614
		c0.461-0.006,0.771-0.157,0.776-0.413C39.48,12.301,39.429,12.23,39.295,12.23z"/>
</g>
</svg>
