<svg xmlns="http://www.w3.org/2000/svg" width="60" height="115" viewBox="0 -22.5 60 115" enable-background="new 0 -22.5 60 115"><circle fill="#fff" stroke="#E63126" stroke-width=".5" stroke-miterlimit="10" cx="30.279" cy="11.155" r="28.721"/><path stroke="#010202" stroke-width=".25" stroke-miterlimit="10" d="M16.705 13.416c.697 1.208 2.213 2.483 3.958 1.861 3.767-1.274 3.809-9.583-.003-10.866-.374-.126-1.083-.132-1.515-.06-3.223.547-4.132 6.115-2.456 9.071l.016-.006zm19.698-9.645c1.131-1.185 2.164-2.563 4.647-2.27.883.135 1.745.603 2.347 1.14 2.066 1.745 3.087 5.5 2.617 8.832-.43 3.222-2.259 6.357-4.994 6.686-1.789.217-2.759-.499-3.66-1.22-.789 5.681-2.333 10.608-4.412 14.996-.257.828-1.87 3.785-2.613 3.836-.751.05-2.407-3.016-2.732-3.777-2.006-4.461-3.701-9.238-4.365-15.048-.971.631-1.74 1.433-3.658 1.222-2.795-.309-4.626-3.442-5.058-6.682-.416-3.366.626-7.056 2.638-8.811.575-.495 1.482-1.052 2.325-1.163 2.461-.332 3.622 1.006 4.628 2.28 1.261-1.387 2.877-2.723 5.23-3.022 3.35-.431 5.59 1.313 7.066 3.003h-.006v-.002zm1.513 9.645c.698 1.208 2.213 2.483 3.957 1.86 3.767-1.274 3.809-9.584-.004-10.869-.373-.125-1.083-.131-1.515-.056-3.223.547-4.146 6.115-2.47 9.064l.032.001z" fill="none"/><path d="M29.682.137"/><path fill="#010202" d="M37.906 13.431c.696 1.208 2.213 2.483 3.957 1.86 3.767-1.272 3.808-9.583-.006-10.865-.373-.126-1.079-.134-1.513-.062-3.221.534-4.137 6.102-2.458 9.066l.02.001z"/><path fill="#010202" d="M16.697 13.406c.698 1.208 2.213 2.48 3.957 1.857 3.768-1.271 3.81-9.583-.003-10.864-.373-.127-1.081-.134-1.513-.061-3.223.558-4.125 6.126-2.448 9.066l.007.002z"/><path fill="#010202" d="M19.799-13.459l-.024.033c5.831 2.08 10.194 5.97 9.995 13.916l1.133-.061c-.548-7.805-4.889-11.763-11.127-13.887h.023z"/><path fill="#010202" d="M28.206 17.123c0 .325-.265.596-.595.596-.327 0-.594-.267-.594-.596 0-.327.267-.597.593-.597.332-.024.616.245.616.597h-.02z"/><circle fill="#010202" cx="32.652" cy="17.106" r=".603"/><g fill="#010202"><rect x="22.593" y="30.858" width="4.091" height=".401"/><rect x="22.535" y="32.43" transform="matrix(-.924 .383 -.383 -.924 60.359 53.256)" width="4.695" height=".403"/><rect x="33.861" y="30.858" width="4.091" height=".401"/><rect x="33.328" y="32.396" transform="matrix(.924 .382 -.382 .924 15.177 -11.165)" width="4.694" height=".402"/></g><path fill="#fff" d="M30.278 52.5c-11.045 0-19.999 8.955-19.999 20 0 11.046 8.954 20 19.999 20s20.001-8.954 20.001-20c0-11.045-8.956-20-20.001-20z"/><linearGradient id="a" gradientUnits="userSpaceOnUse" x1="30.279" y1="52.244" x2="30.279" y2="92.244"><stop offset="0" stop-color="#5D6AAA"/><stop offset="1" stop-color="#2A3877"/></linearGradient><path fill="url(#a)" d="M30.278 55.489c9.38 0 17.013 7.631 17.013 17.011 0 9.379-7.633 17.013-17.013 17.013-9.379 0-17.011-7.634-17.011-17.013.001-9.38 7.632-17.011 17.011-17.011m0-2.989c-11.045 0-19.999 8.955-19.999 20 0 11.046 8.954 20 19.999 20s20.001-8.954 20.001-20c0-11.045-8.956-20-20.001-20z"/><linearGradient id="b" gradientUnits="userSpaceOnUse" x1="30.278" y1="52.245" x2="30.278" y2="92.217"><stop offset="0" stop-color="#5D6AAA"/><stop offset="1" stop-color="#2A3877"/></linearGradient><path fill="url(#b)" d="M40.501 79.499l-2.479-14.612c-.325-1.81-1.52-2.079-2.202-2.079-1.1 0-1.754.474-2.065 1.496l-3.477 11.917-3.478-11.922c-.309-1.018-.964-1.491-2.063-1.491-.684 0-1.878.27-2.205 2.084l-2.476 14.604c-.085.48-.135.815-.135 1.1 0 .97.587 1.597 1.495 1.597 1.215 0 1.565-.739 1.645-1.354l1.843-12.702 3.797 12.822c.258.829.775 1.233 1.577 1.233.804 0 1.319-.404 1.579-1.24l3.797-12.815 1.841 12.694c.079.622.431 1.361 1.645 1.361.909 0 1.495-.627 1.495-1.597 0-.281-.049-.616-.134-1.096z"/></svg>