<svg xmlns="http://www.w3.org/2000/svg" width="50" height="40" viewBox="25 15.296 50 40" enable-background="new 25 15.296 50 40"><g><path fill="#fff" d="M34.48 25.537l.406.072v5.361l-.406-.096v-1.057c-.172.301-.391.521-.65.654s-.539.164-.844.092c-.254-.061-.488-.184-.707-.375-.217-.188-.404-.42-.566-.693-.16-.275-.287-.578-.379-.916-.092-.334-.137-.684-.137-1.045 0-.355.045-.686.137-.984.092-.301.219-.557.379-.764.162-.209.35-.363.566-.463.219-.102.453-.131.707-.088.305.055.584.201.844.443.26.244.479.549.65.916v-1.057zm0 2.658c0-.299-.039-.588-.117-.865-.08-.277-.188-.525-.32-.742-.131-.215-.289-.396-.469-.541s-.373-.236-.58-.273c-.201-.037-.391-.014-.57.064-.176.08-.33.201-.463.363-.129.16-.232.361-.307.604-.074.238-.111.504-.111.793 0 .287.037.568.111.842.072.275.176.521.307.744.133.223.287.412.463.566.18.156.369.258.57.303.201.047.393.033.572-.043.18-.074.34-.197.475-.365s.242-.375.322-.625c.078-.25.117-.526.117-.825z"/><path fill="#fff" d="M37.293 30.291l.148.277.219.279c.086.096.186.176.303.248.115.07.25.123.4.158.121.027.236.033.348.018.113-.016.215-.051.305-.109.092-.059.166-.145.219-.254.057-.111.084-.252.084-.416l-.029-.238c-.02-.096-.061-.203-.129-.314-.066-.111-.164-.221-.293-.332-.129-.107-.303-.207-.52-.297-.443-.174-.77-.426-.982-.756-.211-.328-.318-.68-.318-1.053 0-.191.029-.373.088-.545s.143-.32.254-.445c.111-.121.246-.215.4-.275.156-.063.332-.078.525-.043.211.037.393.105.541.205.148.102.27.211.363.328.094.119.166.23.211.338l.098.23-.299.215c-.113-.223-.246-.393-.406-.512-.158-.117-.322-.193-.492-.223-.189-.033-.342-.021-.461.033-.117.057-.209.131-.273.223s-.107.188-.127.291l-.033.242.027.236c.02.1.061.205.125.313s.156.217.277.324c.121.111.285.199.49.271.309.115.557.258.738.43s.32.348.416.525c.094.178.156.35.184.514l.041.393c0 .25-.041.465-.121.643s-.184.318-.309.42c-.125.104-.266.172-.426.205-.16.035-.314.031-.469-.004-.248-.059-.461-.158-.639-.301-.176-.141-.32-.283-.432-.432-.111-.146-.195-.275-.25-.393l-.082-.184.286-.233z"/><path fill="#fff" d="M40.197 29.375c0-.402.057-.77.172-1.1.113-.332.268-.611.465-.838.199-.229.432-.396.699-.502.268-.107.557-.135.871-.082.314.055.613.186.893.391.281.207.529.465.74.775s.381.664.504 1.057c.123.395.186.801.186 1.225 0 .422-.063.803-.186 1.143-.123.338-.293.619-.504.844-.211.223-.459.381-.74.475-.279.09-.578.1-.893.023-.314-.074-.604-.219-.871-.436-.268-.215-.5-.479-.699-.787-.197-.309-.352-.648-.465-1.023-.115-.376-.172-.763-.172-1.165zm4.047.803c0-.332-.049-.656-.146-.973-.1-.316-.23-.598-.396-.846-.164-.246-.355-.453-.576-.623-.219-.168-.457-.275-.711-.322-.25-.043-.482-.021-.699.068-.215.086-.402.221-.561.402-.16.182-.283.406-.375.676s-.139.563-.139.883.047.635.139.945c.09.309.215.592.375.844.158.254.346.469.561.646.217.176.449.293.699.35.25.059.484.047.707-.031s.418-.211.586-.396c.168-.189.299-.424.395-.701.092-.284.141-.59.141-.922z"/><path fill="#fff" d="M48.934 34.275l-.506-.119v-.854c-.055.111-.129.207-.227.287-.098.082-.203.145-.318.191-.117.047-.242.078-.373.092s-.256.008-.375-.02c-.24-.059-.467-.162-.678-.318-.209-.154-.389-.342-.541-.563-.154-.221-.273-.467-.357-.738-.086-.271-.129-.557-.129-.854v-3.943l.516.088v3.967c0 .217.029.426.09.625s.145.377.25.535c.105.156.232.287.377.395.146.105.305.178.473.217.18.041.344.043.494.004.152-.039.285-.115.398-.225s.201-.254.266-.43c.063-.176.096-.377.096-.6v-4.064l.545.094v6.233h-.001z"/><path fill="#fff" d="M52.965 29.781c-.066-.09-.146-.174-.242-.252-.094-.078-.189-.143-.289-.195l-.287-.129-.236-.066c-.188-.035-.363-.025-.527.027-.164.051-.305.139-.424.266-.121.127-.213.281-.279.461-.068.184-.1.387-.1.615v4.156l-.566-.133v-6.299l.566.098v.799c.055-.092.129-.178.225-.258.098-.08.203-.148.324-.205.119-.055.248-.092.383-.111.137-.018.268-.016.398.006.26.045.508.146.748.303.24.16.451.352.627.574l-.321.343z"/><path fill="#fff" d="M54.207 26.336l.83.123v.965l-.83-.131v-.957zm.715 9.35l-.613-.145v-6.564l.613.107v6.602z"/><path fill="#fff" d="M56.582 34.561c.057.109.127.225.221.344.09.119.199.238.324.355.125.119.275.225.447.32.174.092.371.166.598.216.178.043.35.057.518.045.166-.012.32-.05.453-.117.139-.066.248-.164.328-.297.082-.135.125-.301.125-.504l-.043-.291c-.029-.121-.094-.252-.193-.393s-.246-.281-.436-.422c-.193-.141-.453-.273-.775-.395-.658-.236-1.143-.561-1.461-.975-.313-.41-.469-.844-.469-1.297 0-.232.041-.451.129-.658.086-.207.211-.383.377-.527.166-.146.363-.254.594-.32s.49-.076.781-.025c.314.055.582.146.805.275.221.131.402.27.541.42.141.148.248.289.318.42l.145.291-.449.246c-.166-.277-.365-.492-.605-.645-.236-.152-.479-.252-.729-.297-.283-.051-.514-.045-.689.02-.174.064-.309.148-.404.256-.096.109-.158.225-.189.348l-.047.295.043.289c.027.123.088.25.184.385.094.137.23.273.41.412.178.139.422.258.729.355.461.158.83.346 1.1.564.271.223.48.443.623.666.141.225.232.438.275.641.041.203.063.363.063.484 0 .305-.059.564-.184.777-.121.213-.273.379-.459.496s-.4.191-.637.223c-.24.031-.471.02-.697-.033-.371-.088-.688-.223-.949-.406s-.477-.367-.641-.554c-.166-.186-.287-.35-.369-.492l-.123-.229.417-.266z"/><path fill="#CABB9D" d="M30.592 32.699c0-.373-.059-.693-.174-.961s-.303-.432-.561-.498c-.268-.068-.459 0-.58.205-.121.201-.182.49-.182.863 0 .152.021.313.061.48.039.166.088.33.15.488l.141.34.287.652c.121.273.277.607.465.996.188.393.414.855.678 1.386.078-.254.117-.652.117-1.191l.297.088c0 .289-.016.576-.045.861-.031.285-.078.518-.143.695l.416.885-.264.242-.344-.74c-.264.363-.629.467-1.09.313-.203-.068-.395-.189-.572-.365s-.332-.385-.461-.627c-.131-.24-.232-.506-.309-.801-.076-.294-.113-.589-.113-.894 0-.186.018-.365.053-.535.035-.172.08-.332.139-.48s.127-.281.207-.396c.08-.117.168-.213.264-.285-.074-.174-.133-.361-.18-.559-.045-.199-.066-.402-.066-.607 0-.246.021-.471.066-.67.047-.203.115-.367.203-.498.09-.131.199-.225.332-.283.133-.057.285-.064.459-.021.326.08.58.299.764.652.184.357.277.807.277 1.344l-.292-.079zm-1.371 1.147c-.193.178-.326.371-.4.586-.076.213-.115.477-.115.787 0 .24.029.475.084.699.057.229.135.436.234.623.102.191.221.354.359.488.139.137.287.23.447.283.17.055.33.055.48 0 .15-.057.279-.156.383-.299l-1.472-3.167z"/><path fill="#fff" d="M37.488 39.792v.574l-3.016-1.006.006-.553v-6.917l.404.1v6.951l2.598.85.008.001z"/><path fill="#fff" d="M30.969 29.708v.37l-2.6-.425.006-.358-.057-9.799h.385l.021 9.854 2.236.356.009.002z"/><path fill="#fff" d="M41.738 40.248c-.111.264-.26.482-.445.654-.156.146-.355.262-.598.34-.244.08-.537.063-.881-.053-.295-.1-.572-.266-.832-.504-.258-.234-.48-.512-.668-.834-.188-.318-.334-.668-.441-1.047s-.16-.762-.16-1.152c0-.385.051-.732.152-1.047s.242-.572.426-.775c.18-.203.393-.345.637-.427.246-.082.512-.084.795-.008.287.076.557.227.809.449.252.221.479.492.672.811s.348.674.461 1.061.172.783.172 1.184l-3.721-1.125c0 .311.043.621.131.93.086.311.205.598.357.855.152.264.334.49.541.68.207.191.428.326.662.404.338.111.645.094.922-.053s.492-.391.643-.736l.366.393zm-.392-2.061c-.045-.268-.119-.523-.217-.771s-.219-.471-.361-.672-.303-.371-.479-.512-.361-.238-.559-.291c-.193-.055-.377-.061-.549-.018s-.326.123-.463.24c-.137.119-.252.27-.348.455-.096.184-.164.393-.207.623l3.183.946z"/><path fill="#fff" d="M49.924 35.876l.764.188v.926l-.764-.193v-.921zm.66 8.864l-.566-.189v-6.297l.566.152v6.334z"/><path fill="#fff" d="M56.711 40.072l.641.174v6.752l-.641-.213v-1.328c-.273.34-.613.563-1.025.672-.408.107-.852.082-1.326-.078-.398-.131-.768-.34-1.107-.629-.338-.285-.633-.617-.883-.996-.252-.377-.445-.783-.59-1.225-.143-.436-.213-.879-.213-1.33 0-.445.07-.844.213-1.199.145-.355.34-.646.59-.873s.545-.379.883-.461c.34-.08.709-.066 1.107.041.475.129.918.373 1.326.732.41.361.752.793 1.025 1.291v-1.33zm0 3.344c0-.377-.063-.748-.186-1.115-.125-.369-.295-.703-.504-1.002s-.455-.561-.74-.781c-.283-.219-.586-.375-.912-.465-.314-.09-.611-.102-.891-.039-.277.061-.518.178-.723.354-.201.174-.363.404-.479.688-.117.283-.174.605-.174.965s.057.717.174 1.076c.115.359.277.691.479.998.205.307.445.576.723.809.277.236.576.406.891.508.318.104.617.129.902.078.281-.055.531-.17.744-.352.213-.18.385-.418.508-.713.125-.297.188-.634.188-1.009z"/><path fill="#fff" d="M59.381 47.673l-.664-.221v-6.838l.664.184v.865c.064-.092.154-.174.27-.248.109-.076.236-.135.377-.18.145-.043.295-.066.453-.07.162-.002.316.016.471.059.314.084.613.229.893.426.283.199.531.436.742.713.217.275.387.582.516.916.127.336.191.68.191 1.029v4.674l-.711-.238v-4.643c0-.252-.045-.498-.127-.736-.08-.234-.197-.453-.344-.648-.148-.197-.32-.365-.52-.512-.199-.145-.41-.246-.641-.309-.219-.064-.428-.076-.621-.043-.191.035-.361.107-.502.219s-.25.26-.33.445c-.076.182-.117.398-.117.645v4.511z"/><path fill="#fff" d="M64.328 45.736c0-.51.09-.959.27-1.352.184-.396.432-.715.748-.959s.688-.406 1.117-.482c.43-.078.898-.049 1.406.088.506.137.988.367 1.441.691.459.326.861.711 1.205 1.154.344.445.619.936.822 1.465.203.531.305 1.07.305 1.609s-.102 1.012-.305 1.416c-.203.4-.477.721-.822.959-.344.234-.744.377-1.205.426-.453.049-.936-.014-1.441-.184-.508-.168-.977-.424-1.406-.762s-.801-.725-1.117-1.162c-.316-.434-.566-.902-.748-1.402-.18-.495-.27-.997-.27-1.505zm6.526 1.945c0-.426-.082-.852-.244-1.277-.158-.426-.371-.813-.639-1.168-.268-.35-.58-.66-.938-.924-.354-.264-.74-.451-1.152-.564-.402-.111-.775-.137-1.123-.07-.348.063-.648.193-.904.387-.252.195-.451.451-.598.771-.148.318-.221.68-.221 1.086 0 .404.072.813.221 1.225.146.414.346.797.598 1.156.256.359.557.676.904.949.348.275.721.479 1.123.611.402.131.787.176 1.145.129.361-.049.678-.17.951-.369s.486-.467.643-.801c.155-.336.234-.717.234-1.141z"/><path fill="#fff" d="M44.545 47.49l-.5-.189v-10.675l.5.137v1.18c.217-.32.492-.543.826-.674.334-.129.703-.139 1.109-.029.336.092.656.262.963.508.307.248.576.547.805.895.232.35.414.738.551 1.162.137.426.203.855.203 1.287 0 .441-.066.832-.203 1.174-.137.336-.318.611-.551.822-.229.209-.498.342-.805.406-.307.063-.627.035-.963-.076-.406-.137-.775-.373-1.109-.709-.334-.334-.609-.723-.826-1.166v5.947zm0-7.735c0 .332.049.662.148.988s.234.623.402.893c.17.271.371.508.605.713.236.205.492.355.77.445.271.092.529.107.773.059.248-.051.463-.158.648-.32.189-.162.336-.379.441-.652.105-.271.162-.582.162-.93 0-.346-.057-.691-.162-1.033-.105-.34-.254-.654-.441-.936-.186-.283-.4-.527-.648-.73-.244-.203-.502-.344-.773-.418-.271-.076-.525-.078-.758-.012-.236.066-.439.188-.613.365-.17.172-.307.395-.406.662-.099.272-.148.572-.148.906z"/></g></svg>