<svg xmlns="http://www.w3.org/2000/svg" width="50" height="75" viewBox="0 0 50 75"><path stroke="#010202" stroke-width=".25" stroke-miterlimit="10" d="M4.723 40.5c1.04 1.8 3.3 3.7 5.9 2.773 5.616-1.899 5.678-14.287-.005-16.199-.557-.188-1.613-.197-2.256-.089-4.805.815-6.162 9.115-3.662 13.523zm29.366-14.38c1.688-1.767 3.229-3.821 6.931-3.384 1.317.2 2.6.9 3.5 1.7 3.08 2.6 4.6 8.2 3.9 13.167-.638 4.803-3.369 9.477-7.445 9.967-2.666.32-4.113-.744-5.459-1.82-1.174 8.471-3.476 15.814-6.576 22.357-.383 1.233-2.788 5.646-3.895 5.719-1.12.072-3.59-4.496-4.075-5.633-2.992-6.65-5.518-13.772-6.508-22.435-1.448.94-2.595 2.138-5.453 1.824-4.167-.462-6.897-5.132-7.542-9.962-.62-5.02.933-10.52 3.933-13.137.858-.739 2.211-1.567 3.466-1.733 3.67-.494 5.4 1.5 6.9 3.4 1.882-2.068 4.289-4.059 7.796-4.508 4.997-.642 8.338 1.958 10.538 4.478zm2.257 14.38c1.041 1.8 3.3 3.7 5.9 2.771 5.615-1.899 5.677-14.286-.008-16.202-.553-.187-1.61-.197-2.254-.084-4.806.815-6.184 9.115-3.684 13.513z" fill="none"/><path d="M24.068 20.7"/><path fill="#010202" d="M36.331 40.521c1.039 1.8 3.3 3.7 5.9 2.771 5.615-1.897 5.676-14.286-.008-16.199-.557-.188-1.611-.197-2.254-.089-4.805.796-6.169 9.096-3.669 13.517z"/><path fill="#010202" d="M4.711 40.482c1.04 1.8 3.3 3.7 5.9 2.772 5.616-1.897 5.679-14.286-.005-16.198-.556-.189-1.613-.197-2.255-.089-4.806.833-6.151 9.133-3.651 13.515z"/><path fill="#010202" d="M9.338.432l-.038.049c8.691 3.1 15.2 8.9 14.9 20.746l1.689-.091c-.817-11.636-7.289-17.536-16.589-20.704z"/><path fill="#010202" d="M21.87 46.023c0 .485-.395.889-.887.889-.488 0-.886-.398-.886-.889 0-.486.397-.887.884-.887.495-.036.919.364.919.887z"/><circle fill="#010202" cx="28.5" cy="46" r=".9"/><g fill="#010202"><rect x="13.5" y="66.5" width="6.1" height=".6"/><rect x="13.4" y="68.8" transform="matrix(-.924 .383 -.383 -.924 58.979 126.509)" width="7" height=".6"/><rect x="30.3" y="66.5" width="6.1" height=".6"/><rect x="29.5" y="68.8" transform="matrix(.924 .382 -.382 .924 28.934 -7.37)" width="7" height=".6"/></g></svg>