<?xml version="1.0" encoding="utf-8"?>
<!-- Generator: Adobe Illustrator 15.1.0, SVG Export Plug-In . SVG Version: 6.00 Build 0)  -->
<!DOCTYPE svg PUBLIC "-//W3C//DTD SVG 1.1//EN" "http://www.w3.org/Graphics/SVG/1.1/DTD/svg11.dtd">
<svg version="1.1" id="Calque_1" xmlns="http://www.w3.org/2000/svg" xmlns:xlink="http://www.w3.org/1999/xlink" x="0px" y="0px"
	 width="60px" height="115px" viewBox="0 -22.5 60 115" enable-background="new 0 -22.5 60 115" xml:space="preserve">
<g>
	<circle fill="#FFFFFF" stroke="#E63126" stroke-width="0.5" stroke-miterlimit="10" cx="30.279" cy="11.155" r="28.721"/>
	<g>
		<path fill="none" stroke="#010202" stroke-width="0.25" stroke-miterlimit="10" d="M16.705,13.416
			c0.697,1.208,2.213,2.483,3.958,1.861c3.767-1.274,3.809-9.583-0.003-10.866c-0.374-0.126-1.083-0.132-1.515-0.06
			c-3.223,0.547-4.132,6.115-2.456,9.071L16.705,13.416z M36.403,3.771c1.131-1.185,2.164-2.563,4.647-2.27
			c0.883,0.135,1.745,0.603,2.347,1.14c2.066,1.745,3.087,5.5,2.617,8.832c-0.43,3.222-2.259,6.357-4.994,6.686
			c-1.789,0.217-2.759-0.499-3.66-1.22c-0.789,5.681-2.333,10.608-4.412,14.996c-0.257,0.828-1.87,3.785-2.613,3.836
			c-0.751,0.05-2.407-3.016-2.732-3.777c-2.006-4.461-3.701-9.238-4.365-15.048c-0.971,0.631-1.74,1.433-3.658,1.222
			c-2.795-0.309-4.626-3.442-5.058-6.682C14.106,8.12,15.148,4.43,17.16,2.675c0.575-0.495,1.482-1.052,2.325-1.163
			c2.461-0.332,3.622,1.006,4.628,2.28c1.261-1.387,2.877-2.723,5.23-3.022c3.35-0.431,5.59,1.313,7.066,3.003h-0.006V3.771z
			 M37.916,13.416c0.698,1.208,2.213,2.483,3.957,1.86c3.767-1.274,3.809-9.584-0.004-10.869c-0.373-0.125-1.083-0.131-1.515-0.056
			c-3.223,0.547-4.146,6.115-2.47,9.064L37.916,13.416L37.916,13.416z"/>
		<g>
			<path d="M29.682,0.137"/>
		</g>
		<path fill="#010202" d="M37.906,13.431c0.696,1.208,2.213,2.483,3.957,1.86c3.767-1.272,3.808-9.583-0.006-10.865
			c-0.373-0.126-1.079-0.134-1.513-0.062c-3.221,0.534-4.137,6.102-2.458,9.066L37.906,13.431L37.906,13.431z"/>
		<path fill="#010202" d="M16.697,13.406c0.698,1.208,2.213,2.48,3.957,1.857c3.768-1.271,3.81-9.583-0.003-10.864
			c-0.373-0.127-1.081-0.134-1.513-0.061c-3.223,0.558-4.125,6.126-2.448,9.066L16.697,13.406L16.697,13.406z"/>
		<path fill="#010202" d="M19.799-13.459c-0.005-0.021-0.024,0.045-0.024,0.033c5.831,2.08,10.194,5.97,9.995,13.916l1.133-0.061
			c-0.548-7.805-4.889-11.763-11.127-13.887H19.799z"/>
		<path fill="#010202" d="M28.206,17.123c0,0.325-0.265,0.596-0.595,0.596c-0.327,0-0.594-0.267-0.594-0.596
			c0-0.327,0.267-0.597,0.593-0.597c0.332-0.024,0.616,0.245,0.616,0.597H28.206z"/>
		<circle fill="#010202" cx="32.652" cy="17.106" r="0.603"/>
		<g>
			<rect x="22.593" y="30.858" fill="#010202" width="4.091" height="0.401"/>
			
				<rect x="22.535" y="32.43" transform="matrix(-0.9239 0.3827 -0.3827 -0.9239 60.3593 53.2561)" fill="#010202" width="4.695" height="0.403"/>
			<rect x="33.861" y="30.858" fill="#010202" width="4.091" height="0.401"/>
			
				<rect x="33.328" y="32.396" transform="matrix(0.924 0.3824 -0.3824 0.924 15.1772 -11.1648)" fill="#010202" width="4.694" height="0.402"/>
		</g>
	</g>
</g>
<g>
	<path fill="#FFFFFF" d="M30.278,52.5c-11.045,0-19.999,8.955-19.999,20c0,11.046,8.954,20,19.999,20s20.001-8.954,20.001-20
		C50.279,61.455,41.323,52.5,30.278,52.5L30.278,52.5z"/>
	<linearGradient id="SVGID_1_" gradientUnits="userSpaceOnUse" x1="30.2788" y1="52.2441" x2="30.2788" y2="92.2441">
		<stop  offset="0" style="stop-color:#5D6AAA"/>
		<stop  offset="1" style="stop-color:#2A3877"/>
	</linearGradient>
	<path fill="url(#SVGID_1_)" d="M30.278,55.489c9.38,0,17.013,7.631,17.013,17.011c0,9.379-7.633,17.013-17.013,17.013
		c-9.379,0-17.011-7.634-17.011-17.013C13.268,63.12,20.899,55.489,30.278,55.489 M30.278,52.5c-11.045,0-19.999,8.955-19.999,20
		c0,11.046,8.954,20,19.999,20s20.001-8.954,20.001-20C50.279,61.455,41.323,52.5,30.278,52.5L30.278,52.5z"/>
	<linearGradient id="SVGID_2_" gradientUnits="userSpaceOnUse" x1="30.2778" y1="52.2451" x2="30.2778" y2="92.2172">
		<stop  offset="0" style="stop-color:#5D6AAA"/>
		<stop  offset="1" style="stop-color:#2A3877"/>
	</linearGradient>
	<path fill="url(#SVGID_2_)" d="M40.501,79.499l-2.479-14.612c-0.325-1.81-1.52-2.079-2.202-2.079c-1.1,0-1.754,0.474-2.065,1.496
		l-3.477,11.917L26.8,64.299c-0.309-1.018-0.964-1.491-2.063-1.491c-0.684,0-1.878,0.27-2.205,2.084l-2.476,14.604
		c-0.085,0.48-0.135,0.815-0.135,1.1c0,0.97,0.587,1.597,1.495,1.597c1.215,0,1.565-0.739,1.645-1.354l1.843-12.702l3.797,12.822
		c0.258,0.829,0.775,1.233,1.577,1.233c0.804,0,1.319-0.404,1.579-1.24l3.797-12.815l1.841,12.694
		c0.079,0.622,0.431,1.361,1.645,1.361c0.909,0,1.495-0.627,1.495-1.597C40.635,80.314,40.586,79.979,40.501,79.499z"/>
</g>
</svg>
