<svg xmlns="http://www.w3.org/2000/svg" xmlns:xlink="http://www.w3.org/1999/xlink" width="40" height="40" viewBox="0 0 40 40"><rect x="1.187" y="1" fill-rule="evenodd" clip-rule="evenodd" fill="#383838" width="38" height="38"/><g><defs><rect id="a" x="1.187" y="1" width="38" height="38"/></defs><clipPath id="b"><use xlink:href="#a" overflow="visible"/></clipPath><g clip-path="url(#b)"><path fill-rule="evenodd" clip-rule="evenodd" fill="#383838" d="M35.566 4.01c.125-.039.305.078.303.217-.002.185-.275.353-.289.462-.034.292.487.47.304.91-.058.138-.188.244-.289.361-.105.122-.229.292-.375.274-.116-.015-.151-.192-.275-.26-.106-.059-.434-.143-.563-.115-.351.075-.204.573-.028.794.108.138.271.12.303.274.048.228-.172.425-.245.521-.061.078-.191.35-.391.361-.166.009-.273-.158-.404-.246-.142-.095-.296-.187-.404-.231-.094-.038-.284-.03-.347-.116-.132-.18.126-.488.217-.592.145-.167.275-.369.404-.462.166-.121.444-.134.549-.289.112-.167.046-.37.116-.549.042-.107.147-.212.245-.333.111-.136.191-.278.318-.361l.375-.159c.146-.084.287-.403.476-.461z"/><path fill-rule="evenodd" clip-rule="evenodd" fill="#383838" d="M11.667 21.668c.255-.043.671.139.795.303.095.125.113.363.159.535.063.234.203.46.217.664l-.086.491.043.261-.145.375c-.006.146.143.301.188.434l.043.318.058.318-.246.533-.029.463-.202.375c-.023.154.091.41.058.637l-.375.824c-.039.15-.039.354-.101.549-.062.189-.142.398-.26.533-.073.084-.227.191-.303.203-.069.01-.235-.021-.275-.059-.077-.068-.051-.229-.058-.418l-.072-.535c-.039-.535.042-1.137.029-1.646-.009-.34-.173-.588-.145-.939.012-.148.108-.293.173-.492.128-.391.125-.935.116-1.444-.009-.519-.215-1.034-.173-1.589.025-.354.272-.641.591-.694z"/><path fill-rule="evenodd" clip-rule="evenodd" fill="#383838" d="M23.082 21.711c.27-.034-.001.464-.029.534-.142.36-.254.606-.115 1.012.059.173.181.251.202.404.021.149-.042.329-.102.434-.191.338-.568.485-.925.78l-.506.535c-.304.262-.686.471-1.098.664-.184.086-.364.17-.621.26-.306.107-.924.299-.607-.217l.188-.217.347-.461.462-.449.304-.462c.301-.427.653-.842 1.012-1.243l.693-.809c.235-.26.499-.6.766-.752l.029-.013z"/><path fill-rule="evenodd" clip-rule="evenodd" fill="#383838" d="M43.08 28.213v3.02c-.098.217-.053.701-.274.766-.148.045-.54-.094-.767-.129-.25-.039-.523-.023-.78-.043l-1.372-.102c-.322-.029-.635.043-.925-.016l-.332-.1-.607-.029-.26-.059c-.121-.008-.238.041-.361.059-.285.037-.581.016-.867 0h-.462l-.145-.059-.42.088c-.154 0-.27-.09-.39-.102l-.78.115c-.188-.037-.346-.338-.549-.26-.021-.047-.001-.135-.102-.102l-.028-.463c.02-.201.168-.365.202-.549l.014-.26.044-.23c.09-.246.272-.313.477-.449.219-.146.325-.246.549-.346.161-.072.443-.125.563-.232.143-.127.18-.359.376-.434l.231-.043c.219-.066.316-.215.491-.303.171-.088.335-.055.563-.088l.419-.143.434-.131c.138-.02.331.059.404.043l.102-.102.13-.072.304-.303.202-.131c.252-.248.319-.594.477-.822.328-.041.643.049.853.1l.304.045.317.158 1.084.348.246.129.245.072c.339.182.302.727.39 1.159z"/><path fill-rule="evenodd" clip-rule="evenodd" fill="#383838" d="M28.919 30.496l-.072.043c.037.031.034.072-.028.072l.043.029-.058.086-.13.072.015.029-.217.289c-.17.275-.309.451-.665.578-.197.07-.331.205-.534.26-.055.016-.142.049-.203-.029.111-.24.379-.242.563-.389.096-.076.082-.225.159-.348l.087-.131.159-.244-.029-.072.087-.088-.043-.072.158-.043-.058-.029c.229-.14.529-.146.766-.013z"/><path fill-rule="evenodd" clip-rule="evenodd" fill="#383838" d="M29.771 30.684l-.043.016c.032.025.096.096.043.143v.072c-.047.094-.212.186-.303.262-.236.195-.271.422-.694.49-.109.018-.204.088-.288.131-.15.074-.268.209-.492.158.041-.336.466-.334.723-.52l.217-.145.231-.16-.029-.043c.133-.041.042-.178.059-.26l.144-.217h.231c-.045-.063-.113-.029-.202-.029.151-.08.333.012.403.102z"/><path fill-rule="evenodd" clip-rule="evenodd" fill="#383838" d="M31.896 30.654c.092.193-.004.418-.086.594-.153.324-.405.586-.694.822-.109.092-.315.301-.491.26l-.188-.215c-.139-.066-.204.027-.361 0-.17-.141-.047-.414.115-.578.118-.119.268-.223.405-.275l.101-.086.391-.088c.341-.119.496-.404.808-.434z"/><path fill-rule="evenodd" clip-rule="evenodd" fill="#BCBCBC" d="M18.198 31.971c-.241.275-.594.652-1.069.707-.204.023-.434.004-.478-.203-.197-.021-.289-.34-.158-.477l.13-.043c.12.053.177-.045.274-.072.396-.11 1.005-.033 1.301.088z"/><path fill="#BCBCBC" d="M33.861 30.25l.014-.26.044-.23c.09-.246.272-.313.477-.449.219-.146.325-.246.549-.346.161-.072.443-.125.563-.232.143-.127.18-.359.376-.434l.231-.043c.219-.066.316-.215.491-.303.171-.088.335-.055.563-.088l.419-.143.434-.131c.138-.02.331.059.404.043l.102-.102.13-.072.304-.303.202-.131c.252-.248.319-.594.477-.822.328-.041.643.049.853.1l.304.045.317.158 1.084.348.246.129.245.072c.34.18.303.725.391 1.156v-4.754c-.184-.145-.524-.056-.853-.015-1.44.181-2.995.347-4.639.347-.974 0-1.833-.062-2.673-.188-.812-.121-1.607-.242-2.413-.404-.748-.15-1.466-.434-2.109-.752-.65-.32-1.278-.656-1.836-1.012-.568-.361-1.134-.745-1.748-1.098l-.925-.506c-.255-.143-.717-.48-.939-.477-.158.002-.339.227-.462.375l-.361.462c-.531.65-1.092 1.064-1.604 1.705l-.752.896c-.467.576-1.021 1.221-1.488 1.82-.118.15-.224.316-.361.463-.268.283-.492.557-.751.895-.119.156-.235.398-.347.477-.227.16-.636.191-.867.059-.001-.189.155-.338.26-.463l.159-.217.116-.23c.089-.16.219-.268.347-.404l.332-.404c.456-.533.886-1.1 1.329-1.648.219-.27.459-.535.68-.823.435-.569.878-1.065 1.344-1.633.227-.277.537-.494.723-.766l.288-.462c.318-.418.675-.782.997-1.185l.332-.419c.093-.104.222-.226.304-.347l.289-.462c.527-.678 1.165-1.325 1.677-2.038.203-.283.479-.515.708-.78.233-.272.441-.549.679-.809l-.043.043v-.014c.182-.182.424-.266.578-.492.258-.378.557-.805.852-1.17.152-.188.343-.327.506-.505.172-.188.285-.392.419-.593.199-.296.461-.542.708-.809l.448-.563.231-.274c.093-.069.212-.056.289-.145l.028-.043c.108-.059.149-.173.261-.274.172-.159.241-.358.434-.52l.188-.174c.141-.101.363.137.593.116.254-.024.573-.459.736-.737.096-.163.149-.36.246-.491.12-.164.228-.241.39-.347.155-.102.258-.242.361-.376.104-.136.218-.253.304-.434.073-.154.151-.308.274-.462.127-.16.299-.322.289-.549-.013-.237-.209-.387-.379-.549-.165-.157-.383-.38-.621-.332-.19.038-.332.199-.477.375-.138.168-.273.297-.434.405-.313.21-.575.596-.751.939-.188.364-.556.589-.795.896-.12.153-.269.301-.376.462l-.332.506c-1.931 2.536-4.025 4.959-6.025 7.456-.857 1.07-1.745 2.148-2.645 3.251-.134.164-.308.381-.448.39-.177.011-.449-.195-.578-.26-.539-.271-1.071-.634-1.936-.549-1.025.1-1.706.46-2.457.881-.344.193-.747.399-1.17.505-.446.112-.916.175-1.344.333-.851.313-1.533.695-2.341.997-.202.076-.373.19-.564.274-.192.085-.404.129-.607.231-.371.187-.832.345-1.083.592-.309.302-.458.679-.491 1.185-.031.487.124.91.173 1.459.023.258.057.539-.014.766-.063.199-.182.369-.231.607-.105.5.02.984.058 1.531.055.777-.055 1.627.058 2.398l.159.666c.036.238-.101.49-.173.723-.077.246-.171.504-.202.736v.217c.068.303.284.65.535.779.173.09.537.121.592.334.069.264-.268.668-.39.895l-.434.883c-.152.283-.362.477-.549.766-.177.271-.349.699-.607.766l-.011.002.009.063.135-.021c.108 0 .194.035.259.088.214-.105.372-.295.547-.508.232-.281.426-.672.737-.852.107-.063.201-.039.274-.174l.029-.174c.115-.277.444-.545.65-.795.084-.102.211-.285.303-.23.087.053-.01.164-.043.26l-.086.348c-.204.254-.787.525-.867.723 0 .123.136.115.203.145.151.064.262.178.173.375-.022.051-.113.105-.058.174l.853-.145c.419.004.63.268.867.463.25.205.524.373.91.418.654.076 1.042-.268 1.329-.635.119-.152.241-.398.463-.477.301-.107.852-.086 1.229-.074.415.016.84 0 1.228.074.802.152 1.228-.246 1.547-.666.063-.084.08-.182.173-.246.204-.141.653-.227.982-.316l1.04-.26 1.012-.289c.332-.096.72-.273 1.04-.275.3-.002.611.127.939.145.663.033 1.306.146 1.979.217.336.035.681.021 1.026.072l.477.145c.487.109 1.046.188 1.647.203.616.014 1.079-.166 1.59-.275.166-.037.335-.063.491-.115.376-.131.667-.346 1.025-.434.387-.096.814-.141 1.271-.188.891-.094 1.771-.162 2.717-.102 1.349.086 2.72.199 4.002.375.423.059.837.154 1.258.188v-2.109c-.098.217-.053.701-.274.766-.148.045-.54-.094-.767-.129-.25-.039-.523-.023-.78-.043l-1.372-.102c-.322-.029-.635.043-.925-.016l-.332-.1-.607-.029-.26-.059c-.121-.008-.238.041-.361.059-.285.037-.581.016-.867 0h-.462l-.145-.059-.42.088c-.154 0-.27-.09-.39-.102l-.78.115c-.188-.037-.346-.338-.549-.26-.021-.047-.001-.135-.102-.102l-.028-.463c.021-.2.169-.364.203-.548zm-.78-23.625c.145-.167.275-.369.404-.462.166-.121.444-.134.549-.289.112-.167.046-.37.116-.549.042-.107.147-.212.245-.333.111-.136.191-.278.318-.361l.375-.159c.147-.085.288-.404.478-.462.125-.039.305.078.303.217-.002.185-.275.353-.289.462-.034.292.487.47.304.91-.058.138-.188.244-.289.361-.105.122-.229.292-.375.274-.116-.015-.151-.192-.275-.26-.106-.059-.434-.143-.563-.115-.351.075-.204.573-.028.794.108.138.271.12.303.274.048.228-.172.425-.245.521-.061.078-.191.35-.391.361-.166.009-.273-.158-.404-.246-.142-.095-.296-.187-.404-.231-.094-.038-.284-.03-.347-.116-.134-.178.124-.486.215-.591zm-13.8 19.492l.188-.217.347-.461.462-.449.304-.462c.301-.427.653-.842 1.012-1.243l.693-.809c.235-.26.499-.6.766-.752l.029-.014c.27-.034-.001.464-.029.534-.142.36-.254.606-.115 1.012.059.173.181.251.202.404.021.149-.042.329-.102.434-.191.338-.568.485-.925.78l-.506.535c-.304.262-.686.471-1.098.664-.184.086-.364.17-.621.26-.305.108-.923.3-.607-.216zm-8.077 3.309c-.077-.068-.051-.229-.058-.418l-.072-.535c-.039-.535.042-1.137.029-1.646-.009-.34-.173-.588-.145-.939.012-.148.108-.293.173-.492.128-.391.125-.935.116-1.444-.009-.519-.215-1.034-.173-1.589.027-.354.274-.641.592-.693.255-.043.671.139.795.303.095.125.113.363.159.535.063.234.203.46.217.664l-.086.491.043.261-.145.375c-.006.146.143.301.188.434l.043.318.058.318-.246.533-.029.463-.202.375c-.023.154.091.41.058.637l-.375.824c-.039.15-.039.354-.101.549-.062.189-.142.398-.26.533-.073.084-.227.191-.303.203-.07.008-.236-.023-.276-.06zm14.652 1.994c-.063-.1-.325.049-.42.088-.382.152-.685.234-1.025.418l-.188.102c-.171.033-.545-.139-.665-.201-.182-.096-.339-.205-.448-.391.17.029.311-.096.491-.115.224-.025.505.125.622-.072-.102-.07-.241-.092-.361-.117h-.116l-.217-.145-.434-.057-.115-.174c-.103-.064-.245-.014-.361-.029l-.245-.086-.246-.014c-.192-.031-.328-.059-.549-.029-.176.021-.354.154-.549.23-.188.074-.388.115-.593.217-.202.102-.414.146-.593.217l-.26.158c-.193.09-.45.029-.491.305.437.143.92-.369 1.301-.217.24.096.16.662.086.852-.059.15-.215.27-.245.477-.039.262.078.51.058.811-.036.543-.386 1.18-.997 1.184-.285.002-.57-.139-.795-.244-.241-.115-.459-.252-.664-.361-.332-.178-.76-.244-1.156-.391-.117-.043-.332-.137-.434-.102-.161.057-.136.48-.173.781-.04.313-.103.561-.188.75-.166.369-.504.838-1.04.854-.681.018-.938-.463-1.185-.926-.186-.348-.329-.66-.563-1.01-.071-.107-.198-.217-.202-.318-.006-.146.175-.371.303-.406.155-.041.38.061.549.074.561.039.92-.072 1.358-.189.136-.035.267-.09.391-.145.201-.088.353-.162.477-.332-.028-.078-.104-.023-.159-.029-.111-.008-.227-.051-.347 0l-.289.246c-.122.09-.371.244-.621.188-.183-.039-.279-.299-.448-.346l-.491-.059c-.137-.031-.28-.074-.404-.129-.222-.1-.504-.389-.679-.377l-.506.246c-.118 0-.403-.266-.419-.375-.022-.15.138-.381.173-.564.032-.166.007-.285.072-.391l.015.016.173-.203-.017.021.132-.137-.015-.014c.195-.197.276-.43.462-.65.125-.148.337-.287.52-.449.177-.154.343-.316.521-.434.151-.098.327-.26.52-.432.156-.141.415-.328.477-.479.12-.285-.004-.74.087-1.068.153-.555.487-.914.535-1.619.056-.832-.365-1.558-.723-2.051-.176-.244-.398-.543-.607-.781l-.347-.346c-.087-.088-.464-.448-.086-.478l.202.029c.252.081.44.298.722.433.242.117.583.186.853.232.162.027.306.097.448.101.297.009.515-.134.694-.159l.39.029.404-.115.246.072c.112-.015.223-.141.289-.232.059-.08.131-.258.26-.245.132.014.168.288.217.376.04.069.129.167.188.188.179.063.486-.005.592-.058.234-.117.424-.409.563-.65.253-.437.57-.765.65-1.401.02-.158-.009-.37.058-.549.076-.207.259-.059.304.13.062.261-.021.712.102.866.072.094.131.046.245.116-.172.452-.503.827-.766 1.214l-.246.404-.606.708c-.73.983-1.559 1.954-2.326 2.933-.104.133-.194.254-.304.348-.117.1-.263.141-.419.23-.156.092-.313.23-.462.391-.114.123-.306.373-.289.52.047.424.813.594 1.098.998.151.215.234.523.332.809.073.211.305.262.448.434l.317.072c.091.025.188.105.289.102l.333-.174c.16-.01.291.166.419.188l.245-.029c.187-.014.438.01.593-.027l.491-.246.361-.029.13.029c.313-.01.546-.184.824-.072l.158.086c.147.025.349-.098.448-.172.195-.15.387-.52.621-.781l.231-.217c.057-.088.09-.215.13-.318l.029-.115c.054-.098.438-.32.621-.217l.145.188c.09.068.267.127.404.16l.463.102h.188c.102.025.298.174.332.23l.029.145c.037.117.121.313.202.361.127.074.319.02.361.201l.521-.014.202.059.506-.131.26.203.304.014c.223.09.138.508.303.65-.022.02-.067.123.015.115l-.13.115c-.002.207-.152.279-.304.404l-.217.174c-.411.176-.97.42-1.459.42-.122-.145.185-.242.101-.381zm1.416.535c-.055.016-.142.049-.203-.029.111-.24.379-.242.563-.389.096-.076.082-.225.159-.348l.087-.131.159-.244-.029-.072.087-.088-.043-.072.158-.043-.058-.029c.229-.141.528-.146.766-.014l-.072.043c.037.031.034.072-.028.072l.039.029h0l-.054.086-.13.072.015.029-.217.289c-.17.275-.309.451-.665.578-.197.072-.33.206-.534.261zm2.499-1.041c-.047.094-.212.186-.303.262-.236.195-.271.422-.694.49-.109.018-.204.088-.288.131-.15.074-.268.209-.492.158.041-.336.466-.334.723-.52l.217-.145.231-.16-.029-.043c.133-.041.042-.178.059-.26l.144-.217h.231c-.045-.063-.113-.029-.202-.029.151-.08.334.012.404.102l-.043.016c.032.025.096.096.043.143l-.001.072zm2.039.334c-.153.324-.405.586-.694.822-.109.092-.315.301-.491.26l-.188-.215c-.139-.066-.204.027-.361 0-.17-.141-.047-.414.115-.578.118-.119.268-.223.405-.275l.101-.086.391-.088c.342-.119.497-.404.809-.434.09.194-.005.418-.087.594z"/><path fill-rule="evenodd" clip-rule="evenodd" fill="#BCBCBC" d="M11.71 34.715l-.072.115.072-.115z"/><path fill-rule="evenodd" clip-rule="evenodd" fill="#383838" d="M12.042 31.088l-.029.029.145-.145-.015-.014c.195-.197.276-.43.462-.65.125-.148.337-.287.52-.449.177-.154.343-.316.521-.434.151-.098.327-.26.52-.432.156-.141.415-.328.477-.479.12-.285-.004-.74.087-1.068.153-.555.487-.914.535-1.619.056-.832-.365-1.558-.723-2.051-.176-.244-.398-.543-.607-.781l-.347-.346c-.087-.088-.464-.448-.086-.478l.202.029c.252.081.44.298.722.433.242.117.583.186.853.232.162.027.306.097.448.101.297.009.515-.134.694-.159l.39.029.404-.115.246.072c.112-.015.223-.141.289-.232.059-.08.131-.258.26-.245.132.014.168.288.217.376.04.069.129.167.188.188.179.063.486-.005.592-.058.234-.117.424-.409.563-.65.253-.437.57-.765.65-1.401.02-.158-.009-.37.058-.549.076-.207.259-.059.304.13.062.261-.021.712.102.866.072.094.131.046.245.116-.172.452-.503.827-.766 1.214l-.246.404-.606.708c-.73.983-1.559 1.954-2.326 2.933-.104.133-.194.254-.304.348-.117.1-.263.141-.419.23-.156.092-.313.23-.462.391-.114.123-.306.373-.289.52.047.424.813.594 1.098.998.151.215.234.523.332.809.073.211.305.262.448.434l.317.072c.091.025.188.105.289.102l.333-.174c.16-.01.291.166.419.188l.245-.029c.187-.014.438.01.593-.027l.491-.246.361-.029.13.029c.313-.01.546-.184.824-.072l.158.086c.147.025.349-.098.448-.172.195-.15.387-.52.621-.781l.231-.217c.057-.088.09-.215.13-.318l.029-.115c.054-.098.438-.32.621-.217l.145.188c.09.068.267.127.404.16l.463.102h.188c.102.025.298.174.332.23l.029.145c.037.117.121.313.202.361.127.074.319.02.361.201l.521-.014.202.059.506-.131.26.203.304.014c.223.09.138.508.303.65-.022.02-.067.123.015.115l-.13.115c-.002.207-.152.279-.304.404l-.217.174c-.411.176-.97.42-1.459.42-.122-.141.186-.238.102-.377-.063-.1-.325.049-.42.088-.382.152-.685.234-1.025.418l-.188.102c-.171.033-.545-.139-.665-.201-.182-.096-.339-.205-.448-.391.17.029.311-.096.491-.115.224-.025.505.125.622-.072-.102-.07-.241-.092-.361-.117h-.116l-.217-.145-.434-.057-.115-.174c-.103-.064-.245-.014-.361-.029l-.245-.086-.246-.014c-.192-.031-.328-.059-.549-.029-.176.021-.354.154-.549.23-.188.074-.388.115-.593.217-.202.102-.414.146-.593.217l-.26.158c-.193.09-.45.029-.491.305.437.143.92-.369 1.301-.217.24.096.16.662.086.852-.059.15-.215.27-.245.477-.039.262.078.51.058.811-.036.543-.386 1.18-.997 1.184-.285.002-.57-.139-.795-.244-.241-.115-.459-.252-.664-.361-.332-.178-.76-.244-1.156-.391-.117-.043-.332-.137-.434-.102-.161.057-.136.48-.173.781-.04.313-.103.561-.188.75-.166.369-.504.838-1.04.854-.681.018-.938-.463-1.185-.926-.186-.348-.329-.66-.563-1.01-.071-.107-.198-.217-.202-.318-.006-.146.175-.371.303-.406.155-.041.38.061.549.074.561.039.92-.072 1.358-.189.136-.035.267-.09.391-.145.201-.088.353-.162.477-.332-.028-.078-.104-.023-.159-.029-.111-.008-.227-.051-.347 0l-.289.246c-.122.09-.371.244-.621.188-.183-.039-.279-.299-.448-.346l-.491-.059c-.137-.031-.28-.074-.404-.129-.222-.1-.504-.389-.679-.377l-.506.246c-.118 0-.403-.266-.419-.375-.022-.15.138-.381.173-.564.032-.166.007-.285.072-.391l.015.016.171-.207zm4.855.795c-.098.027-.154.125-.274.072l-.13.043c-.131.137-.039.455.158.477.044.207.273.227.478.203.476-.055.828-.432 1.069-.707-.296-.121-.905-.198-1.301-.088z"/><line stroke="#BCBCBC" stroke-width=".25" stroke-linecap="round" stroke-miterlimit="10" x1="10.171" y1="36.117" x2="-8.165" y2="36.117" fill="none"/></g></g></svg>