<svg xmlns="http://www.w3.org/2000/svg" width="40" height="40" viewBox="0 0 40 40"><g fill-rule="evenodd" clip-rule="evenodd"><g fill="#3AA6C7"><path d="M38.428 21.731c-.545-.599.436-1.419.417-1.771l-.313-.834c-.006-.133-.134-.144-.104-.313.134.006.145.134.313.104-.604-1.288-2.563-.664-3.646-.313.074-.411.165-.807.313-1.146l.313.208c.001-.558.041-1.153-.209-1.459-.006-.133-.133-.144-.104-.313-.002-.207-.285-.132-.209-.416.18.092.617.133.313-.104-.15-.37-.422-.62-.729-.833-.345-.201-1.521-.601-1.876-.104h.104c.299.44.472 1.475.104 1.979-.023-.081-.088-.121-.209-.104-.247.83-.762 1.392-1.25 1.979-.282.203-.474.498-.833.625-.063-.006-.124-.016-.104-.104-1.234-.119-2.353-.355-3.438-.625.246-.726.276-1.668.938-1.979.141-.032.198-.148.416-.104.478-.6.918-1.236 1.354-1.875-.075-.377-.528-.375-.938-.417.24-1.045.676-1.895 1.146-2.709 2.343.017 3.176-1.477 4.271-2.709.082-.022.121-.087.104-.208-.679.259-1.393.482-2.292.521-.045-.232-.513-.042-.729-.104.197-1.164 1.269-2.339 1.979-3.334.234-.411-.951-.296-1.146-.625-.305-.491.242-.903.313-1.354.081-.022.121-.087.104-.208-.111-.236-.655-.04-.938-.104-.144-.237-.725-.039-1.041-.104-.197-.046-.628.143-.521-.208-.445-.554-1.377.129-1.875.208-.286-.395.364-.743.417-1.146.086.051.202-.211.208-.208-.858-.362-2.68.635-3.542.625-.391.08.064-.805-.417-.417-.563.165-1.015.443-1.563.625-.048-.604.37-.741.417-1.25-.156.018-.385-.037-.417.104-1.455.246-2.643.761-3.75 1.354-.459-.056 0-.773.104-.938.005-.11-.049-.265-.104-.104-.284-.076-.21.207-.417.208-.512.217-1.142 1.393-1.459 1.354-.613-.071-.522-1.361-1.249-2.081-.147.512-.32.999-.416 1.563-.479.897.41 2.2-.104 2.813-.213.343-.381.73-.625 1.042-.49-.205-.5-.89-1.042-1.042-.595.933-.808 2.248-1.042 3.542-.527-.307-.749-.918-1.042-1.459-.288 1.205-.582 2.404-.625 3.854-.064.283.133.827-.104.938-.119-.402-.449-.593-.521-1.042l-.104-.209-.07.125.001.001-.001-.001-.034-.021v.082c-.295.65.015 1.905-.104 2.73-.155.019-.384-.037-.417.104-1.571.27-2.836.845-3.646 1.875.144.005.229-.049.313-.104.314.032.81-.116.833.208-.081.023-.205.003-.208.104-2.849 1.388-4.19 4.283-5.104 7.604.282.174.481-.626.938-.625-.356 1.137-.785 2.202-1.25 3.229.267.113.496-.316.625 0-.118 1.619-1.198 2.274-1.251 3.959-.172.112-.172.93 0 1.042-.079 1.398.541 2.099 1.354 2.604.063-.216-.129-.685.104-.729.354.723.883 1.271 1.563 1.667.294-.4-.154-1.544.313-1.771.287.847.887 1.058 1.459 1.771.948-.857-.234-3.846.938-4.479-.339.847.239 1.711 0 2.083.48.18.686.635 1.25.729.293-1.131.807-2.041 1.042-3.229.172-.112.172-.93 0-1.042-.154-1.322-.571-3.549.416-4.271.128 1.192.394 2.246.938 3.021.152-.403.165-.946.521-1.146.236 1.431.573 2.76 1.25 3.75-.779 1.288-3.533 1.417-3.75 3.125-.104.815.334 1.704.416 2.709l.625-.521c.167 1.014.359 2.002.938 2.604.05-.123.11-.236.208-.313 1.51 1.824 6.372.851 9.271.938-.632-1.452-1.696-2.471-3.125-3.126.717-.29 1.245-.769 1.979-1.041 1.1.566 2.138 1.196 3.125 1.875.029-.183-.293-.52 0-.625 1.366.96 2.338 2.315 4.063 2.917.869.173 2.464.173 3.334 0 .449-.175.644-.606.833-1.042.314-.38.474-.916.729-1.354.006-.133.133-.145.104-.313.366-.502.587-1.15.938-1.667.001-.207.284-.132.208-.416-.553.072-.749.5-1.25.625.851-2.345 2.616-3.773 3.229-6.355l.104-.208c-.604.265-.996.74-1.563 1.042-.474-.049.122-.575.104-.834-.354-.17-1.813.696-2.604 1.146-.895.508-1.701 1.136-2.292 1.667-.207.001-.133.284-.417.208-.164-.253-.372-.461-.625-.625-.619-.479-1.147-1.051-1.955-1.342l-.018-.024v.001l-.11-.197.11.196c.617-1.147 1.326-2.203 1.66-3.635.97-.133 2.038-.634 3.021-.416l-.417-.521h1.4589999999999999c.527.078-.224-.397.104-.417.828.354 1.73.632 2.709.834.841.14 1.453.058 2.396.208h.208c.601-.129 1.048-.411 1.146-1.042v-.208c-.409-.764.372-.633.521-.833.251-.337.005-.958.313-.834.052-.324-.186-.363-.103-.725zm-12.544 8.128l.06.056-.06-.056zm.374.302l.029.023-.029-.023zm-11.062-6.241c-.018-.121.022-.186.104-.209h.204c-.086-.026-.16-.058-.204-.104-.202-.211.157-.698 0-.834 1.454-2.262 2.982-4.449 4.48-6.667.171-.245 1.421-.406 1.563 0v6.564c.145.237.725.038 1.042.104h.521v.834c-.522.067-1.317-.137-1.667.104h1.667c.22.432-1.29.026-1.563.313-.006-.063-.016-.123-.104-.104-.062.876.128 2.003-.104 2.708h-.729v-2.708c-.089-.02-.099.04-.104.104-1.489-.298-4.211.24-5.106-.105zm12.541 7.385c.102.104.193.211.272.324-.078-.113-.17-.221-.272-.324zm-.328-.299l.109.099-.109-.099zm-1.763-1.373l-.049-.063.049.063zM17.173 23.711h3.128c-.17-.388-1.771-.133-3.128 0zM17.173 23.711h-1.669c.339.102.968.068 1.669 0zM20.405 19.961v-3.0210000000000004c-.808.81-1.414 1.932-2.084 2.917-.674.991-1.543 1.889-1.847 2.937l-.028.085c.793-.338 3.463.49 3.959-.104.308-.371 0-2.079 0-2.814zm-.104 2.812h-3.75c1.284-1.771 2.367-3.744 3.75-5.417v5.417z"/></g><path fill="#3AA6C7" d="M20.286 22.793v-5.417c-1.383 1.673-2.466 3.645-3.75 5.417h3.75z"/><path fill="#35BCDB" d="M22.891 23.73h-1.668c.35-.24 1.145-.035 1.668-.104v-.834h-.521c-.316-.064-.896.135-1.041-.104v-6.563c-.143-.406-1.392-.245-1.563 0-1.498 2.218-3.026 4.405-4.48 6.667.157.137-.202.623 0 .834.044.047.118.078.204.104h-.204c-.081.023-.121.088-.104.209.895.346 3.617-.193 5.104.104.006-.063.016-.123.104-.104v2.709h.729c.232-.705.043-1.832.104-2.709.09-.02.1.041.105.104.272-.285 1.781.119 1.563-.313zm-5.733 0c1.356-.133 2.958-.387 3.128 0h-3.128zm3.232-.937c-.496.596-3.166-.232-3.959.105.279-1.086 1.183-2.004 1.875-3.022.67-.985 1.276-2.107 2.084-2.917v3.0210000000000004c0 .737.307 2.444 0 2.813z"/></g></svg>