<svg xmlns="http://www.w3.org/2000/svg" width="40" height="40" viewBox="0 0 40 40"><path fill="#8A6B48" d="M9.771 2.925c.315-.192 1.429-.192 1.744 0h-1.744z"/><path fill="#8A6B48" d="M28.952 2.925c.313-.192 1.429-.192 1.744 0h-1.744z"/><path fill="#E38923" d="M10.817 4.553c-.392-.074-1.08.149-1.28-.116.394.073 1.083-.15 1.28.116z"/><path fill="#8A6B48" d="M19.651 6.529c.164-.192 1.117-.192 1.279 0h-1.279z"/><path fill="#8A6B48" d="M30.929 13.387c.063-.168-.133-.601.115-.581v1.395c-.26-.05-.046-.574-.115-.814z"/><path fill="#CAC9C4" d="M32.323 14.201c-.193-.2-.193-1.194 0-1.395v1.395z"/><path fill="#CAC9C4" d="M12.676 15.829c.213 1.168 1.72 2.067 3.024 1.395.153.001.105.204.232.232.035.23-.157.232-.232.349-.444.098-.934.152-1.512.117-.472-.226-.931-.466-1.28-.813.015-.518-.323-.684-.232-1.28z"/><path fill="#8A6B48" d="M16.513 18.735c.192.127.192 1.037 0 1.163v-1.163z"/><path fill="#8A6B48" d="M11.864 22.454c.193.431.193 1.663 0 2.093v-2.093z"/><path fill="#8A6B48" d="M10.817 24.198v-1.627c.194.391.194 1.585 0 1.976v-.349z"/><path fill="#8A6B48" d="M29.65 22.688v1.394c-.194-.199-.194-1.195 0-1.394z"/><path fill="#CAC9C4" d="M29.65 23.269c.268.506.039 1.509.114 2.209-.266-.237-.041-.966-.114-1.396v-.813z"/><path fill="#CAC9C4" d="M10.817 24.198v.349c-.074.392.151 1.078-.116 1.278.075-.506-.152-1.313.116-1.627z"/><path fill="#8A6B48" d="M28.604 25.127c.266.2.042.89.115 1.28-.266-.197-.041-.887-.115-1.28z"/><path fill="#8A6B48" d="M32.207 27.104c.192.432.192 1.663 0 2.092v-2.092z"/><path fill="#CAC9C4" d="M33.253 27.569c.192.2.192 1.194 0 1.395v-1.395z"/><path fill="#E38923" d="M25.232 29.546c-3.06.193-6.934.193-9.997 0h9.997z"/><path fill="#8A6B48" d="M22.326 31.755c.62-.191 2.051-.191 2.674 0h-2.674z"/><path fill="#8A6B48" d="M16.166 5.946c.5-.04.213-.871.465-1.161.001.546.102 1.188-.465 1.161z"/><path fill="#8A6B48" d="M29.765 26.872c.253-.021.055.412.118.581l.695-.581-.58.697c-.297-.011-.23-.389-.233-.697z"/><path fill="#CAC9C4" d="M24.883 5.366c.416-.513.881-.979 1.396-1.394-.417.513-.883.978-1.396 1.394z"/><path fill="#8A6B48" d="M23.836 3.042c.036-.158.291-.096.466-.118-.152.545-.34 1.058-.581 1.512.033-.585.321-.917.466-1.394h-.351z"/><path fill="#8A6B48" d="M30.812 2.925c.573.008.968.195 1.278.465-.419-.163-.887-.275-1.278-.465z"/><path fill="#FCA919" d="M9.538 4.437l-.465-.118c2.202-1.313 4.862.43 5.58 2.092-.417-.029-.426.349-.813.349-.596-1.149-1.602-1.886-3.023-2.209-.197-.264-.886-.041-1.279-.114z"/><path fill="#E38923" d="M29.65 4.553c.262-.318 1.237.077 1.512-.233-.135.447-1.019.145-1.512.233z"/><path fill="#463015" d="M33.95 16.643c-.326-.922-1.823-1.113-1.627-2.44-.193-.2-.193-1.194 0-1.395.104-.872.853-1.383.93-2.326.131-1.596-.844-2.394-2.557-2.557-.645-2.311 1.218-2.912 2.906-3.255-.287-.647-.82-1.042-1.513-1.28-.419-.164-.887-.275-1.281-.465h-1.861c-1.228.013-1.808.671-2.674 1.047-.416.513-.882.978-1.394 1.394-.226.559-.589.619-1.164.349v-1.28c.035-.585.323-.917.466-1.394h-.349c-.892.078-1.223.714-1.975.93-.027-.359-.12-.657-.235-.93-.188-.127-.188-1.037 0-1.163.039-.157.169-.222.12-.464-1.005.393-1.971.819-2.325 1.859-.152.36-.171 1.313-.697.93v-.117c-.14-.518-.299-1.02-.232-1.743-1.021.412-1.601 1.267-1.86 2.441.002.546.103 1.187-.465 1.162-1.288-1.268-2.332-2.781-4.65-3.022h-1.744c-1.339.139-2.642.911-2.789 1.86 1.858.04 3.545 1.228 2.674 3.256-2.848-.264-2.792 3.097-1.512 4.532.193.353.193 1.507 0 1.859v.582c-.843.943-1.695 1.148-1.744 2.44-.105 2.755 4.104 2.816 4.417 5.116.194.391.194 1.586 0 1.977-.074.391.151 1.078-.116 1.277.026.608-.001 1.162-.116 1.629-.875-.715-1.509-1.67-1.744-3.021-2.971 2.137-1.575 8.692 1.976 9.066.028.477.395.613.465 1.047.4.337.693.779 1.046 1.162.901.572 1.691 1.255 3.139 1.28 1.018.726 2.118 1.371 3.836 1.395h1.858c1.592.251 2.752-.938 3.952-1.395 1.7-.647 2.919-.887 3.952-2.21.309-.396.414-.926.813-1.394 1.908-.687 3.134-2.058 3.371-4.417v-1.393c-.203-1.386-.626-2.552-1.629-3.139-.054 1.107-.64 1.686-1.047 2.441l-.58.697c-.296-.013-.231-.39-.234-.697v-1.395c-.266-.237-.04-.967-.115-1.396-.193-.199-.193-1.194 0-1.394.626-2.957 5.56-2.503 4.308-6.046zm-2.555-12.324h-.232c-.135.447-1.02.145-1.512.233-1.468.277-2.32 1.168-3.023 2.209-.29-.097-.456-.319-.813-.349.76-1.62 3.355-3.427 5.58-2.093zm-1.63 1.047c-.112.548-.207 2.116-.58 2.79-.924.284-1.055-.256-1.512-.698.326-1.067 1.007-1.784 2.092-2.092zm-20.227-.929l-.465-.118c2.202-1.313 4.862.43 5.58 2.092-.417-.029-.426.349-.813.349-.596-1.149-1.602-1.886-3.023-2.209-.391-.072-1.08.151-1.279-.114zm3.255 2.906c-.292.631-.619 1.051-1.512.813-.428-.732-.248-2.075-.696-2.79 1.209.188 1.813.977 2.208 1.977zm-2.79 24.644c-.437-.341-.824-.727-1.163-1.164-.231-.583-.453-1.176-.582-1.859-.193-.313-.193-1.429 0-1.745.107-.343.273-1.037.466-.347.854 1.78 2.59 2.68 5.116 2.79-.13.723-.827.878-.931 1.629-.194.417-.085 1.042.117 1.394-1.118.341-2.138-.418-3.023-.698zm2.21 1.975c.213-.279.685.16 1.163 0 .394.419.467 1.161.93 1.512-.817.08-1.53-.949-2.093-1.512zm2.207-.348c-.241-.573-.727-1.518-.349-2.325 1.188-1.139 3.786-.699 6.044-.699 2.306 0 4.813-.281 6.278.465.481 1.016-.131 2.248-.583 3.022-1.487 4.579-10.148 4.319-11.39-.463zm11.974 1.976c-.161-.474.527-1.099.698-1.628.466.196 1.156-.365 1.164.118-.61.514-1.13 1.119-1.862 1.51zm5.348-8.601l.115-.466c.422-.111.12.501.35.581.192.432.192 1.663 0 2.092-.097.135-.153.313-.117.583-.1.639-.364 1.107-.813 1.395-.841.94-2.007 1.557-3.72 1.627.083-.568.182-1.082 0-1.627l-.35-.698c-.286-.177-.531-.397-.581-.813h.581c2.103-.303 3.725-1.084 4.535-2.674zm-3.138-4.884c-.154.875.104 1.509 0 3.021.266.2.042.89.115 1.28-.063.704.105 1.464 0 1.858-.355-.082-.424.12-.697.117-.17.182-.594.102-.93.116-.161.265-.809.043-1.161.117-.471-1.353-1.031-2.612-1.512-3.95-.179-.443-.468-.771-.583-1.279-.118 2.171.893 4.222 1.396 6.16-3.062.193-6.938.193-9.999 0 .644-1.953 1.282-3.908 1.627-6.16-.487.131-.384.855-.698 1.162-.59 1.309-1.075 2.72-1.627 4.069h-1.162v-.117c-.335-.015-.761.065-.93-.117-1.453-.275-.235-2.5-.582-3.836v-2.093c.309-3.056-6.27-3.152-3.372-6.161-.036.272-.183.437-.115.813.799-.983 1.203-2.361 1.162-4.185-.082-.653-.157-1.314-.347-1.859-.257.015-.05.493-.117.698-.514-.497-1.041-1.54-.581-2.326 3.71-1.164 6.411 1.524 8.719 2.906.024-.489-.441-.489-.465-.929-.972-1.044-1.969-2.063-3.371-2.675.522-.68 1.362-1.039 2.208-1.395 1.165-.462 2.462-.793 4.068-.813.164-.192 1.116-.192 1.279 0 1.722.023 3.041.446 4.303.929.681.326 1.328.689 1.858 1.163-1.242.734-2.249 1.702-3.258 2.673-.13.49-.549.692-.695 1.164 1.423-.863 5.17-4.04 8.136-3.372 1.214.273 1.041 1.772.233 2.674-.257-.016-.049-.493-.117-.698-.335.363-.346 1.047-.348 1.744v1.395c.054 1.225.52 2.037.929 2.905.19.019.19-.716 0-.697.529-.129.853.668.814 1.28-.115 1.922-3.737 1.897-4.18 4.418z"/><path fill="#8A6B48" d="M15.119 15.015c.552.454 1.056.959 1.512 1.51-.553-.453-1.058-.958-1.512-1.51z"/><path fill="#8A6B48" d="M23.721 16.643c.416-.513.882-.978 1.393-1.394-.415.513-.879.977-1.393 1.394z"/><path fill="#463015" d="M18.722 14.201c.033-.206-.547-.359-.232-.465.908.649 2.662.529 3.604 0l-.466.583c-.728.806-2.26.643-2.906-.118z"/><path fill="#463015" d="M25.116 15.247c1.123-.97 2.5-1.685 4.767-1.512.515.171-.133.354-.466.349.393.537.456 1.555.115 2.209-.421.034-.151-.621-.346-.813-.176.251-.195.654-.234 1.045-.466 1.645-2.953 2.893-4.766 1.745-.446.478-.113 1.899-.117 2.209h-.116c-.271-.699-.857-1.079-.813-2.094-.604-.285-1.311-.469-1.512-1.161.135-.579 1.645-.026 2.093-.582.514-.416.978-.88 1.395-1.395zm2.674.814v-1.046c-1.137.375-1.956 1.067-2.674 1.859h-.116c-.135.291-.464.39-.466.814 1.475.611 3.325.031 3.256-1.627z"/><path fill="#8A6B48" d="M12.91 17.107c.349.348.808.588 1.28.813-.648-.048-.994-.402-1.28-.813z"/><path fill="#8A6B48" d="M14.771 16.178c.324.393 1.77 1.19.929 1.627.075-.118.267-.12.232-.349-.127-.027-.079-.231-.232-.232l-.929-1.046z"/><path fill="#fff" d="M12.676 15.829c.002-.309-.043-.664.117-.813.854.193 1.253.839 1.978 1.163l.929 1.046c-1.304.672-2.811-.228-3.024-1.396z"/><path fill="#CAC9C4" d="M27.79 16.061c.069 1.658-1.781 2.238-3.256 1.629.002-.426.331-.523.466-.814h.116c-.065.167-.183.284-.35.349 1.111.583 2.803.006 2.906-1.164h.118z"/><path fill="#fff" d="M25.116 16.875c.718-.793 1.537-1.485 2.674-1.859v1.046h-.117c-.104 1.169-1.799 1.747-2.906 1.164.167-.067.284-.184.349-.351z"/><path fill="#8A6B48" d="M8.842 30.823c.437.34.823.726 1.163 1.164-.437-.338-.824-.726-1.163-1.164z"/><path fill="#fff" d="M8.725 26.872c.854 1.78 2.59 2.68 5.116 2.79-.13.723-.827.878-.931 1.629-.154 0-.105.204-.233.233-2.753-.23-3.932-2.035-4.185-4.767.118-.002.139.093.233.115z"/><path fill="#CAC9C4" d="M27.208 30.476c-.286-.177-.531-.397-.581-.813h.581c-.021.172-.28.107-.464.117.076.308.331.441.464.696z"/><path fill="#8A6B48" d="M31.277 31.174c.369-.367.544-.929.813-1.395-.1.636-.364 1.106-.813 1.395z"/><path fill="#CAC9C4" d="M8.259 27.219c.107-.343.273-1.037.466-.347-.094-.022-.115-.117-.233-.117.252 2.732 1.432 4.536 4.185 4.767.127-.026.079-.232.233-.232-.194.419-.085 1.041.117 1.393-1.119.342-2.139-.418-3.022-.697-.34-.438-.726-.823-1.163-1.163-.231-.583-.453-1.177-.581-1.86l-.002-1.744z"/><path fill="#CAC9C4" d="M27.558 31.174c.112.002.088.141.115.234 2.33.305 4.217-1.822 4.303-4.533-.101-.222-.07.126-.233.119l.115-.466c.422-.112.12.499.35.581v2.092c-.097.133-.153.312-.117.581-.269.468-.444 1.026-.813 1.394-.841.943-2.007 1.558-3.72 1.63.083-.577.181-1.091 0-1.632z"/><path fill="#fff" d="M27.558 31.174l-.35-.698c-.13-.255-.388-.388-.464-.698.184-.01.444.057.464-.115 2.102-.302 3.724-1.083 4.534-2.676.163.01.133-.338.233-.116-.084 2.711-1.973 4.838-4.303 4.531-.026-.088-.002-.226-.114-.228z"/><path fill="#8A6B48" d="M15.002 31.987c.44-.607 2.351-.36 3.139-.232-1.034.089-2.465-.216-3.139.232z"/><path fill="#463015" d="M18.142 31.755c.371-.099.359.184.581.234.096.329-.165.3-.117.581-.365 1.654-2.833 1.979-3.487.35.026-.377-.206-.494-.117-.931.674-.45 2.105-.145 3.14-.234z"/><path fill="#463015" d="M21.978 32.801c-.07-.278-.168-.529-.116-.929.103-.09.262-.125.465-.117h2.674c.242-.05.309.079.465.117.12.331.12.485 0 .813-.474 1.628-2.953 1.787-3.488.116z"/><path fill="#FCA919" d="M29.65 4.553c-1.468.277-2.32 1.168-3.023 2.209-.29-.097-.456-.319-.813-.349.762-1.62 3.358-3.427 5.581-2.092h-.232c-.275.308-1.251-.087-1.513.232z"/><path fill="#FCA919" d="M14.42 33.614c-.241-.573-.727-1.518-.349-2.325 1.188-1.139 3.786-.699 6.044-.699 2.306 0 4.813-.281 6.278.465.481 1.016-.131 2.248-.583 3.022-2.373 2.494-9.536 2.519-11.39-.463zm3.722-1.859c-.789-.128-2.699-.375-3.139.234-.089.441.142.554.117.931.226 2.268 3.622 2.184 3.487-.35-.047-.281.212-.252.117-.581-.224-.052-.211-.335-.582-.234zm4.184 0c-.203-.008-.362.026-.465.117-.052.399.046.653.116.929-.217 2.303 3.438 2.308 3.487-.116.12-.33.12-.484 0-.813-.156-.035-.223-.167-.465-.117-.622-.194-2.053-.194-2.673 0z"/><g fill="#FCA919"><path d="M31.976 16.409c.189-.019.189.716 0 .697-.412-.868-1.18-4.319-.932-4.299.003-.696.016-1.381.351-1.744.066.205-.143.682.115.698.81-.902.982-2.401-.232-2.674-2.968-.668-6.712 2.509-8.138 3.372.148-.472.568-.674.7-1.164l.002-.006c1.006-.968 2.013-1.936 3.251-2.668-.531-.474-1.177-.836-1.858-1.163.047.208.066.404.064.592.002-.187-.018-.383-.064-.591-1.262-.483-2.581-.906-4.302-.929h-1.28c-1.605.02-2.903.351-4.068.813-.846.356-1.687.715-2.208 1.395 1.402.612 2.399 1.631 3.371 2.675.024.44.489.44.465.929-2.308-1.382-5.008-4.07-8.719-2.906-.46.786.067 1.829.581 2.326.066-.205-.141-.683.117-.698.19.544-.015 5.061-.814 6.042-.068-.376.079-.54.115-.813-2.898 3.008 3.681 3.105 3.372 6.161.194.431.194 1.663 0 2.093.347 1.336-.872 3.562.582 3.836.169.182.595.102.93.116l.001.117h1.162c.552-1.348 1.037-2.76 1.626-4.068.314-.308.211-1.03.698-1.163-.345 2.252-.983 4.208-1.627 6.161h9.998c-.502-1.938-1.514-3.989-1.394-6.161.113.508.401.838.582 1.28.964 1.207 1.672 2.667 2.673 3.836.334-.015.761.063.93-.117v-.001c.272.001.341-.199.696-.117.105-.395-.064-1.154 0-1.858-.267-.2-.042-.888-.115-1.28.104-1.513-.154-2.146 0-3.021.443-2.521 4.064-2.498 4.185-4.417.033-.613-.287-1.41-.816-1.281zm-18.484-3.022c2.226.305 3.081 2.533 4.417 3.488h-.001c-1.336-.954-2.19-3.183-4.416-3.488-.577-.078-1.525-.073-2.239.093.714-.167 1.664-.172 2.239-.093zm-.816 8.836c.339-.164.319-.689.466-1.047-.146.357-.125.883-.466 1.047zm-.643-4.084c.664 1.173 2.051 1.727 3.552 1.643v.002c-1.502.084-2.89-.47-3.552-1.645zm5.294.248c.067.88-.441 1.187-.581 1.861-.45.44-.862.92-1.627 1.046l.001-.003c.763-.126 1.174-.605 1.625-1.046l-.349.233c-.096-.328.164-.301.116-.582l.001-1.163c-.038-.157-.166-.223-.117-.464-1.763 1.1-4.215.026-4.763-1.508v-.001c-.001-.503-.271-.738-.233-1.278-.332.094-.013.839-.466.813-.227-.684-.364-1.584.117-2.092-.144-.167-.4-.221-.697-.233 1.759-.716 3.73.272 4.763 1.046.552.454 1.056.959 1.512 1.51.482.219 1.278.734 1.976.349l.35.002c-.113.933-.892 1.201-1.628 1.51zm1.395-4.186c-.378-.126-.439-.567-.698-.814.876.19 3.366.49 4.417-.115-1.051.606-3.542.306-4.417.115.259.246.32.686.698.814.033-.206-.547-.359-.232-.465.908.649 2.662.529 3.604 0l-.466.583c-.728.806-2.26.643-2.906-.118zm2.86 2.759c-.013-.471.609.006.859-.085.284-.104.516-.275.722-.488-.207.213-.438.387-.723.49-.246.09-.868-.385-.858.083zm2.605 1.31c-.447.478-.113 1.899-.117 2.208h-.116c-.27-.698-.857-1.079-.813-2.093-.604-.285-1.309-.469-1.512-1.16.135-.577 1.643-.026 2.093-.581.416-.514.882-.979 1.394-1.394 1.125-.97 2.501-1.685 4.769-1.511-1.505-.638-3.578-.469-4.769.349-.473.326-.806.741-1.1 1.155.294-.415.629-.831 1.102-1.156 1.189-.818 3.262-.986 4.767-.349.515.17-.134.354-.466.347.391.537.455 1.555.115 2.209-.421.035-.153-.621-.347-.813-.175.251-.199.654-.233 1.045-.468 1.643-2.955 2.891-4.767 1.744zm3.485 3.951c-.148-.168-.148-.488-.229-.725.082.236.082.553.229.725zM27.092 28.499c-1.001-1.168-1.71-2.629-2.673-3.834.48 1.339 1.041 2.599 1.512 3.951.352-.074 1 .148 1.161-.117zM12.793 7.342c-.395-1-1-1.79-2.208-1.976.448.715.269 2.058.696 2.789.894.238 1.22-.182 1.512-.813zM29.185 8.156c.373-.674.468-2.242.58-2.79-1.085.309-1.766 1.025-2.092 2.092.457.442.588.982 1.512.698zM14.42 33.614c1.241 4.782 9.903 5.042 11.393.466-2.376 2.491-9.539 2.516-11.393-.466zM18.606 32.568c-.365 1.656-2.833 1.979-3.487.348.225 2.269 3.62 2.186 3.487-.348zM25.465 32.685c-.473 1.628-2.952 1.787-3.487.116-.217 2.301 3.438 2.305 3.487-.116zM27.092 33.962c-.171.529-.859 1.154-.698 1.628.732-.391 1.252-.996 1.862-1.51-.008-.483-.698.078-1.164-.118zM12.213 33.962c.563.563 1.276 1.592 2.092 1.512-.463-.351-.536-1.093-.93-1.512-.478.16-.949-.279-1.162 0z"/></g><path fill="#463015" d="M10.353 13.969c1.76-.717 3.733.271 4.766 1.046.455.552.958 1.057 1.512 1.51.482.219 1.279.734 1.976.349h.349c-.113.933-.892 1.201-1.629 1.51.067.88-.442 1.187-.581 1.86-.166.028-.195.191-.349.233-.096-.328.164-.301.116-.582.192-.126.192-1.036 0-1.163-.036-.157-.165-.223-.116-.464-1.764 1.101-4.22.024-4.766-1.512 0-.502-.27-.738-.233-1.278-.332.094-.012.84-.465.813-.229-.684-.365-1.584.116-2.092-.142-.163-.398-.218-.696-.23zm4.418 2.209c-.724-.324-1.124-.968-1.978-1.163-.159.149-.115.504-.117.813-.092.596.245.761.233 1.279.288.41.632.765 1.28.813.578.035 1.066-.019 1.512-.117.838-.435-.606-1.232-.93-1.625z"/></svg>