<svg xmlns="http://www.w3.org/2000/svg" width="40" height="40" viewBox="0 0 40 40"><rect x="1" y="11.478" fill="#F1DD51" width="16.561" height="16.561"/><g fill-rule="evenodd" clip-rule="evenodd" fill="#434343"><path d="M8.478 19.116h1.444c-.354 2.632 1.273 8.075-2.406 7.702-1.043-.112-1.725-.586-2.119-1.348.201-.41.766-.454 1.06-.77.475.166.505.777 1.155.77 1.713-.528.503-4.213.867-6.066l-.001-.288zM15.7 20.176c-.21.463-.721.627-1.155.866-.118-.428-.505-.586-.963-.675-.42.062-.733.23-.77.675.367 1.333 2.215 1.187 2.984 2.118.587.823.555 2.257-.096 2.984-1.349 1.148-4.365.701-4.814-.963.401-.208.799-.42 1.155-.674.331.867 2.358 1.495 2.696.193-.371-1.331-2.239-1.163-2.984-2.119-2.096-2.654 2.59-4.896 3.947-2.405zM20.707 19.212v3.178h3.177c.225-.867.033-2.15.097-3.178.345-.2 1.04-.05 1.54-.096v7.606h-1.54v-2.89c-.867-.224-2.151-.032-3.177-.095-.225.802-.033 2.021-.097 2.984h-1.541v-7.511c.327-.152 1.213-.152 1.541.002zM27.062 20.945c-.817-.924.505-2.212 1.444-1.348.67.957-.49 2.022-1.444 1.348zM36.111 20.271h1.445v1.638c.229.222.864.034 1.25.097v1.251h-1.25c.063.771-.163 1.833.192 2.312.305.15.422-.054.771-.097.184.328.449.577.48 1.059-2.134 1.144-3.396-.75-2.889-3.177-.041-.216-.474-.039-.674-.097v-1.251h.674l.001-1.735zM34.475 26.723h-1.443v-2.984c-1.392-1.771-2.236 1.029-1.83 2.984h-1.443v-4.718h1.443v.577c.39-.125.973-.888 2.022-.674 1.653.367 1.203 2.842 1.251 4.815zM28.506 22.005v4.718h-1.444v-4.718h1.444z"/></g></svg>