<svg xmlns="http://www.w3.org/2000/svg" width="40" height="40" viewBox="980 984.138 40 40" enable-background="new 980 984.138 40 40"><path fill-rule="evenodd" clip-rule="evenodd" fill="#CF73A1" d="M1011.932 1006.466c-.867-.961-.935-2.822-.413-4.137-.39-.152-1.163-.152-1.552 0-.643 1.736-1.203 3.555-2.482 4.654-.572-.913-.49-2.672-.104-3.724-.349-.192-1.189-.125-1.551 0-.401 1.315-.979 2.601-1.552 3.827-.573 1.228-.887 2.623-1.861 3.516-.085-1.739.568-2.74.724-4.24-.105-.308-.736-.091-.931-.31.064-.754-.093-1.287-.414-1.655-1.499-.104-2.477.826-3.619 1.552-1.003.637-2.307 1.966-3.517 1.965-.535-.001-1.322-.541-2.172-.621-3.648-.34-8.611.867-9.515-1.965-.87-2.725 1.942-5.994 3.31-7.343 3.295-3.252 9.354-5.327 12.928-2.999.9.586 1.546 1.779 1.551 3.103-2.07-.014-4.345.898-4.033 2.792.116.708.804 1.15 1.655 1.138 1.753-.025 2.66-1.892 3.516-2.792.992.076 1.426.712 1.759 1.447.417-1.323-.892-1.789-1.552-2.378.931-4.251-3.605-6.034-7.239-5.792-3.353.224-6.598 2.018-8.895 4.137-2.35 2.168-4.805 5.136-4.965 8.067-.096 1.77.671 3.111 1.759 3.619 3.218 1.505 7.315-.563 10.342.311-1.717 1.232-5.198 2.32-5.067 5.068.04.848.985 1.683 1.552 1.861 4.198 1.325 8.937-3.448 5.895-7.033.887-.389 1.535-1.016 2.482-1.344-.641 1.751-.786 5.766 1.138 5.688 1.281-.051 1.187-1.899 1.965-2.688.214.785-.053 2.052.724 2.275 2.276-1.31 2.581-4.591 4.034-6.723.354.817.546 1.798.931 2.585-.628 1.233-1.763 1.962-2.172 3.413 2.348.742 4.565-1.319 3.517-3.723.621-1.068 1.053-2.326 1.861-3.206.262.807.492 1.646.827 2.379-.72.839-2.018 2.061-1.447 3.516 1.749.528 3.747-1.34 2.896-3.413 2.092-1.422 6.594-.271 6.309 2.275-.075.673-1 1.066-.827 1.448.298-.185.604-.361.931-.517 1.743-3.838-3.541-5.72-6.726-4.033zm-14.48-5.585c-.461-1.328 1.461-2.203 3.104-1.965.313 1.203-2.526 3.628-3.104 1.965zm-2.688 11.997c-.948 1.24-5.006 2.45-5.274.414-.314-2.384 3.444-3.243 4.964-4.137.971 1.033 1.136 2.643.31 3.723zm4.55-1.758c-1.31-1.367.138-5.417 1.965-5.688.232 1.644-.933 4.302-1.965 5.688zm6.206.207c.322-.747.872-1.266 1.552-1.655-.176.893-.664 1.474-1.552 1.655zm4.343-1.138c.035-1 .657-1.411 1.034-2.068.817.689-.047 2.17-1.034 2.068z"/></svg>